<svg width="22" height="27" viewBox="0 0 22 27" fill="none" xmlns="http://www.w3.org/2000/svg">
<path d="M0.67564 3.24855C0.660089 3.24854 0.744177 3.24852 0.748606 3.24851C0.768052 3.24845 0.826342 3.24843 0.859401 3.24837C0.908507 3.24829 0.797987 3.24805 1.38218 3.24805C1.38219 3.24805 1.38221 3.24805 1.38222 3.24805C1.38795 3.24805 1.39374 3.24805 1.39961 3.24805C1.5109 3.24805 1.6324 3.24807 1.75826 3.24807C1.88418 3.24807 2.69706 3.24807 2.74275 3.2481C2.80298 3.24814 2.59455 3.24825 2.60379 3.24827C2.61015 3.24828 2.68405 3.2483 2.69717 3.24832C2.73946 3.24839 2.68542 3.24842 2.88616 3.24848C2.78037 3.2485 2.67459 3.24852 2.56881 3.24855C2.61785 3.24858 2.47834 3.24862 2.48603 3.24864C2.49235 3.24865 2.576 3.24866 2.57989 3.24868C2.58472 3.2487 2.49443 3.24872 2.50803 3.24875C2.52991 3.24881 2.74812 3.24882 2.77584 3.24885C2.80451 3.24888 2.68591 3.24893 2.7627 3.24897C2.7867 3.24898 2.81071 3.24898 2.83471 3.24899C2.889 3.24898 2.94329 3.24898 2.99758 3.24898C3.02286 3.249 2.91159 3.24901 2.90958 3.24903C2.90715 3.24905 3.01263 3.24906 3.01214 3.24907C3.01165 3.24909 2.92707 3.2491 2.93237 3.24912C2.93966 3.24914 3.06179 3.24914 3.08464 3.24915C3.09351 3.24916 3.1609 3.24925 3.16188 3.24925C3.16669 3.24929 2.99954 3.2493 2.98492 3.24933C2.94506 3.24942 3.08012 3.24951 3.13117 3.24959C3.15401 3.24963 3.14429 3.24966 3.11756 3.2497C2.68976 3.24964 2.35682 3.24977 3.02623 3.24972C2.931 3.24976 3.11171 3.24979 3.08115 3.24983C3.06122 3.24986 2.9684 3.24987 2.97083 3.24991C2.97574 3.24997 3.23958 3.25004 2.7627 3.25006C2.84677 3.25013 2.67378 3.2502 3.09477 3.25022C3.12048 3.25024 2.86973 3.25029 2.83566 3.25031C2.80358 3.25033 2.69035 3.25049 2.68403 3.25051C2.67771 3.25054 2.67084 3.25058 2.70778 3.2506C2.75347 3.25063 3.19007 3.25065 2.6796 3.2507C2.72091 3.25075 2.7063 3.25077 2.647 3.25082C2.63627 3.25083 2.56049 3.25083 2.56042 3.25084C2.56042 3.25085 2.61642 3.25087 2.62325 3.25089C2.63444 3.25092 2.47497 3.25094 2.71854 3.25094C2.75937 3.25096 2.80021 3.25098 2.84105 3.251C2.79404 3.25101 2.74703 3.25102 2.70002 3.25103C2.75125 3.25104 2.80248 3.25105 2.85371 3.25106C2.50125 3.25105 2.70924 3.25113 2.91148 3.2511C2.83857 3.25115 2.76565 3.25119 2.69274 3.25123C2.29217 3.25122 2.64651 3.25132 2.86431 3.25131C2.864 3.25132 2.86368 3.25132 2.86336 3.25133C2.75689 3.25137 2.84398 3.25141 2.77251 3.25146C2.70105 3.25151 2.66205 3.25151 2.4778 3.25152C2.48835 3.25154 2.4989 3.25155 2.50945 3.25156C3.01457 3.25162 2.14003 3.25161 2.5275 3.25172C2.21004 3.25176 2.37679 3.25184 2.47305 3.2519C2.48423 3.25191 2.54585 3.25191 2.56485 3.25191C2.61054 3.25194 2.53133 3.25199 2.73009 3.25199C2.67258 3.25201 2.61508 3.25203 2.55757 3.25205C2.59371 3.25206 2.62985 3.25208 2.66599 3.25209C2.72804 3.25209 2.79008 3.25209 2.85213 3.25209C2.64066 3.25212 2.72193 3.25217 2.67137 3.2522C2.66112 3.2522 2.57553 3.2522 2.55219 3.25222C2.52448 3.25224 2.5498 3.25227 2.52306 3.25229C2.61787 3.2523 2.71268 3.25231 2.80749 3.25231C2.85891 3.25235 2.60867 3.25237 2.58922 3.25239C2.58584 3.25239 2.60382 3.25246 2.60917 3.25247C2.65152 3.2525 2.86471 3.25249 2.81905 3.25258C2.81078 3.2526 2.73701 3.25261 2.73405 3.25263C2.7287 3.25265 2.89601 3.25273 3.05061 3.25274C2.85712 3.25277 2.93621 3.25285 2.8803 3.25288C2.86311 3.25289 2.73987 3.25289 2.71363 3.25291C2.69224 3.25293 2.79093 3.25298 2.77441 3.253C2.75643 3.25303 2.65289 3.25304 2.64557 3.25305C2.63877 3.25306 2.72235 3.25307 2.72186 3.25308C2.71895 3.25313 2.58442 3.25317 2.58194 3.25321C2.57805 3.25326 2.82551 3.25331 2.93538 3.25335C2.91934 3.25336 2.86622 3.25337 2.86574 3.25338C2.85796 3.25352 2.81236 3.25368 2.75937 3.25382C2.73504 3.25389 2.39915 3.25405 2.9596 3.25401C3.05775 3.25403 2.83179 3.2542 2.82838 3.25423C2.82501 3.25426 2.92551 3.25428 2.92699 3.25431C2.93137 3.25438 2.85895 3.25444 2.94646 3.25453C2.96934 3.25455 3.08839 3.25457 3.08701 3.25459C3.08507 3.25461 2.96992 3.25462 2.9626 3.25465C2.94608 3.2547 2.98395 3.25479 2.96403 3.25484C2.96014 3.25485 2.85903 3.25485 2.82743 3.25487C2.70396 3.25492 2.71467 3.25497 3.03747 3.25496C2.85421 3.25503 3.02137 3.25509 3.03161 3.25515C3.05252 3.25528 2.97717 3.25551 3.11281 3.25562C3.19838 3.25569 3.34315 3.25568 3.21822 3.25579C3.19052 3.25581 3.15315 3.25583 3.12009 3.25586C3.04231 3.25592 2.77485 3.25598 3.09714 3.25603C3.01355 3.2561 3.07283 3.25616 2.7972 3.25621C2.86331 3.25622 2.92942 3.25623 2.99553 3.25623C2.99716 3.25624 2.9988 3.25625 3.00043 3.25626C2.93738 3.25626 2.87434 3.25627 2.81129 3.25627C2.79431 3.25633 3.05345 3.25641 3.05156 3.25646C3.04864 3.25655 2.94797 3.25678 2.86289 3.25687C2.81771 3.25691 2.95274 3.25692 2.67517 3.25694C2.69448 3.25695 2.71379 3.25696 2.7331 3.25697C2.79388 3.25698 2.85466 3.25698 2.91544 3.25699C2.91787 3.25705 2.82346 3.25712 2.82443 3.25717C2.82637 3.25727 2.99365 3.25742 2.88378 3.25752C2.85607 3.25755 2.73074 3.25758 2.73215 3.25761C2.73409 3.25764 2.9421 3.25765 2.94598 3.2577C2.9523 3.25777 2.71067 3.25792 2.72914 3.258C2.73449 3.25802 2.81189 3.25803 2.82015 3.25804C2.85564 3.25811 2.84934 3.25816 2.96893 3.25822C2.76961 3.25829 2.51233 3.25828 2.25273 3.2583C2.05679 3.25832 1.60271 3.25836 1.4311 3.25837C1.31054 3.25838 1.15545 3.25836 1.02274 3.25836C0.916765 3.25829 1.03343 3.25825 1.22012 3.25819C1.21268 3.25807 1.20524 3.25795 1.1978 3.25783C1.27024 3.25782 1.34268 3.25781 1.41512 3.2578C1.41527 3.2578 1.41543 3.2578 1.41559 3.2578C1.49919 3.25776 1.31264 3.25774 1.27029 3.25771C0.864837 3.25748 1.18217 3.25702 1.22787 3.25676C1.23759 3.2567 1.13998 3.25652 1.25763 3.25648C1.28827 3.25647 1.39997 3.25647 1.40483 3.25646C1.3384 3.25637 1.27198 3.25627 1.20556 3.25618C1.37911 3.25598 1.23578 3.25578 1.20904 3.25559C1.1366 3.25506 1.04856 3.25454 1.07529 3.25402C1.08064 3.25392 0.996955 3.2538 1.05092 3.2537C1.07329 3.25366 1.25267 3.25364 1.11898 3.25359C1.16731 3.25359 1.21563 3.25358 1.26396 3.25358C1.20562 3.25354 1.09565 3.25351 1.08447 3.25345C1.07524 3.25341 1.06806 3.25329 1.08653 3.25325C1.09577 3.25323 1.18607 3.25324 1.18561 3.25322C1.18415 3.25319 1.05931 3.25312 1.05931 3.25308C1.05931 3.25304 1.16333 3.25297 1.14826 3.25294C1.09478 3.25282 0.940585 3.2527 0.981909 3.25258C0.9936 3.25255 1.11069 3.25251 1.10742 3.2525C1.10062 3.25248 0.986877 3.25247 0.972254 3.25246C0.898362 3.25239 1.03353 3.25228 1.03889 3.25221C1.05639 3.25199 1.00675 3.25176 1.02765 3.25154C1.04078 3.2514 1.02076 3.25117 1.10632 3.25104C1.12479 3.25102 1.2494 3.25102 1.2494 3.251C1.24937 3.25097 1.16519 3.25096 1.15839 3.25095C1.11074 3.25087 1.02565 3.25068 1.1117 3.2506C1.12822 3.25059 1.22585 3.25058 1.2255 3.25057C1.2255 3.25056 1.15887 3.25055 1.15206 3.25054C1.09177 3.25041 1.13063 3.25032 1.15348 3.2502C1.19675 3.24997 1.07279 3.24969 1.13987 3.24945C1.15446 3.24939 1.34758 3.24935 1.34563 3.24935C1.34174 3.24933 1.21184 3.24932 1.17976 3.24929C1.07429 3.24917 1.2129 3.24902 1.14778 3.24892C1.1157 3.24886 0.95081 3.24879 0.914324 3.24874C0.885158 3.2487 0.94984 3.2486 0.877445 3.24858C0.833707 3.24857 0.693227 3.24857 0.67564 3.24855ZM2.86241 3.24995C2.63781 3.24994 2.82447 3.25002 2.94503 3.24999C2.97218 3.24998 2.92072 3.24995 2.86241 3.24995ZM2.47242 3.25357C2.53657 3.25357 2.60073 3.25357 2.66488 3.25357C2.63819 3.25356 2.61149 3.25355 2.58479 3.25354C2.54623 3.25354 2.50766 3.25355 2.46909 3.25356C2.4702 3.25356 2.47131 3.25357 2.47242 3.25357Z" fill="#060B45" style="mix-blend-mode:plus-darker"/>
<path d="M12.9929 5.61145C12.9148 5.55031 12.8872 5.37592 12.801 5.27518C12.436 4.84551 12.311 4.61716 11.9828 4.13221C11.8793 3.9769 11.7254 3.75935 11.5668 3.50036C11.3196 3.06225 10.951 2.68353 10.9937 2.60439L11.2315 2.66542C11.0941 2.61867 11.0408 2.57779 11.0227 2.54024C10.972 2.45532 10.7558 2.33487 10.7865 2.18895C10.7865 2.18893 10.7865 2.18891 10.7865 2.1889C10.7871 2.1823 10.788 2.17565 10.7892 2.16894C10.8228 2.04441 11.0316 1.91355 11.0572 1.76989C11.0758 1.69741 11.0934 1.42045 11.1593 1.16282C11.2185 0.910077 11.3689 0.686063 11.4839 0.678468C11.4939 0.677782 11.5034 0.677297 11.5123 0.67694C11.5525 0.683913 11.6675 0.710785 11.7051 0.726433C12.509 0.960824 12.952 2.00023 13.0716 2.15634C13.1315 2.2346 13.2222 2.30816 13.3102 2.39206C13.357 2.4324 13.4032 2.47405 13.4422 2.52149C13.777 2.922 13.9099 3.16658 14.4209 3.38416C14.4682 3.61698 14.5272 3.85847 14.5851 4.10629C14.7464 4.22742 14.8815 4.48246 14.9799 4.68315C15.0234 4.77285 15.0602 4.84813 15.0953 4.89213C15.1853 5.00498 15.3128 5.01871 15.4004 5.13828C15.4992 5.27158 15.5513 5.53911 15.7245 5.76062C16.0093 6.11943 16.2543 6.0129 16.4277 6.16155C16.5313 6.24728 16.6228 6.38863 16.7445 6.50459C16.8748 6.62169 17.015 6.73334 17.1681 6.80288C17.2233 6.81018 17.2778 6.81702 17.3331 6.82447C17.3438 6.75352 17.3551 6.68298 17.366 6.61217C17.5369 6.70651 17.5243 6.85916 17.6638 6.96962C17.8279 7.09977 17.9868 7.06861 18.0988 7.15633C18.19 7.22804 18.254 7.40208 18.3768 7.49102C18.5555 7.62126 18.6052 7.4807 18.7155 7.53459C18.7569 7.55076 19.5061 8.06389 19.5504 8.1075C19.8682 8.3817 19.7551 8.53172 20.0233 8.84007C20.0324 8.85101 20.0416 8.862 20.0507 8.87308C20.3915 9.26966 20.4851 9.72696 20.5367 9.93473C20.5899 10.1641 20.6281 10.3017 20.6805 10.4363C20.8345 10.881 20.9856 11.4267 21.0143 11.9416C21.0414 12.3771 20.9941 12.7381 20.9423 13.062C20.4841 12.5077 20.0228 13.6292 20.8237 13.2518C20.7751 13.3804 20.7708 13.4966 20.7826 13.6105C20.8024 13.8178 20.8674 14.0141 20.8327 14.2355C20.7971 14.462 20.681 14.6149 20.6672 14.9374C20.6425 15.513 20.9254 16.1398 20.3699 16.2861C20.4465 16.9533 20.2515 17.5264 20.7454 17.7417C20.7602 17.8109 20.7164 17.9314 20.6615 18.0571C20.5909 18.2369 20.4991 18.4282 20.4833 18.5403C20.4518 18.7247 20.4269 20.1336 20.4483 20.3618C20.4628 20.5893 20.499 20.991 20.5643 21.1802C20.628 21.3727 20.9733 21.4682 20.8392 21.8093C20.8011 21.8632 20.7333 21.9375 20.6231 22.034C20.732 22.4982 20.7489 22.683 20.7606 23.1551C20.7631 23.2408 20.6786 23.266 20.6872 23.3148C20.7052 23.4161 20.8001 23.5764 20.8413 23.7556C20.9091 24.0502 20.7606 24.2549 21.031 24.1691C21.1145 24.3559 21.1988 24.5444 21.283 24.7313C21.2431 24.8114 21.203 24.8909 21.1629 24.9697C21.2098 25.0265 21.2566 25.0829 21.3031 25.1382C21.3199 25.1714 21.3583 25.2625 21.3608 25.4462C21.3677 25.627 21.2853 25.8999 21.1652 26.0653C21.2564 25.7293 21.054 26.007 20.8223 26.1329C20.5956 26.2576 20.4522 26.2838 20.3424 26.335C20.1321 26.4245 19.9983 26.5552 20.1771 26.648C20.0984 26.6489 20.0272 26.6462 19.9581 26.6423C19.5496 26.6145 19.209 26.552 18.8605 26.491C18.9012 26.0284 17.9914 26.4559 18.0709 26.7054C18.0248 26.7056 17.9817 26.7058 17.9357 26.706C17.5406 26.5872 17.179 26.6898 16.7021 26.6081C16.2237 26.526 16.2698 26.4806 16.1239 26.2674C16.0137 26.2795 15.8988 26.2916 15.7883 26.3036C15.6183 26.4687 15.5121 26.506 15.4126 26.4846C15.1695 26.4305 15.0203 26.0014 14.2953 26.3181C13.9766 25.9489 13.1821 26.1355 12.6565 26.2421C12.5953 26.2545 12.5936 26.3258 12.5118 26.347C12.3126 26.3981 11.8054 26.3018 11.8206 26.5319C11.6457 26.4638 11.4704 26.3956 11.2953 26.3275C11.1514 26.368 11.0073 26.4085 10.8635 26.449C10.8635 26.5208 10.8636 26.5926 10.8637 26.6644C10.5768 26.4171 10.1213 26.5072 9.89839 26.447C9.85381 26.4348 9.84472 26.3357 9.70652 26.3076C9.54525 26.2742 9.24262 26.3013 9.0503 26.2691C8.97554 26.3782 8.89834 26.4874 8.82305 26.5966C8.47842 26.654 8.35832 26.364 8.15653 26.3406C8.119 26.3363 7.45771 26.3551 7.41954 26.3614C7.12876 26.4106 7.208 26.6552 6.36641 26.6064C6.26677 26.6006 6.17256 26.5594 6.08662 26.5333C6.04472 26.5212 6.00322 26.5124 5.96094 26.5119C5.72376 26.507 5.01759 26.7211 4.96845 26.9032C4.67636 26.6883 3.90524 26.8193 3.64491 26.7605C3.56801 26.7419 3.5528 26.6028 3.30433 26.571C3.20445 26.5558 3.0485 26.5802 2.77603 26.5515C2.63965 26.5337 2.45575 26.5011 2.23945 26.3725C2.02227 26.248 1.83872 26.0127 1.76784 25.8469C1.75735 25.824 1.74805 25.8016 1.74072 25.7815C1.63697 25.4805 1.73348 25.3631 1.7034 25.2461C1.67813 25.1389 1.55706 25.0698 1.51922 24.93C1.42054 24.5564 1.45676 24.2049 1.41909 23.9115C1.41329 23.8645 1.40556 23.8199 1.39467 23.7761C1.28375 23.3271 0.885912 23.0276 0.644799 22.6434C0.633221 22.5337 0.663982 22.4124 0.635685 22.295C0.586859 22.0909 0.542636 21.8667 0.51653 21.6263C0.399301 20.3575 0.447483 19.1549 0.468653 18.0238C0.473418 17.8274 0.512732 17.5548 0.544412 17.2674C0.613517 16.6582 0.647242 16.0328 0.207172 16.3167C0.0899328 16.1074 0.331413 14.5763 0.332423 14.2859C0.332956 13.9953 0.21417 13.7671 0.209983 13.5379C0.197573 12.8495 0.276499 12.3634 0.16767 11.5259C0.139254 11.3095 -0.000484943 11.079 2.03848e-05 10.9505C0.000947714 10.7958 0.132759 10.629 0.139582 10.4284C0.154737 9.95108 0.104251 9.06315 0.124218 8.60535C0.12815 8.52274 0.244899 8.491 0.280653 8.37137C0.420346 7.90529 0.404849 7.3836 0.0319794 7.47854C0.240412 6.88296 0.0440786 6.32869 0.0298202 5.7765C0.0246153 5.57054 0.0228592 5.32651 0.0227737 5.07333C0.0226216 4.56637 0.0280772 4.00177 0.0268081 3.43727C0.0262855 3.15635 0.0239049 2.87989 0.020173 2.60961C0.0184633 2.47343 0.0160288 2.34237 0.0159029 2.19791C0.0161304 2.12543 0.0158755 2.05289 0.0224119 1.94734C0.0266402 1.89223 0.0294645 1.83365 0.0520258 1.71701C0.0636716 1.66118 0.081751 1.57652 0.13127 1.45478C0.17556 1.3328 0.306818 1.13733 0.358958 1.08207C0.637597 0.783518 0.753027 0.771133 0.843101 0.717232C0.928041 0.677 0.986512 0.655553 1.03551 0.637666C1.1329 0.602989 1.19665 0.584402 1.25688 0.56658C1.3719 0.532909 1.46296 0.508906 1.54072 0.486572C2.2739 0.289888 2.22344 0.133888 3.21038 0.207491C3.4267 0.225451 3.64143 0.255682 3.90052 0.27918C4.40496 0.325203 4.87623 0.527268 5.27348 0.369838C5.35191 0.337582 5.42597 0.289771 5.49483 0.221911C5.97232 0.273001 6.4634 0.186091 6.89957 0.320717C6.99791 0.351653 7.09288 0.392872 7.18979 0.447935C7.2426 0.368159 7.29434 0.288397 7.34741 0.208511C7.4276 0.20168 7.50728 0.194793 7.58777 0.187787C7.61742 0.258988 7.64703 0.330186 7.67659 0.401381C8.25594 0.384292 8.96805 0.0331933 9.4842 0.00996792C9.64722 0.00276375 9.85433 -0.00282395 10.1168 0.00152731C10.2487 0.00424588 10.3894 0.00827682 10.5711 0.0246532C10.6611 0.0336245 10.7631 0.0432354 10.9157 0.0748932C10.9954 0.0934269 11.0809 0.10858 11.2519 0.180004C11.3303 0.215064 11.4536 0.27109 11.6043 0.398482C11.7702 0.533545 12.02 0.84987 12.0486 1.26547C12.078 2.23409 12.0096 3.26275 11.9343 3.77868C11.8699 4.21106 12.0225 4.24483 11.6886 4.47625C11.7052 4.57471 11.721 4.67349 11.7358 4.77337C11.8013 4.83991 11.8663 4.90761 11.9309 4.97619C11.9122 5.20141 11.8696 5.44377 11.8132 5.69037C11.7349 6.01139 11.6556 6.34528 11.6258 6.64157C11.5371 7.49541 11.6392 8.79138 11.5067 9.70107C11.5005 9.74882 11.4934 9.79434 11.4854 9.83913C11.4616 9.97215 11.4037 10.119 11.3524 10.2384C11.327 10.2963 11.3039 10.3508 11.2899 10.3674C11.2586 10.3738 11.3308 10.3881 11.1593 10.0496C11.0921 9.93656 10.9528 9.8133 10.8358 9.75978C10.8657 9.74553 10.9896 9.56323 11.3068 9.58558C11.5308 9.60161 11.8546 9.64997 12.209 9.69893C12.844 9.7844 13.5482 9.89606 13.9826 9.88507C14.1863 9.88004 14.2817 9.79101 14.4224 9.7822C15.0122 9.74423 15.4968 9.75367 16.0627 9.61769C16.2103 9.67443 16.3198 9.73498 16.4008 9.79846C16.6582 9.9958 16.6613 10.2215 16.8025 10.4493C16.9446 10.6766 17.3789 11.2037 17.4414 11.4024C17.4852 11.542 17.3201 11.7208 17.3808 11.8746C16.9531 11.9448 16.6729 11.9269 16.3923 11.856C16.1974 11.8061 16.0005 11.7298 15.757 11.6395C14.6642 11.6433 13.5734 11.6471 12.4771 11.6459C12.3829 11.5639 12.2842 11.4817 12.1902 11.3995C12.187 11.3968 12.1837 11.3941 12.1805 11.3915C12.1805 11.3913 12.1805 11.3911 12.1805 11.3909C11.7512 11.2885 11.5617 11.4955 11.3138 11.5297C10.9906 11.5498 10.7202 11.6547 10.0481 11.4179C9.88392 11.3463 9.70709 11.1921 9.61377 11.0452C9.51685 10.898 9.48031 10.776 9.45741 10.6881C9.41599 10.5123 9.41785 10.4247 9.41368 10.3496C9.40983 10.2057 9.4137 10.1242 9.41507 10.0417C9.41873 9.88306 9.42079 9.75197 9.41888 9.61489C9.41516 8.32872 9.54008 6.82165 9.80449 5.39579C9.98139 4.46665 10.0396 3.49677 10.0465 2.74157C10.0483 2.48959 10.0075 1.92728 9.96004 1.43393C9.97802 1.69618 10.1322 1.9019 10.2331 1.98696C10.3224 2.06554 10.3901 2.09571 10.4226 2.11102C10.4991 2.14366 10.5086 2.141 10.5147 2.14362C10.5216 2.14509 10.4851 2.13983 10.4479 2.13729C10.3696 2.1313 10.2699 2.12787 10.1781 2.12396C9.9949 2.11632 9.83508 2.10492 9.75091 2.07515C9.66342 2.04347 9.62993 1.9157 9.53641 1.91479C8.70888 2.03434 7.86339 2.17515 7.01151 2.29784C6.99319 2.30051 6.97531 2.30319 6.95783 2.30585C6.46521 2.27224 5.92094 2.31168 5.36957 2.32525C4.12735 2.37341 2.69963 2.5054 1.7112 2.69401C1.69807 2.69766 1.68917 2.70156 1.70354 2.69725C1.73282 2.6697 1.71451 2.75561 1.9933 2.48939C2.02362 2.46248 2.1158 2.31199 2.12994 2.25752C2.15238 2.19476 2.15483 2.17283 2.15773 2.16116C2.1618 2.14 2.15943 2.1573 2.15884 2.17415C2.15676 2.21292 2.15514 2.27112 2.1543 2.32918C2.15252 2.45 2.1529 2.57572 2.1537 2.7049C2.15548 2.96498 2.15956 3.22326 2.16396 3.4881C2.17295 4.01441 2.18385 4.53497 2.1947 5.06617C2.27446 8.77892 2.35768 12.4759 2.38475 16.1445C2.38743 16.4847 2.40486 16.8555 2.42407 17.2343C2.45715 17.8905 2.49577 18.5623 2.47257 19.1299C2.45777 19.5027 2.25454 19.668 2.42905 20.1479C2.37341 20.1554 2.31777 20.1629 2.26213 20.1703C2.34917 20.5873 2.48677 20.8632 2.5443 21.2802C2.5484 21.3089 2.55297 21.3403 2.55853 21.3796C2.58415 21.6765 2.87401 22.5546 2.95158 22.9096C2.99475 23.1021 2.87451 23.0593 2.92317 23.2369C2.94373 23.3122 2.9782 23.4076 3.01892 23.5156C3.13859 23.8277 3.31815 24.2267 3.39423 24.4939C3.44096 24.6615 3.48169 24.9028 3.51291 25.0366C3.44398 24.8804 3.18565 24.7322 3.15542 24.7461C3.10795 24.7409 3.15079 24.7565 3.18433 24.7539C3.87434 24.7193 5.05508 24.4649 6.06588 24.476C6.15934 24.476 6.26217 24.4776 6.35541 24.4812C6.66335 24.4926 7.06077 24.6277 7.15439 24.624C7.34476 24.6161 7.39617 24.4846 7.52437 24.4679C8.1635 24.3833 9.15689 24.5461 9.78025 24.5574C11.6268 24.5901 13.5711 24.5681 15.4179 24.5838C15.6075 24.5853 15.7917 24.5872 15.9767 24.5897C17.0035 24.5977 18.6924 24.6073 19.717 24.5612C19.8099 24.5565 19.9019 24.5438 19.8985 24.5502C19.8893 24.5646 19.8678 24.5364 19.6628 24.7043C19.563 24.7844 19.4036 25.0223 19.3803 25.2324C19.3534 25.4383 19.3894 25.5169 19.3861 25.5078C19.3849 25.4966 19.3837 25.4854 19.3825 25.4741C19.3553 25.2205 19.5097 25.2596 19.4692 25.0497C19.4242 24.8166 19.3043 24.7081 19.2758 24.6002C19.1246 24.0092 18.8322 22.9375 18.7539 21.9782C18.7426 21.7872 18.7264 21.5599 18.7307 21.3979C18.7337 21.2576 18.8346 21.1442 18.8249 21.0601C18.8204 21.019 18.7331 20.9311 18.7113 20.799C18.5517 19.8211 18.5218 19.0593 18.5001 18.1651C18.4955 17.9767 18.4947 17.786 18.496 17.5888C18.5067 16.2715 18.5582 14.8697 18.6117 13.4997C18.6277 13.007 18.6731 12.4934 18.6856 12.0924C18.6987 11.7 18.6538 11.3746 18.566 10.9549C18.5576 10.9163 18.5498 10.8783 18.5425 10.8409C18.4869 10.5499 18.5155 10.3306 18.5488 10.2371C18.5828 10.1422 18.6311 10.1304 18.6291 10.1261C18.6272 10.1257 18.6154 10.1358 18.6 10.151C18.521 10.1349 18.4051 10.1276 18.25 10.0195C17.4789 9.48533 16.4488 8.5139 15.6296 7.97762C15.6267 7.97575 15.6239 7.97388 15.621 7.97201C15.0843 7.62861 14.4374 7.07949 14.1294 6.69557C13.9443 6.46827 13.6887 6.02728 13.4992 5.79602C13.4307 5.71183 13.3645 5.64924 13.3202 5.63378C13.2265 5.60062 13.0782 5.67726 12.9929 5.61145ZM20.5249 15.2751C20.2678 15.1962 20.4532 15.9094 20.6038 15.6514C20.6375 15.5937 20.5913 15.2958 20.5249 15.2751ZM0.870893 20.354C0.797054 20.364 0.723215 20.374 0.649379 20.3839C0.684661 20.4782 0.720292 20.5727 0.756355 20.6664C0.797933 20.6097 0.839688 20.5534 0.881623 20.4983C0.878007 20.4514 0.874297 20.4003 0.870893 20.354Z" fill="#060B45" style="mix-blend-mode:plus-darker"/>
<path d="M19.2863 9.65058C19.2937 9.63607 19.2863 9.72012 19.2907 9.7254C19.3094 9.74844 19.3076 9.8074 19.3115 9.84167C19.3117 9.84438 19.3119 9.84663 19.3121 9.84854C19.3133 9.86542 19.3212 9.8569 19.2914 9.90943C19.2567 9.96116 19.2032 10.0809 19.214 10.3578C19.214 10.3578 19.214 10.3578 19.214 10.3578C19.2139 10.3635 19.2138 10.3693 19.2136 10.3752C19.21 10.4864 19.2064 10.6079 19.202 10.7337C19.1964 10.8594 19.1754 11.6724 19.1377 11.7161C19.0766 11.7725 19.0513 11.5573 19.0437 11.5655C19.0362 11.5707 19.0164 11.6424 19.0062 11.6539C19 11.6611 18.995 11.6649 18.9905 11.6676C18.9722 11.6794 18.9656 11.6738 18.9276 11.8319C18.9417 11.727 18.9557 11.622 18.9689 11.517C18.9547 11.5643 18.9686 11.4252 18.9633 11.4321C18.9592 11.4378 18.9442 11.5202 18.9405 11.5235C18.9362 11.5277 18.9444 11.4376 18.9356 11.4501C18.9211 11.47 18.8881 11.6858 18.878 11.7123C18.8679 11.7398 18.8734 11.6209 18.8546 11.6959C18.8503 11.7195 18.8461 11.7432 18.8419 11.7668C18.8357 11.8208 18.8294 11.8747 18.823 11.9286C18.8157 11.9531 18.8283 11.8426 18.8246 11.8401C18.8202 11.8371 18.8048 11.9414 18.8018 11.9406C18.7994 11.9398 18.8062 11.8554 18.8023 11.8603C18.7965 11.8669 18.7828 11.9883 18.7775 12.0106C18.7754 12.0193 18.7485 12.084 18.7473 12.0848C18.7383 12.0887 18.7566 11.9225 18.7511 11.9072C18.7359 11.8654 18.701 11.9975 18.6776 12.0465C18.667 12.0683 18.6595 12.0578 18.6537 12.0304C18.7091 11.606 18.7104 11.2716 18.6573 11.939C18.6572 11.8685 18.644 11.9473 18.6347 11.9811C18.6314 11.9932 18.6286 11.9995 18.627 11.9913C18.6231 11.9709 18.6273 11.8781 18.6187 11.8797C18.6029 11.8832 18.5633 12.1446 18.6007 11.6691C18.5753 11.7513 18.5738 11.5775 18.5317 11.9965C18.525 12.0217 18.5339 11.7708 18.5314 11.7364C18.5291 11.704 18.4991 11.588 18.4932 11.5812C18.4874 11.5744 18.4764 11.5666 18.4683 11.603C18.4578 11.6481 18.4198 12.083 18.4467 11.5731C18.4295 11.6132 18.4255 11.5983 18.4168 11.5382C18.4152 11.5273 18.4206 11.4517 18.4192 11.4515C18.4163 11.4513 18.4073 11.5068 18.4016 11.5132C18.3923 11.5237 18.3991 11.3644 18.3823 11.6073C18.3738 11.6477 18.3654 11.688 18.3569 11.7283C18.3583 11.6813 18.3597 11.6343 18.3611 11.5873C18.3544 11.6381 18.3479 11.689 18.3413 11.7399C18.3698 11.3886 18.3341 11.5946 18.3267 11.7968C18.3211 11.7233 18.3155 11.6498 18.3097 11.5763C18.3387 11.1768 18.289 11.5286 18.2766 11.7461C18.2754 11.7457 18.2742 11.7453 18.273 11.7449C18.2694 11.6379 18.2536 11.7241 18.2452 11.652C18.2367 11.5798 18.2405 11.541 18.2483 11.3568C18.2445 11.3672 18.2407 11.3775 18.2369 11.3878C18.1884 11.8909 18.2466 11.0182 18.194 11.4032C18.2046 11.0858 18.1718 11.2508 18.1513 11.346C18.1489 11.3571 18.1452 11.4186 18.1418 11.4374C18.1336 11.4827 18.124 11.4028 18.1129 11.6012C18.1114 11.5435 18.1098 11.4858 18.1082 11.4281C18.1021 11.464 18.096 11.4998 18.0899 11.5357C18.0864 11.5976 18.0829 11.6596 18.0793 11.7215C18.0835 11.51 18.066 11.5904 18.0627 11.5395C18.0621 11.5292 18.0666 11.4438 18.064 11.4202C18.061 11.3923 18.0511 11.4171 18.0472 11.3901C18.0399 11.4847 18.0326 11.5792 18.0253 11.6738C18.013 11.7246 18.0232 11.4746 18.0185 11.4548C18.0177 11.4514 17.998 11.4684 17.9968 11.4737C17.9864 11.5155 17.9776 11.7285 17.9564 11.6817C17.9527 11.6733 17.9531 11.5994 17.9494 11.5963C17.943 11.5906 17.9144 11.7567 17.9054 11.911C17.9069 11.7174 17.8813 11.7953 17.8777 11.7392C17.8766 11.7219 17.882 11.5988 17.8772 11.5723C17.8734 11.5507 17.8564 11.6487 17.8511 11.6319C17.8454 11.6137 17.8478 11.5102 17.8452 11.5027C17.8427 11.4958 17.8365 11.5792 17.8327 11.5785C17.8212 11.5751 17.8165 11.4402 17.8072 11.4374C17.7939 11.4329 17.7717 11.6796 17.7562 11.789C17.7541 11.7728 17.7536 11.7196 17.7507 11.719C17.7246 11.7122 17.6968 11.6848 17.6703 11.6491C17.6609 11.6364 17.6517 11.6227 17.6427 11.6086C17.627 11.5837 17.5957 11.2466 17.5891 11.8071C17.5803 11.905 17.5452 11.6779 17.5371 11.6743C17.5292 11.6707 17.5199 11.7709 17.5136 11.7722C17.4944 11.7761 17.4829 11.7033 17.4574 11.7902C17.4508 11.8129 17.4414 11.9318 17.4379 11.9303C17.4337 11.9282 17.4319 11.813 17.4266 11.8056C17.4138 11.7887 17.3882 11.826 17.376 11.8058C17.3738 11.8019 17.3752 11.7008 17.3726 11.6691C17.3623 11.5454 17.3474 11.5558 17.3431 11.8785C17.3304 11.695 17.3115 11.8618 17.296 11.8717C17.2633 11.892 17.2051 11.8156 17.1746 11.9508C17.1555 12.0361 17.1537 12.1809 17.1294 12.0556C17.124 12.0278 17.1186 11.9903 17.1119 11.9572C17.0965 11.8792 17.0843 11.6115 17.0677 11.9337C17.05 11.8498 17.0349 11.909 17.0239 11.6332C17.0215 11.6993 17.0192 11.7654 17.0168 11.8314C17.0145 11.8331 17.0123 11.8347 17.01 11.8363C17.0099 11.7732 17.0099 11.7102 17.0099 11.6471C16.9935 11.63 16.9704 11.8889 16.9564 11.8869C16.9334 11.8837 16.8742 11.7826 16.8527 11.6974C16.8411 11.6521 16.8397 11.7871 16.8347 11.5095C16.832 11.5288 16.8293 11.5481 16.8265 11.5674C16.8244 11.6282 16.8224 11.6889 16.8203 11.7497C16.8053 11.752 16.7878 11.6575 16.7734 11.6584C16.7472 11.6602 16.7067 11.8273 16.6804 11.7173C16.6761 11.6993 16.6713 11.6401 16.6668 11.6012C16.6642 11.5802 16.6617 11.5651 16.6594 11.5656C16.6498 11.5675 16.6466 11.7755 16.6344 11.7794C16.6135 11.7856 16.5754 11.5438 16.5556 11.5622C16.5495 11.5675 16.5468 11.6449 16.5425 11.6531C16.5253 11.6886 16.5114 11.6822 16.4947 11.8017C16.4779 11.6023 16.4805 11.3451 16.4761 11.0854C16.4723 10.8895 16.4637 10.4354 16.4591 10.2637C16.4566 10.1432 16.4661 9.98811 16.4635 9.8554C16.4865 9.7495 16.4938 9.86621 16.5104 10.053C16.542 10.0456 16.5733 10.0383 16.6051 10.031C16.6076 10.1035 16.6101 10.1759 16.6127 10.2484C16.6127 10.2485 16.6127 10.2487 16.6127 10.2489C16.6247 10.3325 16.6302 10.146 16.6371 10.1037C16.6477 10.0359 16.66 9.98835 16.6737 9.95638C16.7403 9.79716 16.8362 10.0241 16.894 10.0626C16.9087 10.0724 16.9591 9.97523 16.9681 10.093C16.9705 10.1236 16.9702 10.2353 16.973 10.2402C16.9991 10.174 17.0251 10.1079 17.0515 10.0417C17.1019 10.2159 17.1577 10.0733 17.2114 10.0474C17.356 9.97722 17.5018 9.89237 17.6449 9.92364C17.6713 9.92962 17.7077 9.85378 17.7331 9.89647C17.7342 9.89822 17.7352 9.90018 17.7362 9.90234C17.7469 9.92512 17.745 10.1045 17.7649 9.9715C17.7632 10.0198 17.7615 10.0681 17.7599 10.1164C17.775 10.0586 17.7876 9.94903 17.8027 9.93843C17.8154 9.92968 17.8483 9.92384 17.8584 9.94277C17.8637 9.95223 17.8578 10.0424 17.863 10.0421C17.872 10.0411 17.8966 9.91716 17.9092 9.91772C17.9204 9.91822 17.9346 10.023 17.9439 10.0083C17.9773 9.95636 18.0191 9.80402 18.0503 9.84699C18.059 9.85914 18.0647 9.97669 18.0677 9.97357C18.0736 9.96707 18.0813 9.85357 18.0858 9.83917C18.109 9.76639 18.1317 9.90299 18.1501 9.90939C18.2101 9.93027 18.278 9.88462 18.3376 9.90942C18.3753 9.92499 18.4407 9.90938 18.4702 9.99728C18.4766 10.0163 18.4657 10.1404 18.4721 10.1409C18.4792 10.1413 18.4891 10.0577 18.4929 10.0511C18.5193 10.0053 18.577 9.92427 18.5923 10.0118C18.5952 10.0286 18.5905 10.1262 18.5931 10.126C18.5943 10.1261 18.6024 10.0599 18.607 10.0534C18.6467 9.99611 18.6693 10.037 18.702 10.0627C18.7353 10.0886 18.7758 10.0677 18.8169 10.0538C18.853 10.0416 18.8898 10.0349 18.9208 10.0697C18.9352 10.0859 18.9253 10.2791 18.9275 10.2774C18.9328 10.2741 18.9505 10.1454 18.9641 10.1146C19.0103 10.0137 19.0402 10.157 19.0832 10.0971C19.1043 10.0676 19.1523 9.90789 19.1768 9.87472C19.1962 9.84809 19.2224 9.91783 19.2411 9.84762C19.2526 9.80518 19.2779 9.66699 19.2863 9.65058ZM18.6194 11.7709C18.6415 11.5474 18.6056 11.7316 18.602 11.8523C18.601 11.8795 18.6137 11.8289 18.6194 11.7709ZM17.7179 11.3241C17.7156 11.3882 17.7134 11.4524 17.7111 11.5165C17.7147 11.4899 17.7184 11.4633 17.722 11.4367C17.722 11.3982 17.722 11.3596 17.722 11.321C17.7206 11.322 17.7192 11.3231 17.7179 11.3241Z" fill="#060B45" style="mix-blend-mode:plus-darker"/>
<path d="M11.7447 11.9595C11.7368 11.975 11.725 11.8907 11.7155 11.8861C11.6751 11.8662 11.6606 11.8078 11.6269 11.7748C11.6031 11.7501 11.5519 11.7663 11.5443 11.7155C11.547 11.6638 11.5555 11.5426 11.4862 11.2581C11.4862 11.2581 11.4862 11.2581 11.4862 11.2581C11.4851 11.2524 11.4841 11.2467 11.4831 11.2409C11.4644 11.1312 11.4541 11.0096 11.4351 10.8852C11.4177 10.7606 11.2745 9.95973 11.3193 9.90716C11.3972 9.83525 11.5194 10.0407 11.535 10.0313C11.5492 10.0246 11.5662 9.95045 11.5832 9.93718C11.6394 9.89449 11.667 9.94876 11.716 9.74846C11.7341 9.85444 11.7507 9.96044 11.7679 10.0665C11.7916 10.0178 11.8258 10.1579 11.8396 10.1505C11.8512 10.1444 11.8607 10.0609 11.8723 10.0573C11.8854 10.0527 11.9051 10.1435 11.9297 10.1304C11.9694 10.1095 11.9839 9.89157 12.0077 9.86445C12.0335 9.83641 12.0693 9.95601 12.1033 9.88014C12.108 9.85626 12.1128 9.83238 12.1175 9.8085C12.1161 9.75415 12.1147 9.6998 12.1133 9.64545C12.1306 9.62065 12.1343 9.73206 12.1486 9.73448C12.1656 9.7374 12.1776 9.63223 12.1895 9.63306C12.1992 9.63384 12.2102 9.71878 12.2221 9.71384C12.24 9.70708 12.2399 9.5849 12.2502 9.56235C12.2544 9.55359 12.3285 9.48845 12.3322 9.4876C12.3629 9.48375 12.361 9.65093 12.385 9.66632C12.4502 9.7083 12.5241 9.5756 12.5892 9.52672C12.6171 9.50482 12.6459 9.51552 12.6734 9.54322C12.6145 9.96924 12.7002 10.3053 12.6873 9.63508C12.7141 9.73129 12.7421 9.55144 12.7707 9.58302C12.7894 9.60361 12.7994 9.69684 12.8258 9.69534C12.8576 9.69316 12.8965 9.57433 12.9181 9.64118C12.9279 9.67383 12.9337 9.75081 12.9326 9.9074C12.9905 9.82535 13.0355 10.0001 13.0696 9.58005C13.0847 9.55486 13.1126 9.80679 13.1277 9.84143C13.1429 9.87409 13.2548 9.99149 13.2746 9.99855C13.294 10.0056 13.3273 10.0137 13.3446 9.97738C13.3665 9.93246 13.3968 9.49669 13.4144 10.0082C13.4588 9.96848 13.4725 9.98361 13.5094 10.0443C13.5161 10.0553 13.514 10.1311 13.5182 10.1313C13.5267 10.1316 13.5433 10.0762 13.5589 10.0699C13.5846 10.0597 13.5932 10.2196 13.5995 9.97612C13.6176 9.93593 13.6352 9.89573 13.6533 9.85554C13.6572 9.90274 13.6612 9.94993 13.6653 9.99712C13.676 9.94626 13.6867 9.8954 13.6975 9.84454C13.6738 10.1963 13.7441 9.99086 13.7315 9.78801C13.7613 9.8621 13.79 9.93615 13.8192 10.0102C13.7995 10.4103 13.8878 10.0591 13.8898 9.8412C13.8935 9.84166 13.8972 9.84212 13.9009 9.84257C13.9296 9.95021 13.9613 9.86427 13.9978 9.93718C14.0342 10.0101 14.0291 10.0489 14.034 10.2335C14.0437 10.2233 14.0533 10.2131 14.063 10.2029C14.1307 9.70002 14.0882 10.5736 14.1858 10.1896C14.2003 10.5078 14.2716 10.3437 14.3183 10.2491C14.3238 10.2382 14.3262 10.1766 14.3336 10.1579C14.3517 10.1128 14.3906 10.1936 14.3968 9.99493C14.4091 10.053 14.4214 10.111 14.4335 10.169C14.4466 10.1333 14.4598 10.0977 14.4729 10.062C14.4753 10 14.4776 9.93802 14.48 9.87602C14.4955 10.0882 14.536 10.0085 14.5526 10.0597C14.5558 10.0701 14.5533 10.1557 14.5639 10.1794C14.5762 10.2076 14.6019 10.1833 14.6167 10.2106C14.6265 10.1161 14.6364 10.0216 14.6462 9.92712C14.6765 9.87684 14.6768 10.1273 14.6927 10.1474C14.6956 10.1509 14.7512 10.135 14.7543 10.1298C14.7802 10.0884 14.7815 9.87512 14.8495 9.92346C14.8616 9.9322 14.8688 10.0063 14.8799 10.0097C14.8996 10.0158 14.9661 9.85098 14.9767 9.69668C14.9932 9.89096 15.0607 9.81445 15.0776 9.87106C15.0826 9.88846 15.0791 10.0117 15.0957 10.0386C15.1092 10.0605 15.1498 9.96333 15.1672 9.98054C15.1857 9.99926 15.1885 10.103 15.1968 10.1106C15.2047 10.1178 15.2155 10.0345 15.2265 10.0354C15.261 10.0397 15.2871 10.1754 15.3144 10.1789C15.3537 10.1844 15.3984 9.93847 15.4358 9.82998C15.4434 9.84633 15.4494 9.89972 15.458 9.90055C15.5642 9.91251 15.6826 9.96281 15.7873 10.02C15.8358 10.0462 15.9461 10.3868 15.9353 9.82544C15.9563 9.72804 16.0728 9.95879 16.0965 9.96314C16.1202 9.96745 16.143 9.86778 16.1618 9.86704C16.2183 9.8649 16.2558 9.93886 16.3277 9.85414C16.3463 9.83198 16.37 9.71377 16.3806 9.71558C16.3932 9.71803 16.4024 9.83363 16.4185 9.84159C16.4573 9.85967 16.5308 9.82469 16.5682 9.84612C16.5749 9.85028 16.5733 9.9514 16.5819 9.98337C16.6153 10.1083 16.6582 10.0993 16.6636 9.77642C16.7045 9.96146 16.7576 9.79627 16.803 9.78784C16.8993 9.77075 17.0721 9.85306 17.1602 9.72083C17.216 9.63743 17.2215 9.49275 17.2935 9.62067C17.3096 9.64904 17.3244 9.68703 17.3446 9.72092C17.3912 9.80063 17.425 10.0697 17.4746 9.74909C17.5267 9.83483 17.5721 9.77732 17.6005 10.0543C17.6081 9.98845 17.6155 9.92259 17.623 9.85673C17.6299 9.85537 17.6367 9.85401 17.6435 9.85264C17.6431 9.91572 17.6427 9.9788 17.6422 10.0419C17.6898 10.0608 17.7595 9.80423 17.8007 9.80778C17.8411 9.81117 17.9221 9.85234 17.9895 9.90364C18.0357 9.93684 18.0757 9.97423 18.0988 10.0085C18.132 10.0551 18.1391 9.92023 18.1476 10.1984C18.156 10.1794 18.1643 10.1604 18.1726 10.1414C18.1797 10.0809 18.1868 10.0203 18.1939 9.95977C18.2383 9.95912 18.2852 10.0555 18.3278 10.0562C18.4026 10.0573 18.5251 9.89477 18.5965 10.0076C18.6149 10.0361 18.632 10.1622 18.652 10.1616C18.6801 10.1607 18.6931 9.95309 18.729 9.95064C18.7881 9.94668 18.8905 10.1926 18.9473 10.1764C18.964 10.1717 18.9746 10.0947 18.9869 10.0869C19.0366 10.0534 19.0763 10.0613 19.1274 9.94361C19.1684 10.1447 19.155 10.4017 19.1595 10.6617C19.1645 10.858 19.1779 11.313 19.1831 11.4849C19.1858 11.6056 19.1573 11.7597 19.1595 11.8926C19.0943 11.9961 19.0735 11.8785 19.0331 11.6901C18.9433 11.6939 18.8539 11.6978 18.763 11.7016C18.758 11.6289 18.753 11.5562 18.7478 11.4835C18.7478 11.4833 18.7478 11.4832 18.7478 11.483C18.7162 11.3981 18.6947 11.5839 18.6745 11.6255C18.48 12.0235 18.1434 11.6924 17.9497 11.6389C17.9424 11.6369 17.9321 11.638 17.9198 11.6406C17.8643 11.6529 17.7619 11.6991 17.7428 11.6008C17.7366 11.5699 17.739 11.4582 17.7312 11.453C17.6555 11.5165 17.5837 11.5801 17.5093 11.6436C17.3686 11.4643 17.2137 11.6015 17.0643 11.6223C16.6619 11.6787 16.264 11.751 15.8724 11.7087C15.7967 11.7004 15.6972 11.7802 15.625 11.7234C15.5949 11.6998 15.589 11.52 15.5431 11.652C15.5445 11.6037 15.546 11.5554 15.5475 11.5071C15.5097 11.564 15.4827 11.673 15.4424 11.6826C15.4084 11.6905 15.3195 11.6942 15.2905 11.6745C15.2755 11.6647 15.2848 11.5747 15.2705 11.5746C15.2459 11.5751 15.1885 11.6978 15.1547 11.6965C15.124 11.6953 15.0764 11.5893 15.0523 11.6034C14.965 11.6535 14.8668 11.804 14.7778 11.7592C14.7532 11.7465 14.7257 11.6283 14.7178 11.6313C14.7023 11.6375 14.6933 11.7509 14.6824 11.7652C14.6271 11.8369 14.5515 11.6987 14.5004 11.6914C14.3347 11.6675 14.1556 11.7103 13.991 11.6831C13.8861 11.6659 13.7129 11.6794 13.6182 11.5902C13.598 11.5709 13.6083 11.4466 13.5909 11.446C13.5716 11.4453 13.5581 11.529 13.5489 11.5355C13.4832 11.5807 13.342 11.6606 13.286 11.5724C13.2754 11.5555 13.271 11.4576 13.2643 11.4577C13.2609 11.4576 13.251 11.5239 13.2397 11.5303C13.1418 11.587 13.0738 11.5456 12.9831 11.5195C12.9402 11.5075 12.8955 11.5052 12.8515 11.5075C12.7072 11.5148 12.5525 11.5689 12.4133 11.5133C12.3719 11.4973 12.3512 11.3034 12.3455 11.3052C12.3332 11.3087 12.321 11.4383 12.2942 11.4695C12.2076 11.5723 12.099 11.4303 12.0178 11.4933C11.9772 11.5243 11.9196 11.6878 11.8822 11.7235C11.8501 11.7519 11.7832 11.6859 11.7684 11.7581C11.7597 11.8017 11.7539 11.9421 11.7447 11.9595ZM12.8505 9.8047C12.8368 10.029 12.903 9.84453 12.8849 9.72325C12.8808 9.69593 12.854 9.74648 12.8505 9.8047ZM15.5851 10.2992C15.587 10.235 15.589 10.1709 15.591 10.1068C15.5823 10.1332 15.5735 10.1595 15.5648 10.1859C15.5676 10.2246 15.5704 10.2633 15.5732 10.302C15.5772 10.3011 15.5811 10.3001 15.5851 10.2992Z" fill="#060B45" style="mix-blend-mode:plus-darker"/>
</svg>
