<svg width="13" height="22" viewBox="0 0 13 22" fill="none" xmlns="http://www.w3.org/2000/svg">
<path d="M9.34894 0.629033C9.337 0.644972 9.27919 0.684772 9.25698 0.707007C9.25546 0.654156 9.38813 0.57495 9.34894 0.629033ZM8.87873 4.94964C8.89185 4.92499 8.90475 4.90052 8.91797 4.87578C8.85799 4.91956 8.78777 4.99051 8.72935 5.02892C8.71978 5.03516 8.72298 4.99415 8.70195 5.01078C8.6809 5.02743 8.71068 5.0537 8.68401 5.08253C8.6545 5.11438 8.48638 5.22446 8.43433 5.27063C8.24203 5.44155 8.05974 5.62978 7.85414 5.78664C8.03625 5.58993 7.81415 5.74356 7.76591 5.80213C7.75535 5.81516 7.80517 5.86887 7.59109 6.03021C7.45496 6.1328 7.50504 5.95089 7.32504 6.17633C7.53782 6.08872 7.37234 6.22544 7.2448 6.33919C7.22266 6.35895 7.03585 6.50627 6.95834 6.57769C6.93185 6.60213 6.9155 6.667 6.88014 6.69895C6.85579 6.72092 6.82333 6.72131 6.7873 6.75393C6.6182 6.9066 6.45049 7.05394 6.27403 7.19731C6.31057 7.03539 6.16729 7.23418 6.15636 7.23741C6.09777 7.25276 6.27853 7.08622 6.19408 7.13719C6.09336 7.22842 5.99345 7.31893 5.89273 7.41016C5.98428 7.34691 5.83689 7.56821 5.77889 7.5758C5.85102 7.62846 5.26361 7.92176 5.20855 8.00799C5.19709 8.02606 5.32598 7.97126 5.08062 8.1579C5.05401 8.17807 5.04633 8.14996 5.03476 8.16323C5.02779 8.17123 5.03499 8.27547 4.95449 8.28423C4.92527 8.28731 5.00705 8.14373 4.76108 8.38635C4.92126 8.35976 4.42894 8.73572 4.33123 8.79274C4.35609 8.78623 4.38087 8.77979 4.40494 8.77397C4.30041 8.82413 4.3034 8.85986 4.2836 8.87501C4.20509 8.93503 4.07781 9.00757 4.01118 9.06915C4.01103 9.06929 4.01089 9.06942 4.01074 9.06956C3.92715 9.14666 3.96312 9.18539 3.85258 9.25476C3.88452 9.24231 3.91364 9.23233 3.94432 9.221C3.87819 9.27508 3.80455 9.33578 3.73849 9.38988C3.84492 9.20377 3.70386 9.41574 3.69044 9.42952C3.67216 9.44891 3.68188 9.40233 3.651 9.43412C3.64807 9.43747 3.67032 9.45382 3.62222 9.49999C3.51898 9.59877 3.51343 9.55858 3.46979 9.59737C3.46553 9.60135 3.4973 9.60576 3.42223 9.67932C3.18992 9.90782 3.41094 9.66442 3.41845 9.65339C3.42735 9.63972 3.27819 9.63547 3.50914 9.48078C3.43082 9.53421 3.39534 9.50559 3.38671 9.51168C3.37949 9.51677 3.26088 9.62936 3.25674 9.63508C3.20575 9.70022 3.27969 9.67608 3.27144 9.69067C3.26409 9.703 3.09188 9.80126 3.11994 9.89968C2.99466 9.89664 3.10868 9.80636 3.2164 9.6942C3.22169 9.66625 3.08285 9.76581 3.07567 9.77222C2.91117 9.9175 3.04832 9.88998 3.0421 9.95519C3.03895 9.98922 2.94124 10.0118 3.04388 10.0049C2.89861 10.1423 2.96539 10.0346 2.95198 10.0393C2.93249 10.0459 2.89263 10.1053 2.88419 10.1096C2.87225 10.1155 2.89113 10.0696 2.84831 10.0974C2.84128 10.1022 2.80663 10.183 2.89557 10.1279C2.78906 10.2154 2.81765 10.2328 2.74071 10.2152C2.74917 10.3708 2.64265 10.2064 2.60865 10.2277C2.52315 10.2802 2.6087 10.3319 2.60784 10.3389C2.60079 10.3849 2.37987 10.5416 2.35628 10.5844C2.32047 10.5228 2.4963 10.453 2.51941 10.4144C2.59113 10.2891 2.35463 10.5182 2.36943 10.3877C2.35502 10.4331 2.34321 10.4764 2.33203 10.5196C2.25565 10.5157 2.26567 10.4712 2.21615 10.5493C2.23416 10.599 2.25763 10.4972 2.27378 10.5346C2.26931 10.5693 2.2455 10.6019 2.27748 10.5839C2.27134 10.6119 2.27326 10.5854 2.28954 10.6C2.29415 10.6178 2.27826 10.6648 2.39081 10.4928C2.39557 10.4901 2.5146 10.2635 2.53844 10.1021C2.56927 9.93608 2.55875 9.84703 2.5558 9.81828C2.55032 9.79111 2.55235 9.81087 2.5412 9.93353C2.5344 9.99542 2.52145 10.0925 2.48056 10.2151C2.44343 10.3337 2.36383 10.4678 2.35751 10.4722C2.35545 10.4738 2.34061 10.4959 2.32363 10.518C2.3395 10.4961 2.35284 10.4724 2.35228 10.469C2.35157 10.4633 2.42605 10.3275 2.45933 10.1765C2.49539 10.024 2.4932 9.88317 2.48019 9.78714C2.45167 9.59917 2.40921 9.53617 2.4063 9.48585C2.40247 9.45 2.46594 9.50912 2.50949 9.5556C2.56697 9.61746 2.4762 9.29601 2.50371 9.39508C2.45948 9.40717 2.48154 9.37932 2.49809 9.42609C2.49567 9.4327 2.39282 9.44394 2.38874 9.44726C2.32536 9.37199 2.52917 9.60428 2.54653 9.70672C2.57299 9.64705 2.726 9.93572 2.76499 9.95667C2.77466 9.96148 2.78087 9.91152 2.79006 9.91754C2.84706 9.95679 2.90512 10.1354 2.95654 10.2039C3.01273 10.279 3.03021 10.2521 3.03324 10.2561C3.03462 10.258 3.03582 10.2598 3.03685 10.2614C3.05331 10.288 3.0218 10.2775 3.0364 10.296C3.05933 10.3255 3.22281 10.5387 3.23415 10.5458C3.23765 10.548 3.23742 10.4922 3.279 10.5339C3.28616 10.5409 3.25043 10.5623 3.37254 10.6862C3.52051 10.8363 3.32109 10.5407 3.4092 10.5818C3.4462 10.7256 3.49007 10.6833 3.50927 10.7147C3.51578 10.7256 3.53499 10.8315 3.60197 10.9089C3.54901 10.8568 3.49657 10.8053 3.44388 10.7532C3.48246 10.8156 3.57851 10.9164 3.60918 10.9703C3.62343 10.9957 3.57551 11.0039 3.61606 11.0519C3.6249 11.062 3.7383 11.0381 3.5983 10.9392C3.61863 10.9058 3.64959 10.982 3.68054 11.0035C3.6853 11.0068 3.7466 10.9847 3.74677 11.0454C3.74644 11.0597 3.53035 11.0792 3.8305 11.2409C3.84025 11.2462 3.83498 11.2043 3.84495 11.2092C3.8521 11.2129 3.89539 11.2801 3.90362 11.285C3.91201 11.2899 3.90641 11.2444 3.91698 11.2496C3.97123 11.2765 3.9426 11.3949 3.87552 11.3016C3.89043 11.3387 3.90559 11.3761 3.92098 11.4137C3.95155 11.3355 3.97475 11.4466 4.01032 11.4861C4.23815 11.7392 4.12977 11.5332 4.18604 11.5625C4.27645 11.6096 4.13451 11.635 4.25235 11.718C4.26356 11.7259 4.19605 11.5615 4.38416 11.8347C4.35167 11.7989 4.31834 11.7621 4.28582 11.7262C4.24906 11.793 4.40229 11.8586 4.41005 11.8663C4.50024 11.9593 4.42537 11.9096 4.57613 12.0329C4.58965 12.044 4.60028 12.084 4.63073 12.1067C4.75636 12.2006 4.51827 11.9384 4.53436 11.9127C4.54215 11.9003 4.78304 12.1934 4.78659 12.2078C4.79949 12.2693 4.66592 12.0844 4.66569 12.1413C4.66534 12.1616 5.03506 12.559 5.09481 12.6511C5.16302 12.7574 5.1268 12.8632 5.20955 12.7937C5.15158 12.8893 5.22697 12.8662 5.23681 12.8789C5.35546 13.0334 5.35445 13.0338 5.47067 13.1541C5.49617 13.1805 5.4919 13.225 5.50448 13.2314C5.51189 13.235 5.52885 13.2018 5.56102 13.2231C5.60556 13.2528 5.78037 13.5105 5.78104 13.5403C5.78165 13.5702 5.68946 13.4466 5.68372 13.4879C5.75401 13.5744 5.82946 13.65 5.90027 13.7369C5.92959 13.7731 5.89739 13.7693 5.91021 13.7848C5.91558 13.7915 6.0354 13.9002 6.03705 13.8898C6.04061 13.8656 5.7068 13.4985 5.82122 13.5723C5.84326 13.5865 5.86327 13.6869 5.90047 13.6361C6.17953 13.9804 6.46016 14.323 6.74253 14.6635C6.53983 14.5036 6.38184 14.2612 6.20364 14.0632C6.17921 14.036 6.10267 13.939 6.0891 13.9706C6.2318 14.1471 6.42927 14.3484 6.55787 14.525C6.56197 14.5307 6.52417 14.53 6.53806 14.5524C6.5639 14.5943 6.70284 14.6838 6.71168 14.7113C6.71268 14.7165 6.62541 14.6733 6.62607 14.7093C6.62786 14.8018 6.73893 14.7271 6.77801 14.7736C6.80812 14.8097 6.96917 15.0874 7.05152 15.1185C7.13908 15.1517 6.91623 14.9292 6.958 14.9228C7.06457 15.0087 7.15016 15.115 7.23307 15.2178C7.28161 15.278 7.32896 15.3367 7.37927 15.39C7.38174 15.3925 7.38159 15.3511 7.41466 15.3819C7.47215 15.4355 7.45668 15.4769 7.47743 15.5092C7.49942 15.5435 7.60178 15.6478 7.60394 15.6714C7.60421 15.6745 7.5557 15.6791 7.55189 15.6765C7.49758 15.6406 7.51981 15.5899 7.51643 15.5852C7.50325 15.5678 7.47466 15.5651 7.4624 15.5499C7.44218 15.5247 7.44353 15.4995 7.41601 15.4667C7.39705 15.444 7.39066 15.4883 7.37271 15.466C7.36608 15.4577 7.34912 15.3216 7.28259 15.3675C7.26066 15.3827 7.85696 16.0861 7.93527 16.1392C7.88856 16.0743 7.84248 16.01 7.79611 15.9452C7.88687 16.0789 8.06482 16.1769 8.00467 16.2515C8.40335 16.6937 8.80673 17.1317 9.21394 17.5647C9.28271 17.6475 9.19755 17.6472 9.33246 17.7608C9.31462 17.7146 9.29729 17.6688 9.27994 17.623C9.33197 17.6967 9.59066 18.0003 9.64433 18.0368C9.65129 18.0415 9.69937 18.0118 9.77157 18.0786C9.83674 18.1389 9.81708 18.1777 9.84411 18.2164C9.86768 18.2496 9.9065 18.2735 9.91305 18.2834C9.91803 18.291 9.90258 18.3113 9.91447 18.3296C9.95326 18.3881 9.96466 18.2986 9.95453 18.4044C9.9407 18.3948 9.9268 18.3852 9.91284 18.3756C9.96285 18.4429 10.0155 18.5485 9.9171 18.4753C9.90022 18.4628 9.93015 18.4583 9.91919 18.4473C9.4866 18.0158 9.79481 18.3962 9.97329 18.5218C9.98582 18.586 10.2196 18.7888 10.2223 18.8014C10.2251 18.8188 10.1672 18.8019 10.1986 18.8686C10.2048 18.8825 10.5129 19.1597 10.373 19.0887C10.3443 19.0743 10.2107 18.9268 10.1763 18.8944C10.2019 19.0284 10.4657 19.1351 10.4856 19.1586C10.5621 19.2512 10.2751 19.044 10.4604 19.2399C10.4619 19.2414 10.4633 19.2429 10.4647 19.2443C10.601 19.3868 10.5021 19.2183 10.5728 19.2576C10.6141 19.2813 10.74 19.4842 10.7872 19.428C10.8494 19.4779 10.789 19.473 10.7941 19.4819C10.7999 19.491 10.9268 19.5843 10.9521 19.6301C10.9552 19.6358 10.9148 19.6496 10.9172 19.6563C10.9225 19.6689 11.0342 19.7659 11.041 19.7678C11.0453 19.7688 11.0428 19.7203 11.0589 19.7246C11.0773 19.7296 11.173 19.831 11.1844 19.8283C11.2022 19.8256 11.0722 19.7156 11.1181 19.7077C11.1701 19.7705 11.2774 19.8365 11.3312 19.8444C11.3171 19.8434 11.2647 19.7971 11.2477 19.777C11.2949 19.747 11.4029 19.8461 11.3368 19.8444C11.3759 19.8483 11.3679 19.8246 11.3956 19.82C11.4027 19.819 11.4356 19.8465 11.448 19.8447C11.4499 19.8439 11.4305 19.7996 11.4445 19.7971C11.467 19.791 11.5692 19.8837 11.5817 19.901C11.6006 19.9363 11.4881 19.865 11.4694 19.879C11.4638 19.8792 11.5164 19.9825 11.5172 19.9884C11.4928 20.0236 11.4213 19.923 11.408 19.962C11.4233 19.9857 11.4407 20.011 11.4599 20.0378C11.339 19.9886 11.2277 19.8606 11.1538 19.8514C11.2822 19.9546 11.3935 20.0491 11.3353 20.1305C11.3074 20.162 11.2374 20.1349 11.2329 20.145C11.2143 20.1796 11.3201 20.2145 11.3231 20.2197C11.3242 20.2237 11.324 20.2264 11.3225 20.2281C11.3225 20.2281 11.3225 20.2281 11.3225 20.2281C11.3055 20.2431 11.185 20.1623 11.1755 20.1671C11.1548 20.1732 11.1521 20.2694 11.1418 20.2822C11.1374 20.2831 11.0522 20.2326 11.0581 20.2759C11.0633 20.3193 11.132 20.3782 11.1333 20.3832C11.134 20.4069 11.0048 20.3177 10.9957 20.3228C10.9903 20.3251 11.0316 20.4031 11.0281 20.4119C11.0236 20.4203 10.9622 20.3942 10.9245 20.3996C10.8962 20.4035 10.9262 20.4518 10.9168 20.4481C10.91 20.4459 10.7995 20.3461 10.7913 20.3431C10.7795 20.3398 10.7877 20.3825 10.7797 20.384C10.7683 20.3861 10.7383 20.3457 10.7365 20.3571C10.7348 20.366 10.8163 20.5595 10.8006 20.5764C10.7723 20.6061 10.681 20.3993 10.7176 20.6463C10.718 20.6481 10.7607 20.6701 10.7611 20.6718C10.7641 20.7131 10.6193 20.6486 10.7655 20.7634C10.4702 20.575 10.6925 20.7816 10.6091 20.7996C10.5764 20.8065 10.4668 20.7224 10.4638 20.7245C10.4515 20.7585 10.5008 20.7684 10.5013 20.7908C10.5009 20.803 10.3863 20.746 10.3912 20.7815C10.3934 20.8 10.4949 20.8856 10.498 20.8909C10.5238 20.9423 10.4592 20.9168 10.4579 20.9361C10.4571 20.9493 10.518 21.003 10.5184 21.0056C10.5187 21.0112 10.4074 20.9701 10.3802 20.9652C10.3593 20.9618 10.3976 21.0193 10.3851 21.0147C10.3085 20.987 10.2436 20.8251 10.285 21.0053C10.2878 21.0165 10.3329 21.0533 10.3337 21.0556C10.3414 21.1022 10.258 21.0318 10.2279 21.037C10.1748 21.0458 10.3066 21.1332 10.1902 21.0679C10.2431 21.153 10.29 21.1924 10.3778 21.2565C10.1267 21.0696 9.96446 21.0661 10.2381 21.3051C10.1524 21.229 10.1212 21.2823 10.0945 21.2602C10.077 21.2459 9.99868 21.0907 9.96081 21.2421C9.9553 21.2606 10.0457 21.3133 9.99857 21.3178C9.82669 21.1482 9.97864 21.3302 9.97686 21.3344C9.90945 21.3865 9.55389 20.9558 9.48629 20.9006C9.40276 20.834 9.29048 20.8127 9.27431 20.7969C9.22043 20.744 9.28784 20.765 9.2841 20.7447C9.27979 20.7273 9.15628 20.658 9.10168 20.6235C9.08833 20.6153 9.07943 20.6093 9.07838 20.6073C9.05857 20.5685 9.11534 20.5709 9.11363 20.5665C9.09286 20.5131 8.86783 20.3321 8.81647 20.2681C8.8 20.2868 8.91485 20.4039 8.81442 20.3602C8.69801 20.3098 8.77035 20.2273 8.77154 20.2218C8.38731 19.8397 8.00785 19.4553 7.63054 19.0658C7.59342 19.1114 7.8714 19.3352 7.87148 19.346C7.87204 19.4122 7.45577 18.9811 7.42057 18.9139C7.45024 18.963 7.47919 19.0112 7.50931 19.0606C7.39455 19.038 7.31202 18.8264 7.19526 18.7466C7.15785 18.7213 7.19759 18.8004 7.19527 18.8005C7.14214 18.7825 7.10137 18.7106 7.16796 18.7299C7.05955 18.6645 7.09821 18.6516 7.0361 18.5821C7.03284 18.5785 7.04098 18.6264 6.98178 18.5802C6.95349 18.558 6.82702 18.4242 6.79228 18.4217C6.77801 18.4211 6.76674 18.5618 6.84018 18.5083C6.94633 18.6846 6.9142 18.5268 6.96661 18.5852C6.9746 18.5943 6.91886 18.6088 7.07203 18.7356C6.97982 18.7705 6.87263 18.5588 6.83842 18.5384C6.76681 18.4956 6.96003 18.7681 7.05372 18.7637C6.98273 18.7918 7.06322 18.7876 7.11165 18.8426C7.16513 18.9032 7.12573 18.8924 7.1559 18.9242C7.23826 19.0111 7.2394 18.94 7.2757 19.043C7.30974 18.877 7.40578 19.152 7.43315 19.2328C7.34092 19.1474 7.24834 19.0612 7.15674 18.9757C7.15641 18.9859 7.15606 18.9962 7.15572 19.0064C7.13368 18.9819 7.11153 18.9572 7.08925 18.9324C7.09801 18.9314 7.10678 18.9304 7.11554 18.9294C6.96478 18.8375 6.97305 18.7716 6.96374 18.761C6.84506 18.6274 6.70273 18.4773 6.57853 18.3445C6.55999 18.3247 6.53995 18.3703 6.43022 18.2005C6.39571 18.1468 6.46218 18.166 6.40962 18.1174C6.27793 18.1176 6.33526 18.0662 6.31712 18.0465C6.26553 17.991 6.2161 17.9728 6.21111 17.9678C6.14364 17.9005 6.05317 17.7966 5.98042 17.7226C5.97884 17.7215 5.99342 17.7811 5.95443 17.7257C5.94069 17.7062 5.89047 17.4644 5.7353 17.3551C5.76126 17.3963 5.78749 17.4377 5.81385 17.4793C5.78384 17.4291 5.49361 17.1566 5.53372 17.2512C5.55786 17.3088 5.7169 17.3625 5.66935 17.4268C5.62691 17.3597 5.42928 17.1517 5.27003 16.98C5.16031 16.8619 5.06818 16.7608 5.05845 16.7386C5.05517 16.731 5.10631 16.7501 5.10152 16.7399C5.09791 16.7322 4.9818 16.6108 4.97466 16.588C4.97024 16.5743 5.03084 16.619 5.03377 16.6085C5.03502 16.6001 4.90505 16.4373 4.87315 16.4493C4.91681 16.4793 5.00387 16.5942 4.9337 16.5557C4.92477 16.5507 4.90676 16.4993 4.89575 16.4933C4.79387 16.4373 5.01781 16.6757 5.05163 16.7139C4.88429 16.5873 4.70932 16.3173 4.53271 16.1563C4.48916 16.0665 4.65736 16.2366 4.60205 16.1403C4.48748 15.9407 4.53479 16.1194 4.52763 16.1163C4.47054 16.092 4.45292 15.8539 4.37061 15.9257C4.32926 15.8534 4.35703 15.8643 4.27046 15.7867C4.27472 15.8031 4.27899 15.8196 4.28326 15.836C4.15118 15.781 4.09425 15.4717 4.11681 15.4791C4.17716 15.499 4.23121 15.6387 4.24006 15.647C4.25315 15.6592 4.369 15.6236 4.42256 15.8357C4.53105 15.847 4.25721 15.5698 4.41173 15.6698C4.32667 15.5853 4.04419 15.1803 3.97348 15.1479C3.96476 15.1443 3.93426 15.2225 3.88365 15.1059C3.85964 15.0506 3.95097 15.1552 3.94655 15.1242C3.93205 15.0297 3.19047 14.2128 3.05441 14.0539C3.04561 14.0436 3.06644 14.0326 3.05764 14.0225C3.03026 13.9911 2.90822 13.8995 2.86872 13.8361C2.93447 13.9804 2.74124 13.7558 2.69657 13.695C2.62851 13.6026 2.66431 13.5823 2.63945 13.5391C2.54271 13.3717 2.28011 13.2059 2.25575 13.0352C2.19183 13.0979 2.12589 12.8092 2.05118 12.7167C1.99115 12.6424 1.85995 12.575 1.91213 12.6957C1.81277 12.5677 1.69087 12.4442 1.59075 12.3288C1.57401 12.3095 1.61655 12.3202 1.58743 12.2879C1.58466 12.2851 1.56106 12.297 1.53583 12.27C1.32562 12.0443 1.46287 12.1273 1.4394 12.0723C1.42593 12.041 1.41456 12.0195 1.40484 12.0049C1.52065 12.1422 1.65792 12.296 1.69318 12.3384C1.70756 12.2658 1.43654 12.0374 1.38457 11.9468C1.38283 11.9438 1.41502 11.9337 1.41299 11.9308C1.41294 11.9307 1.41289 11.9307 1.41285 11.9306C1.39056 11.899 1.22907 11.7131 1.2309 11.7759C1.23183 11.7933 1.30171 11.8821 1.38777 11.9847C1.35996 11.961 1.34905 12.0039 1.34394 11.9999C1.2851 11.9528 1.19808 11.7934 1.15849 11.7315C1.15642 11.7283 1.15447 11.7253 1.15264 11.7227C1.14363 11.7095 1.12657 11.7243 1.12492 11.7223C1.09044 11.6698 1.15689 11.6502 1.06606 11.6416C1.06238 11.5483 1.12562 11.6523 1.1778 11.7164C1.20147 11.7454 1.22267 11.7655 1.23143 11.7493C1.23492 11.7429 1.22515 11.7224 1.20686 11.6936C1.11073 11.546 0.789136 11.1593 0.745896 11.1867C0.749722 11.1805 0.751134 11.1682 0.745709 11.1446C0.735106 11.095 0.606062 10.9245 0.573336 10.8959C0.567781 10.8919 0.518475 10.9286 0.513452 10.9222C0.500113 10.9053 0.385106 10.6509 0.273145 10.5049C0.306453 10.5896 0.336076 10.657 0.36307 10.7181C0.258736 10.5505 0.187133 10.3959 0.168293 10.3651C0.14797 10.3322 0.178222 10.4374 0.212998 10.5255C0.217059 10.534 0.219111 10.5432 0.222975 10.5512C0.276462 10.6845 0.332548 10.7947 0.329501 10.7996C0.322746 10.8021 0.236153 10.698 0.129016 10.4614C0.0784581 10.3386 -0.00735843 10.1396 0.000535965 9.82175C0.0214731 9.5052 0.106791 9.35393 0.0529068 9.60772C0.0465754 9.6427 0.021572 9.82474 0.0393195 9.97513C0.0545975 10.1278 0.0881134 10.2364 0.112738 10.3084C0.161578 10.4416 0.192198 10.495 0.153448 10.3499C0.148941 10.3146 0.0910996 10.2318 0.0592011 9.94014C0.0441841 9.79828 0.0680931 9.57835 0.122146 9.4319C0.175119 9.28334 0.213065 9.23086 0.21793 9.22152C0.254997 9.17751 0.247874 9.18218 0.173357 9.36748C0.0830514 9.56784 0.0784739 9.95091 0.132459 10.1006C0.229014 10.4138 0.307193 10.459 0.309182 10.4291C0.26212 10.3686 0.213467 10.2916 0.168 10.0999C0.147241 10.0008 0.12298 9.8547 0.156061 9.64823C0.185576 9.44233 0.302697 9.24109 0.321429 9.21182C0.328611 9.19931 0.340299 9.17955 0.35428 9.15743C0.4385 9.0296 0.425855 9.00689 0.435593 8.99257C0.537328 8.8674 0.499136 8.95858 0.530275 8.92384C0.551365 8.89945 0.63348 8.72492 0.673697 8.81789C0.847565 8.60664 0.856504 8.5782 0.801983 8.61634C0.740949 8.66333 0.642191 8.74637 0.464216 8.93738C0.564876 8.77848 0.710763 8.67117 0.77109 8.60417C0.79172 8.58138 0.757295 8.56997 0.791882 8.52994C0.864485 8.44527 1.25809 8.14362 1.35877 8.06659C1.30865 8.12578 1.34803 8.13691 1.39112 8.09567C1.43496 8.05376 1.36635 8.05304 1.37195 8.04151C1.38021 8.0273 1.60433 7.85875 1.63769 7.82157C1.48841 7.97506 1.54574 7.97032 1.68601 7.85175C1.67218 7.87707 1.65871 7.90208 1.64559 7.92679C1.71806 7.8445 1.91734 7.73929 1.95455 7.68597C1.96026 7.67763 1.91479 7.6791 1.91801 7.67441C1.9524 7.62793 2.10644 7.53214 2.10804 7.51767C2.10841 7.50644 2.03227 7.54095 2.04671 7.51247C2.05041 7.50589 2.13139 7.48685 2.18084 7.43084C2.19932 7.40998 2.16882 7.4004 2.17302 7.39462C2.20785 7.3467 2.21454 7.40192 2.28691 7.32883C2.32357 7.29183 2.34198 7.24646 2.37951 7.20175C2.39605 7.18173 2.41668 7.16193 2.44535 7.14321C2.41406 7.16261 2.38892 7.17782 2.36887 7.18958C2.26214 7.2533 2.29092 7.22447 2.35117 7.16932C2.39014 7.13357 2.44413 7.08529 2.48081 7.04495C2.49667 7.02745 2.45027 7.00212 2.57045 6.92939C2.40608 7.19155 2.66463 6.91008 2.72639 6.8577C2.7298 6.85514 2.75228 6.8789 2.78135 6.85429C2.78378 6.85214 2.76572 6.83858 2.79148 6.81394C3.03869 6.57782 2.89002 6.74016 2.95311 6.71417C2.97911 6.70386 3.084 6.57138 3.11722 6.54156C3.12478 6.53489 3.13627 6.5553 3.16521 6.52899C3.21643 6.48236 3.248 6.42262 3.28201 6.39055C3.2859 6.38703 3.31055 6.41358 3.36798 6.34823C3.38425 6.32977 3.3966 6.30205 3.36354 6.31693C3.25413 6.36647 3.12813 6.55427 3.00514 6.61584C2.89447 6.67072 3.17717 6.42135 3.19165 6.40858C3.197 6.40379 3.15318 6.46562 3.21203 6.41927C3.26297 6.37898 3.30893 6.25633 3.3899 6.20416C3.396 6.20021 3.48858 6.19014 3.48797 6.19475C3.48689 6.19867 3.40589 6.28413 3.42885 6.28454C3.43147 6.28458 3.4875 6.23554 3.50242 6.23772C3.52055 6.24042 3.63447 6.32229 3.64832 6.31481C3.68421 6.2949 3.64406 6.2885 3.66515 6.27309C3.70977 6.24046 3.88576 6.14139 3.85859 6.10234C3.83282 6.12095 3.80615 6.14033 3.7798 6.15945C3.91271 6.03787 3.8411 6.07327 3.85461 6.04983C3.86891 6.02474 3.89028 6.06125 3.93849 6.02465C3.94907 6.01662 4.1348 5.84431 4.11968 5.83433C4.03256 5.9465 4.03808 5.87374 4.03258 5.87729C4.01224 5.89047 4.00691 5.93322 3.98159 5.95438C3.80344 6.10271 3.95024 5.91538 3.90124 5.94233C3.88442 5.9517 3.87226 5.99478 3.86543 5.99903C3.84324 6.01286 3.82183 5.98877 3.81055 6.00199C3.78422 6.0328 3.84943 6.03664 3.84859 6.04051C3.84069 6.0851 3.70969 6.15161 3.74427 6.05601C3.69227 6.07741 3.72708 6.12703 3.67956 6.13631C3.58536 6.15476 3.68762 6.08238 3.70831 6.05398C3.78179 5.9525 3.82248 5.94787 3.94825 5.82848C3.99285 5.78616 4.02867 5.7164 4.04935 5.69637C4.06219 5.68391 4.25859 5.64867 4.15751 5.52523C4.21736 5.49382 4.3648 5.50521 4.41365 5.45656C4.45703 5.41321 4.40532 5.38335 4.40822 5.37795C4.41254 5.36967 4.47125 5.32474 4.48499 5.30229C4.50102 5.27596 4.47582 5.26928 4.50535 5.23211C4.57905 5.13951 4.6144 5.18508 4.62581 5.18016C4.75828 5.12271 4.6591 5.10021 4.67793 5.07522C4.69566 5.05189 5.01865 4.81397 5.06901 4.74292C5.05079 4.77396 5.03218 4.80533 5.01382 4.8365C5.08386 4.82337 5.09459 4.73656 5.1376 4.78453C5.07887 4.69781 5.21998 4.66757 5.24702 4.64059C5.25763 4.62994 5.24514 4.61731 5.25884 4.60444C5.31242 4.55392 5.4461 4.45676 5.47034 4.42386C5.57477 4.28217 5.20099 4.5209 5.17197 4.54087C5.22533 4.49618 5.50576 4.22236 5.33702 4.30242C5.31093 4.31482 5.30415 4.38228 5.29354 4.39388C5.22151 4.47214 5.25702 4.38619 5.24816 4.38862C5.2333 4.39302 5.20722 4.46896 5.19008 4.47745C5.18444 4.48031 5.18958 4.42589 5.11268 4.49145C5.12648 4.43106 5.35999 4.26822 5.38261 4.23723C5.39057 4.22627 5.27673 4.22142 5.50972 4.12003C5.50284 4.11638 5.49595 4.11274 5.48907 4.10909C5.58916 4.01837 5.68932 3.92755 5.78933 3.83682C5.78922 3.85907 5.75398 3.93414 5.82142 3.86618C5.86023 3.82705 5.80509 3.82555 5.80817 3.82144C5.83883 3.78141 6.50614 3.21815 6.63049 3.10412C6.67323 3.06513 6.77407 2.93754 6.78277 2.92921C6.83655 2.87839 7.04299 2.72416 7.0798 2.68637C7.10237 2.66306 7.05873 2.65981 7.08143 2.64192C7.10254 2.62534 7.10144 2.66629 7.10826 2.662C7.16514 2.62694 7.51445 2.26885 7.62264 2.21156C7.56258 2.25299 7.33043 2.53622 7.34946 2.54773C7.35261 2.54885 7.43409 2.50801 7.4403 2.48771C7.48023 2.48742 7.50408 2.36101 7.55726 2.33513C7.56316 2.33231 7.57387 2.38215 7.65439 2.3223C7.6825 2.30133 7.72534 2.21757 7.8204 2.18586C7.90661 2.08566 8.46007 1.67424 8.46445 1.60595C8.46391 1.60305 8.38006 1.65535 8.41631 1.59699C8.46409 1.51975 8.46425 1.63713 8.54451 1.57604C8.55513 1.56827 8.76195 1.37231 8.76343 1.36358C8.79398 1.27023 8.59898 1.4173 8.59717 1.41116C8.59459 1.39419 8.73916 1.2536 8.74862 1.24965C8.75698 1.24694 8.67505 1.40776 8.80904 1.25483C8.78677 1.26426 8.76437 1.2738 8.74185 1.28343C8.80256 1.20881 8.83876 1.23706 8.8575 1.22401C8.91391 1.18525 8.92845 1.07997 9.06695 1.06942C9.1037 1.06662 9.08444 1.11763 9.08938 1.11772C9.10668 1.11733 9.1146 1.10461 9.12176 1.08936C9.13526 1.06234 9.1468 1.02791 9.19782 1.03303C9.20356 1.03392 9.13439 1.14515 9.29822 0.997436C9.28322 1.00317 9.26815 1.00896 9.25301 1.01481C9.26585 0.985814 9.43032 0.826877 9.45271 0.810719C9.52471 0.757653 9.49529 0.84041 9.55833 0.776653C9.4782 0.772271 9.67201 0.586688 9.69414 0.632861C9.68072 0.561808 9.88002 0.445143 9.96229 0.372148C10.0113 0.328772 10.0977 0.213421 10.114 0.202845C10.1357 0.188186 10.1589 0.224045 10.2004 0.198786C10.2122 0.191557 10.2946 0.0744383 10.415 0.0228276C10.4384 0.0127256 10.5225 0.032319 10.5027 0.074746C10.4669 0.149262 10.3231 0.203085 10.3517 0.234008C10.3849 0.264863 10.5101 0.113567 10.5508 0.0839523C10.7456 -0.0586915 10.676 0.0707278 10.691 0.0767562C10.7272 0.0913476 10.8216 0.00245979 10.8286 0.000223473C10.855 -0.00499867 10.8052 0.0792231 10.8194 0.0954592C10.8364 0.117917 10.9645 0.068051 10.9496 0.0947938C10.9279 0.1333 10.8152 0.18017 10.8098 0.18788C10.7591 0.271691 10.8988 0.230837 10.9474 0.229223C10.9621 0.228969 10.941 0.270382 10.9496 0.266346C11.0801 0.20483 10.9095 0.179435 10.9831 0.123395C11.0471 0.074753 11.0009 0.175926 11.0042 0.176014C11.0087 0.175373 11.083 0.109401 11.104 0.110396C11.1153 0.110355 10.9834 0.345798 11.016 0.366024C11.0702 0.304772 11.1254 0.242395 11.1794 0.180749C11.2179 0.211082 11.1065 0.266208 11.1014 0.277625C11.0904 0.301602 11.1568 0.273242 11.1648 0.286684C11.1707 0.294547 11.1359 0.374272 11.1983 0.335881C11.2196 0.322728 11.2345 0.262614 11.3252 0.225128C11.1229 0.474655 11.3036 0.343128 11.3217 0.34975C11.3405 0.355644 11.2566 0.4891 11.3864 0.358257C11.457 0.421175 11.4028 0.383705 11.3771 0.430316C11.344 0.488949 11.4736 0.410842 11.2852 0.553804C11.3265 0.575756 11.4608 0.446408 11.4712 0.441342C11.48 0.437533 11.463 0.483101 11.4794 0.477846C11.6671 0.418667 11.5518 0.473457 11.6268 0.477701C11.6329 0.478774 11.7695 0.377254 11.6813 0.471588C11.5216 0.641792 11.4073 0.661782 11.4699 0.786074C11.6354 0.712026 11.7293 0.505368 11.7662 0.468129C11.8241 0.410171 11.7818 0.488032 11.7941 0.486827C11.799 0.485641 11.8468 0.436907 11.8494 0.437349C11.9554 0.477722 11.625 0.65265 11.5559 0.740203C11.5872 0.731969 11.6215 0.720891 11.6534 0.711946C11.6238 0.740402 11.5943 0.768719 11.5647 0.797049C11.7278 0.687189 11.5786 0.80002 11.5975 0.894968C11.6016 0.916501 11.6754 0.804683 11.6027 0.942284C11.6899 0.877703 11.6757 0.913911 11.7323 0.829441C11.7514 0.856988 11.6164 1.03325 11.5643 1.10418C11.815 0.923016 11.6028 0.954531 11.8425 0.818707C11.8507 0.754866 11.7626 0.848299 11.7661 0.835728C11.7752 0.793964 11.8674 0.760713 11.8849 0.626892C11.8877 0.604921 11.8054 0.623729 11.8848 0.5512C11.8929 0.543912 11.9689 0.522074 11.9693 0.525369C11.9836 0.551552 11.926 0.591689 11.9327 0.601879C11.9384 0.612257 11.9892 0.554232 11.991 0.556807C12.0184 0.580595 11.954 0.611281 11.9694 0.612253C12.0012 0.615878 12.2542 0.480637 11.9786 0.713089C12.1656 0.477863 11.9786 0.658973 11.906 0.748483C11.888 0.770852 11.8952 0.793605 11.8714 0.82621C11.8378 0.87098 11.7867 0.9045 11.7678 0.927516C11.7488 0.951049 11.9078 0.872872 11.7181 1.02838C11.8432 0.981613 11.9684 0.790747 12.0828 0.730513C12.316 0.606626 12.0153 0.91599 11.9891 0.948817C11.982 0.958022 12.0299 0.953039 12.0255 0.95957C12.0187 0.969956 11.8348 1.12297 11.8332 1.15708C11.8318 1.19123 11.8976 1.09588 11.9191 1.11008C11.9353 1.11827 11.7427 1.3374 11.866 1.23903C11.9503 1.17197 12.049 0.986786 12.1236 1.01666C12.0106 1.13119 11.9002 1.24183 11.788 1.35352C11.869 1.31657 11.9523 1.27735 12.0348 1.23852C11.911 1.36565 11.7769 1.44657 11.6803 1.58917C12.0382 1.38118 11.6299 1.73195 11.6347 1.74191C11.6371 1.74848 11.804 1.69358 11.8309 1.68677C11.7464 1.80237 11.4386 2.10135 11.6846 1.99772C11.6375 2.01338 11.5892 2.12471 11.5933 2.12605C11.6285 2.14731 11.7901 1.96523 11.7843 2.01869C11.7801 2.0785 11.6945 2.08073 11.6458 2.13118C11.3979 2.38841 11.6086 2.47484 11.3214 2.69119C11.3316 2.69186 11.3418 2.69253 11.3519 2.69322C11.2017 2.82136 11.0588 2.94258 10.908 3.07076C10.7599 3.19642 10.6055 3.32666 10.457 3.45107C10.383 3.60123 10.1053 3.89821 9.95098 4.02485C9.92031 4.05012 9.74954 4.15653 9.73528 4.16134C9.70755 4.17098 9.81718 4.0689 9.7527 4.09798C9.7401 4.10346 9.47914 4.31427 9.52101 4.32422C9.55108 4.30327 9.6281 4.21211 9.64787 4.20576C9.78682 4.16283 8.98498 4.80273 8.96213 4.85376C8.98682 4.84735 9.01148 4.84096 9.03611 4.8346C8.98368 4.87295 8.93065 4.91179 8.87873 4.94964ZM9.22266 0.877424C9.22761 0.825453 9.31855 0.77899 9.35287 0.734611C9.40149 0.671977 9.41047 0.48065 9.45899 0.620322C9.37901 0.707226 9.30344 0.790017 9.22266 0.877424ZM7.9331 1.95556C8.0044 1.91803 8.00867 2.01556 7.94034 2.03359C7.93287 2.03538 7.83766 2.0056 7.9331 1.95556ZM8.56381 1.44598C8.56192 1.44902 8.51042 1.49209 8.50822 1.49243C8.44326 1.50933 8.598 1.38017 8.56381 1.44598ZM5.63257 4.0615C5.69519 4.00285 5.60302 3.99132 5.58138 4.04772C5.58003 4.05128 5.62842 4.06531 5.63257 4.0615ZM5.67984 4.02293C5.77071 4.02604 5.7898 3.84345 5.71756 3.92283C5.71059 3.93057 5.67554 4.02267 5.67984 4.02293ZM8.15992 1.7959C8.1685 1.81997 8.10212 1.86327 8.07281 1.88154C8.05946 1.86444 8.13587 1.82067 8.15992 1.7959ZM6.6388 3.13671C6.64883 3.15271 6.85748 2.96959 6.85588 2.93835C6.82944 2.97526 6.63053 3.12171 6.6388 3.13671ZM6.11669 3.62539C6.12406 3.62326 6.19367 3.5563 6.18076 3.54572C6.13098 3.56039 6.08315 3.6352 6.11669 3.62539ZM5.04174 4.55604C5.04052 4.56256 5.16349 4.59456 4.9893 4.65426C4.96375 4.66303 5.0135 4.58377 5.00432 4.58675C4.98542 4.59343 4.97204 4.6005 4.96269 4.60778C5.01708 4.54921 5.07701 4.49189 5.08723 4.49145C5.1353 4.48949 5.04234 4.55324 5.04174 4.55604ZM4.52825 5.1038C4.52688 5.12757 4.44128 5.18958 4.41867 5.19986C4.41471 5.20154 4.39883 5.15592 4.36533 5.18936C4.33852 5.21623 4.41134 5.214 4.35082 5.25666C4.28977 5.29974 4.34343 5.20996 4.33701 5.21242C4.32838 5.21584 4.25501 5.30664 4.23996 5.28432C4.22941 5.26726 4.33104 5.19699 4.3515 5.17372C4.37757 5.144 4.32005 5.15016 4.37423 5.11263C4.40829 5.089 4.42899 5.14782 4.43748 5.14434C4.44455 5.14135 4.53177 5.02169 4.52796 5.1038C4.52806 5.1038 4.52815 5.1038 4.52825 5.1038ZM4.94812 4.62379C4.95135 4.6184 4.95598 4.61302 4.96269 4.60778C4.95775 4.6131 4.95292 4.61849 4.94812 4.62379ZM9.07335 1.0464C9.05874 1.05094 9.05839 1.04176 9.0661 1.02761C9.08148 1.00087 9.12372 0.957308 9.15528 0.949093C9.16699 0.960737 9.10133 1.02411 9.07926 1.04221C9.07627 1.04464 9.07418 1.04614 9.07335 1.0464ZM4.92304 4.708C4.82389 4.77463 4.87669 4.70248 4.94812 4.62379C4.93 4.65392 4.95633 4.6856 4.92304 4.708ZM7.4403 2.48771C7.43371 2.48773 7.4269 2.48473 7.4193 2.47665C7.43711 2.47717 7.44228 2.4813 7.4403 2.48771ZM7.22005 2.65406C7.17135 2.74145 7.31449 2.61456 7.29749 2.59732C7.29111 2.59079 7.22205 2.65053 7.22005 2.65406ZM5.54734 4.13104C5.55604 4.12787 5.52123 4.29297 5.61862 4.10729C5.53202 4.16647 5.60781 4.08607 5.60073 4.08038C5.58071 4.06379 5.46463 4.19706 5.42812 4.21403C5.43527 4.26859 5.51861 4.14154 5.54717 4.13118C5.54723 4.13114 5.54728 4.13109 5.54734 4.13104ZM3.49268 5.96775C3.49298 5.93189 3.55583 5.88889 3.59585 5.85631C3.59525 5.89243 3.5321 5.93569 3.49268 5.96775ZM5.9038 17.6833C5.64663 17.4393 5.69692 17.3316 5.88282 17.5992C5.88642 17.6045 5.92656 17.6917 5.9038 17.6833ZM3.91415 15.4011C3.92862 15.3448 4.00606 15.4227 4.03834 15.4901C4.04566 15.5053 4.04862 15.5825 3.99637 15.5367C4.04153 15.5004 3.98859 15.4055 3.91415 15.4011ZM4.8924 4.77498C4.8871 4.8217 4.79232 4.87377 4.7469 4.90676C4.75563 4.86453 4.8484 4.7999 4.8924 4.77498ZM5.16648 16.7838C5.14438 16.7536 5.09679 16.7627 5.09846 16.7697C5.10563 16.8016 5.17721 16.8313 5.16648 16.7838ZM5.1546 4.55446C5.1707 4.56569 5.07649 4.67151 5.03835 4.64231C5.06322 4.62527 5.14413 4.54773 5.1546 4.55446ZM3.57481 5.91548C3.59774 5.90842 3.52304 5.99606 3.49109 6.01104C3.47981 5.99402 3.55968 5.92027 3.57481 5.91548ZM4.75866 16.3458C4.73935 16.3185 4.68506 16.2552 4.66647 16.2595C4.64308 16.2648 4.72921 16.3516 4.75866 16.3458ZM9.04755 20.8252C9.04541 20.8299 8.99241 20.8119 8.94437 20.7827C8.91922 20.7679 8.89583 20.7499 8.88463 20.732C8.84962 20.6757 8.91279 20.7162 8.96856 20.7582C9.01039 20.7902 9.04699 20.8216 9.04755 20.8252ZM5.41792 17.032C5.45875 17.1364 5.40927 17.0243 5.3814 17.0555C5.42722 17.1087 5.54442 17.2414 5.49327 17.1238C5.48308 17.1007 5.438 17.0584 5.41792 17.032ZM5.3633 16.9505C5.35437 16.9508 5.32873 16.9437 5.31165 16.9427C5.29944 16.942 5.29164 16.9445 5.29763 16.9552C5.29976 16.959 5.30357 16.9638 5.30946 16.9697C5.33093 16.9915 5.39876 16.9963 5.3633 16.9505ZM8.46871 20.276C8.42816 20.1834 8.71881 20.5019 8.72394 20.5158C8.72614 20.5228 8.72689 20.5281 8.72668 20.5317C8.74534 20.5338 8.80599 20.5911 8.79135 20.6181C8.77629 20.5998 8.72579 20.5532 8.72329 20.5461C8.72194 20.5428 8.72111 20.5402 8.72085 20.538C8.68234 20.5361 8.47633 20.2937 8.46871 20.276ZM7.99215 19.7406C8.10561 19.7786 8.05424 19.858 8.04534 19.8532C7.9355 19.7955 8.03813 19.8027 8.03774 19.7977C8.03588 19.7883 7.95522 19.7512 7.99239 19.7408C7.99231 19.7408 7.99223 19.7407 7.99215 19.7406ZM8.376 20.1614C8.37989 20.1636 8.4416 20.2296 8.44339 20.2335C8.47378 20.308 8.29868 20.1208 8.376 20.1614ZM4.14439 5.52157C4.09038 5.55617 4.11517 5.48976 4.15519 5.47129C4.15862 5.46991 4.19211 5.49098 4.14439 5.52157ZM5.32179 16.918C5.31662 16.9029 5.07876 16.6003 5.05589 16.6515C5.07857 16.6693 5.28777 16.9324 5.32009 16.9351C5.32249 16.9353 5.32392 16.9342 5.32424 16.9314C5.32458 16.9286 5.32381 16.9242 5.32179 16.918ZM3.44732 14.7545C3.49087 14.806 3.40622 14.7815 3.3966 14.7424C3.39305 14.728 3.43632 14.7415 3.44732 14.7545ZM5.32662 4.46359C5.36157 4.39812 5.40917 4.47494 5.34374 4.49115C5.34117 4.49179 5.32524 4.46615 5.32662 4.46359ZM3.77708 15.1817C3.60304 15.0243 3.75528 14.9663 3.91339 15.2291C3.90203 15.2264 3.89068 15.2237 3.87932 15.221C4.09014 15.5003 3.88658 15.2461 3.82443 15.187C3.80077 15.1646 3.79913 15.2019 3.77709 15.182C3.77709 15.1819 3.77709 15.1818 3.77708 15.1817ZM3.21968 14.4828C3.15742 14.2412 3.38043 14.6134 3.4708 14.6971C3.3597 14.6363 3.26407 14.5135 3.36578 14.7038C3.15911 14.475 3.27553 14.5446 3.27022 14.5329C3.26388 14.5192 3.22226 14.493 3.21968 14.4828ZM3.60368 14.9316C3.61448 14.9393 3.66134 15.028 3.68689 15.0521C3.62676 15.0393 3.53124 14.8802 3.60368 14.9316ZM7.45046 19.2202C7.47707 19.2057 7.50628 19.2051 7.55258 19.2687C7.52551 19.2618 7.48144 19.2343 7.45046 19.2202ZM9.38043 0.941704C9.4215 0.907432 9.50438 0.847298 9.46062 0.845541C9.4567 0.845568 9.36938 0.92851 9.38043 0.941704ZM4.60006 16.0689C4.59523 16.0581 4.40469 15.8369 4.44692 15.934C4.45964 15.9633 4.638 16.1603 4.60006 16.0689ZM5.60562 17.203C5.58949 17.1847 5.51848 17.1144 5.51189 17.1174C5.48971 17.1284 5.58161 17.2105 5.60562 17.203ZM9.59629 0.786748C9.60335 0.784453 9.71742 0.673878 9.69538 0.674744C9.65101 0.678873 9.57243 0.794297 9.59629 0.786748ZM4.01298 5.72568C4.00356 5.73526 3.96947 5.72288 3.96574 5.72564C3.95785 5.73187 3.77891 5.90295 3.82363 5.81043C3.83185 5.79429 4.10838 5.57551 4.14626 5.54804C4.18851 5.56898 4.04646 5.63724 4.0217 5.6646C4.01736 5.66948 4.03801 5.69971 4.01294 5.72547C4.01296 5.72554 4.01297 5.72561 4.01298 5.72568ZM7.75324 19.4884C7.78097 19.4774 7.99783 19.6731 7.97206 19.6945C7.89912 19.626 7.82604 19.5572 7.75324 19.4884ZM7.65289 19.3786C7.62335 19.32 7.72983 19.4205 7.75369 19.4573C7.74016 19.4701 7.65747 19.3874 7.65289 19.3786ZM5.3111 16.7214C5.28644 16.7039 5.31671 16.7983 5.29738 16.7884C5.2851 16.782 5.2525 16.7229 5.22906 16.7156C5.2221 16.7138 5.23865 16.7892 5.2528 16.8026C5.27281 16.8216 5.27722 16.7818 5.29742 16.8041C5.32365 16.833 5.34617 16.8628 5.36761 16.8924C5.4014 16.939 5.43251 16.9852 5.47071 17.0272C5.47642 17.0333 5.44837 16.9707 5.49621 17.0243C5.50347 17.0323 5.52528 17.1034 5.58658 17.1642C5.78609 17.2397 5.80989 17.4078 5.99875 17.562C5.99889 17.5487 5.8958 17.3996 5.88908 17.3909C5.7752 17.2445 5.56292 17.0062 5.41967 16.8457C5.40674 16.8312 5.39436 16.8174 5.38265 16.8043C5.34661 16.764 5.34882 16.7972 5.3327 16.7804C5.31997 16.767 5.36301 16.758 5.3111 16.7214ZM9.37358 0.976272C9.41813 0.9873 9.46731 0.910416 9.50875 0.875581C9.47172 0.862806 9.42086 0.944935 9.37358 0.976272ZM6.76587 18.4078C6.74547 18.3883 6.69328 18.316 6.67985 18.3185C6.66257 18.3219 6.74306 18.4214 6.76587 18.4078ZM2.95777 6.62618C2.95634 6.6288 2.90427 6.67135 2.90164 6.67205C2.83629 6.68838 2.99266 6.5608 2.95777 6.62618ZM1.72952 7.68899C1.69291 7.72738 1.66241 7.77 1.62939 7.75792C1.65614 7.7407 1.71975 7.66896 1.72952 7.68899ZM0.355372 10.8224C0.381863 10.7901 0.467108 10.9674 0.482596 10.9948C0.461379 10.9969 0.33634 10.8483 0.355372 10.8224ZM7.53402 19.124C7.59814 19.1939 7.62895 19.1376 7.65108 19.2004C7.65452 19.2107 7.58544 19.3227 7.54631 19.2135C7.53941 19.194 7.61229 19.2258 7.53402 19.124ZM3.9446 15.2672C3.98067 15.2681 4.02421 15.3306 4.05605 15.3706C4.03353 15.375 3.96985 15.2935 3.9446 15.2672ZM9.82931 0.616791C9.88953 0.613159 10.0185 0.458015 9.96523 0.472727C9.95652 0.476278 9.85345 0.596824 9.82931 0.616791ZM4.79086 5.0242C4.74646 5.10196 4.88485 4.99434 4.90707 4.93667C4.88958 4.95433 4.79398 5.01891 4.79086 5.0242ZM0.363383 8.97612C0.365724 8.97276 0.271378 9.09094 0.232303 9.15665C0.210077 9.18629 0.138065 9.32662 0.135238 9.33753C0.0709192 9.48007 0.0681766 9.49378 0.0897847 9.4135C0.11012 9.33499 0.191422 9.17628 0.213521 9.14503C0.309923 8.98584 0.439462 8.86806 0.363383 8.97612ZM2.16326 7.37421C2.15488 7.41402 1.98199 7.53913 1.93087 7.55138C1.94097 7.49492 2.17307 7.325 2.16326 7.37421ZM7.24893 18.8522C7.29683 18.9005 7.33629 18.9525 7.37215 19.0052C7.34809 19.0099 7.2427 18.868 7.24893 18.8522ZM0.212998 10.5255C0.217059 10.534 0.219111 10.5432 0.222975 10.5512C0.219488 10.5426 0.216232 10.534 0.212998 10.5255ZM6.21387 17.7288C6.18105 17.6812 6.16132 17.7155 6.16288 17.7189C6.18317 17.7589 6.25096 17.7825 6.21387 17.7288ZM9.45935 0.974296C9.49749 0.985741 9.54644 0.905888 9.59446 0.873365C9.56357 0.865046 9.48975 0.942022 9.45935 0.974296ZM3.11772 14.2547C3.09976 14.1764 3.32035 14.3704 3.34202 14.4325C3.3278 14.4511 3.12037 14.2658 3.11772 14.2547ZM5.02182 4.89182C5.04354 4.90832 5.11427 4.80447 5.08651 4.81182C5.06888 4.81648 5.00838 4.88152 5.02182 4.89182ZM3.425 14.554C3.44905 14.5696 3.4702 14.635 3.44347 14.6284C3.40925 14.62 3.4186 14.55 3.425 14.554ZM5.05045 16.3929C5.04552 16.3812 4.91815 16.2786 4.94185 16.3465C4.95833 16.3937 4.99215 16.3736 4.99944 16.3817C5.00747 16.391 5.14369 16.6156 5.05045 16.3929ZM2.08914 12.9878C2.1352 13.0276 2.17415 13.0935 2.21446 13.1411C2.18585 13.1324 2.08821 13.0212 2.08914 12.9878ZM4.67343 5.20287C4.69105 5.2019 4.99707 4.94558 4.80387 5.06888C4.7925 5.07625 4.61853 5.20716 4.67343 5.20287ZM7.53402 19.124C7.5259 19.1152 7.51719 19.1043 7.50788 19.0908C7.51826 19.1031 7.52661 19.1144 7.53402 19.124ZM6.78775 18.3346C6.81697 18.3373 6.74493 18.2531 6.71472 18.236C6.69055 18.245 6.78383 18.3345 6.78775 18.3346ZM2.23841 13.1275C2.27017 13.1484 2.30352 13.2073 2.33383 13.2418C2.31483 13.2472 2.23415 13.1512 2.23841 13.1275ZM0.625849 11.0543C0.664546 11.1275 0.725411 11.2021 0.743578 11.1895C0.741731 11.1928 0.740963 11.1979 0.741656 11.2051C0.742157 11.212 0.800576 11.2738 0.815359 11.3061C0.909833 11.5164 0.29366 10.6246 0.710469 11.1026C0.683386 11.0883 0.653618 11.07 0.625849 11.0543ZM2.41418 7.22391C2.46174 7.21806 2.52652 7.1168 2.49703 7.12848C2.47599 7.13719 2.36592 7.23011 2.41418 7.22391ZM1.23611 8.28011C1.24881 8.27523 1.32073 8.18633 1.31347 8.17386C1.25652 8.2043 1.17876 8.30121 1.23611 8.28011ZM2.67196 7.04083C2.69395 7.02705 2.69042 6.97261 2.68689 6.97318C2.65651 6.97865 2.62365 7.05089 2.67196 7.04083ZM7.48097 18.9004C7.46312 18.8639 7.35526 18.7967 7.31613 18.7971C7.31668 18.7897 7.31261 18.775 7.30176 18.7511C7.30182 18.7511 7.30187 18.7512 7.30192 18.7513C7.28677 18.7203 6.61178 17.9871 7.03071 18.511C7.04383 18.5274 7.04293 18.4891 7.09809 18.5538C7.1017 18.5581 7.0884 18.5746 7.09953 18.5878C7.12538 18.6184 7.26242 18.7814 7.30461 18.801C7.30205 18.8039 7.30129 18.8085 7.30289 18.8151C7.31688 18.8736 7.49497 18.9288 7.48097 18.9004ZM1.07048 8.43279C1.09247 8.42353 1.1426 8.36892 1.13526 8.35067C1.10419 8.36614 1.01842 8.455 1.07048 8.43279ZM4.73246 5.25228C4.7769 5.23396 4.84613 5.13636 4.80967 5.1479C4.7872 5.15504 4.68118 5.27355 4.73246 5.25228ZM1.60412 7.94694C1.39058 8.10585 1.55763 7.99024 1.54512 8.03746C1.56429 8.00771 1.58609 7.97565 1.60412 7.94694ZM8.28956 19.8312C8.26402 19.7965 8.33755 19.7947 8.34937 19.848C8.35301 19.8648 8.30392 19.8506 8.28956 19.8312ZM9.66632 21.1713C9.67204 21.1111 9.78586 21.2581 9.71167 21.2325C9.70839 21.231 9.66721 21.1747 9.66632 21.1713ZM8.7217 20.2147C8.67885 20.2176 8.66239 20.2066 8.61091 20.1437C8.70208 20.2221 8.6441 20.1236 8.7217 20.2147ZM0.745896 11.1867C0.745131 11.1879 0.744596 11.1888 0.743578 11.1895C0.744214 11.1883 0.744983 11.1875 0.745896 11.1867ZM2.85347 6.87165C2.89613 6.87087 2.96547 6.80791 2.92634 6.80537C2.92253 6.8053 2.85024 6.84761 2.85347 6.87165ZM7.31613 18.7971C7.31564 18.8037 7.31179 18.8043 7.30461 18.801C7.30702 18.7982 7.31083 18.7972 7.31613 18.7971ZM2.49343 7.21499C2.48742 7.20538 2.45154 7.22682 2.42044 7.2486C2.3934 7.26778 2.36971 7.28711 2.36848 7.28962C2.34292 7.34382 2.38914 7.30873 2.43648 7.26696C2.45795 7.24801 2.4796 7.22759 2.49343 7.21499ZM5.45248 4.66684C5.45652 4.66052 5.38686 4.65102 5.37867 4.68547C5.37242 4.71213 5.4374 4.69065 5.45248 4.66684ZM8.92596 20.3996C8.95815 20.4316 9.00236 20.4754 8.99338 20.5018C8.97388 20.4771 8.91279 20.4124 8.92596 20.3996ZM9.63873 21.097C9.57862 21.0801 9.49045 20.9945 9.43794 20.9363C9.46312 20.9068 9.59535 21.0682 9.63873 21.097ZM7.555 18.9983C7.55335 18.9943 7.4838 18.9052 7.47574 18.9343C7.4635 18.9766 7.56701 19.0311 7.555 18.9983ZM5.27057 4.78734C5.24465 4.83346 5.36724 4.80001 5.37925 4.73342C5.38543 4.6993 5.27493 4.77961 5.27057 4.78734ZM3.09493 6.70933C3.13493 6.65467 2.99384 6.74176 2.99506 6.77669C3.01901 6.75877 3.08063 6.7288 3.09493 6.70933ZM1.42358 8.20823C1.63057 8.1299 1.45168 8.09726 1.43177 8.13159C1.42887 8.13654 1.41858 8.21019 1.42358 8.20823ZM10.3125 0.388571C10.3263 0.361207 10.2208 0.404207 10.2277 0.43298C10.2327 0.450426 10.3028 0.406817 10.3125 0.388571ZM1.40484 12.0049C1.39907 11.9981 1.39337 11.9914 1.38777 11.9847C1.39284 11.989 1.39852 11.9955 1.40484 12.0049ZM3.61563 6.39646C3.43222 6.4091 3.50022 6.46297 3.49025 6.47099C3.46888 6.48795 3.40175 6.50659 3.36518 6.54482C3.40264 6.49583 3.43824 6.44847 3.47475 6.40034C3.43507 6.42413 3.10168 6.65954 3.10584 6.67972C3.11317 6.70717 3.20581 6.61613 3.20937 6.61602C3.21547 6.61497 3.27695 6.65563 3.28761 6.64995C3.3049 6.64063 3.56246 6.41917 3.61563 6.39646ZM1.74269 7.91066C1.71133 7.92699 1.68545 7.91228 1.6781 7.92771C1.67561 7.93296 1.69264 7.95372 1.68364 7.97088C1.70293 7.95114 1.72279 7.93092 1.74269 7.91066ZM3.74803 6.15015C3.80075 6.14785 3.65232 6.25999 3.64575 6.26083C3.60733 6.26471 3.7046 6.15233 3.74803 6.15015ZM2.56212 7.18664C2.56884 7.1833 2.68333 7.09705 2.67012 7.08445C2.63418 7.09734 2.4851 7.22204 2.56212 7.18664ZM1.66817 7.98693C1.63034 8.01603 1.53845 8.06098 1.57406 8.08346C1.57412 8.08341 1.57417 8.08336 1.57423 8.08332C1.60528 8.05139 1.63813 8.01791 1.66817 7.98693ZM5.19767 4.96336C5.30974 4.95143 5.22357 4.91849 5.14778 4.95666C5.14789 4.99479 5.17931 4.96541 5.19767 4.96336ZM5.45286 4.80581C5.48009 4.79755 5.67192 4.61456 5.61912 4.61525C5.60028 4.61552 5.50512 4.73846 5.4983 4.74125C5.48797 4.74559 5.50007 4.68527 5.4435 4.74415C5.45546 4.75067 5.44365 4.80867 5.45286 4.80581ZM5.2825 4.9444C5.38392 4.92131 5.34048 4.83953 5.28808 4.88458C5.26758 4.90212 5.26798 4.94763 5.2825 4.9444ZM4.99359 5.18438C5.02426 5.16915 5.09874 5.12118 5.12508 5.05867C5.06183 5.11005 4.99931 5.16078 4.93569 5.21246C4.93971 5.23147 4.96667 5.19774 4.99376 5.18423C4.99371 5.18428 4.99365 5.18433 4.99359 5.18438ZM10.2414 21.3368C10.1973 21.2657 10.3428 21.3764 10.341 21.3829C10.3435 21.4123 10.2626 21.37 10.2414 21.3368ZM11.2855 0.607932C11.3073 0.601594 11.3385 0.618513 11.3604 0.574125C11.3087 0.588345 11.2623 0.597502 11.2108 0.611439C11.223 0.677426 11.262 0.614318 11.2855 0.607932ZM11.5522 0.643359C11.5486 0.648595 11.6331 0.689163 11.5334 0.702377C11.465 0.712371 11.6609 0.477281 11.7262 0.468199C11.6951 0.522525 11.5831 0.599296 11.5522 0.643359ZM12.202 0.545939C12.2097 0.548444 12.1284 0.642565 12.1168 0.646675C12.0463 0.678738 12.1608 0.535237 12.202 0.545939ZM11.9185 0.795344C11.9697 0.770464 11.89 0.860377 11.8561 0.878703C11.8435 0.86828 11.9095 0.800461 11.9185 0.795344ZM10.544 19.8913C10.5436 19.8081 10.4185 19.8645 10.4995 19.9075C10.5034 19.9097 10.5438 19.8951 10.544 19.8913ZM12.1786 0.692321C12.1269 0.718744 12.2076 0.625713 12.2429 0.603963C12.2554 0.614622 12.1861 0.68873 12.1786 0.692321ZM10.6135 19.7617C10.5894 19.6784 10.5077 19.799 10.5109 19.8101C10.5225 19.8534 10.6585 19.9073 10.6881 19.9163C10.5289 19.7919 10.6251 19.801 10.6135 19.7617ZM10.3016 19.576C10.2396 19.5364 10.3498 19.6862 10.4017 19.681C10.3758 19.6583 10.3191 19.5871 10.3016 19.576ZM10.0264 19.239C10.0034 19.2089 9.93108 19.1195 9.90175 19.122C9.93395 19.1484 9.99912 19.2446 10.0264 19.239ZM10.0127 19.13C9.99213 19.0662 9.91919 19.1196 9.98633 19.1489C9.98899 19.1501 10.0131 19.1328 10.0127 19.13ZM9.79811 18.8699C9.79504 18.8165 9.70277 18.8463 9.74579 18.8929C9.75891 18.9068 9.79817 18.8757 9.79811 18.8699ZM10.6534 19.585C10.6234 19.5343 10.5296 19.529 10.6099 19.6172C10.5725 19.5939 10.5367 19.5719 10.5 19.5492C10.5872 19.6835 10.6389 19.6138 10.6689 19.6481C10.7098 19.6951 10.657 19.7426 10.6323 19.7495C10.6993 19.7544 10.8558 19.9056 10.9497 19.9827C10.8848 19.8964 10.7791 19.7501 10.7086 19.6651C10.6895 19.6418 10.6529 19.6332 10.6362 19.6138C10.6082 19.5814 10.6549 19.588 10.6536 19.5852C10.6535 19.5851 10.6535 19.5851 10.6534 19.585ZM9.48811 18.5554C9.43657 18.4458 9.42534 18.5581 9.48197 18.5935C9.48481 18.5947 9.48927 18.5579 9.48811 18.5554ZM12.4887 0.756296C12.3302 0.863714 12.3884 0.74066 12.1931 1.0274C12.2599 0.893064 12.1738 0.994586 12.1792 0.960671C12.1832 0.934294 12.2535 0.886239 12.1953 0.895702C12.2304 0.887288 12.2957 0.834247 12.3571 0.777773C12.3876 0.749725 12.4168 0.721252 12.445 0.692367C12.4807 0.646997 12.4746 0.690793 12.5928 0.496441C12.5849 0.511656 12.5853 0.510652 12.5821 0.51652C12.6101 0.486688 12.6786 0.266815 12.6714 0.198639C12.6778 0.129102 12.6724 0.378815 12.6203 0.472657C12.5588 0.614253 12.5519 0.618765 12.5404 0.652791C12.5234 0.703614 12.5175 0.734559 12.4887 0.756296ZM10.1861 19.0776C10.2338 18.9764 10.1043 19.0834 10.1129 18.9688C9.95236 18.9879 10.309 19.164 10.2669 19.2727C9.98394 18.9747 10.385 19.5392 10.2942 19.2235C10.4211 19.431 10.3631 19.2638 10.4034 19.2749C10.4097 19.2766 10.4166 19.2804 10.424 19.2854C10.4689 19.3169 10.5283 19.3927 10.5478 19.3649C10.5477 19.3649 10.5477 19.3648 10.5476 19.3648C10.512 19.3319 10.4781 19.3007 10.442 19.2673C10.4176 19.2448 10.3923 19.2214 10.3671 19.198C10.3648 19.3148 10.2631 19.1785 10.2723 19.0904C10.2438 19.0863 10.2144 19.0814 10.1861 19.0776ZM10.4593 19.4598C10.4561 19.4547 10.3863 19.3938 10.3444 19.366C10.3287 19.3558 10.3173 19.3506 10.3162 19.3563C10.3177 19.3602 10.3239 19.368 10.3329 19.3777C10.3813 19.4295 10.5046 19.5335 10.4593 19.4598ZM11.0245 19.9819C10.9811 19.9411 10.9232 19.8629 10.8768 19.8625C10.9216 19.906 10.9789 19.983 11.0245 19.9819ZM8.71815 17.6619C8.64303 17.6215 8.81031 17.8069 8.7827 17.7333C8.78138 17.7299 8.72188 17.664 8.71815 17.6619ZM10.044 18.9585C10.0082 18.8772 9.96292 18.9768 10.0258 19.0019C10.0295 19.0033 10.0457 18.9623 10.044 18.9585ZM12.3927 0.869588C12.4049 0.89349 12.2223 1.04344 12.1933 1.07055C12.1934 1.03898 12.3765 0.846039 12.3927 0.869588ZM11.1639 19.9829C11.1426 19.8415 10.9497 19.8007 10.9382 19.7864C10.9264 19.7719 10.9747 19.7636 10.9724 19.7599C10.9674 19.7522 10.8236 19.6176 10.8152 19.613C10.8088 19.6098 10.7957 19.6744 10.7542 19.6585C10.8334 19.6925 11.0765 19.9527 11.0916 19.9568C11.1047 19.9621 11.0704 19.8514 11.1638 19.9828C11.1638 19.9829 11.1639 19.9829 11.1639 19.9829ZM10.9134 19.7458C10.9327 19.7967 10.8314 19.703 10.8136 19.6736C10.7732 19.6075 10.911 19.7398 10.9134 19.7458ZM10.6897 19.498C10.6826 19.4838 10.5828 19.3791 10.5558 19.3888C10.5816 19.4613 10.7066 19.5317 10.6897 19.498ZM9.55134 18.367C9.52196 18.3419 9.46514 18.2556 9.44449 18.2669C9.47333 18.2916 9.53074 18.3783 9.55134 18.367ZM11.9518 1.55414C12.0117 1.52473 11.9088 1.63005 11.8705 1.65287C11.8596 1.64242 11.9452 1.55803 11.9518 1.55414ZM10.1868 18.7954C10.1762 18.7755 9.84519 18.4676 9.79311 18.4295C9.82451 18.486 10.1398 18.8044 10.1597 18.8121C10.1658 18.8146 10.1881 18.7982 10.1868 18.7954ZM10.8887 19.4744C10.9415 19.4795 10.9325 19.5264 10.9356 19.5302C10.9688 19.5697 11.0483 19.6359 11.0098 19.6433C10.9551 19.5728 10.7845 19.4651 10.8887 19.4744ZM9.63604 18.2382C9.51997 18.1378 9.70158 18.3725 9.6991 18.3203C9.69898 18.3172 9.64836 18.2489 9.63604 18.2382ZM10.2296 18.8245C10.2621 18.8275 10.4548 19.0324 10.5622 19.1456C10.5941 19.1793 10.6172 19.2037 10.6288 19.2151C10.5877 19.2101 10.5649 19.1913 10.5429 19.1651C10.5233 19.1413 10.5042 19.1106 10.4728 19.0814C10.4558 19.0655 10.4457 19.0845 10.4439 19.0828C10.4143 19.0548 10.4527 19.0594 10.435 19.0413C10.4237 19.03 10.1688 18.8175 10.2296 18.8245ZM10.9216 19.4743C10.9532 19.4789 11.1562 19.6638 11.16 19.6738C11.1933 19.7583 10.9335 19.4961 10.9216 19.4743ZM10.2313 18.7638C10.3065 18.7574 10.4382 18.9429 10.309 18.855C10.2962 18.8459 10.271 18.7855 10.2313 18.7638ZM9.68681 18.2115C9.68207 18.2043 9.57949 18.0834 9.56377 18.0935C9.57541 18.1157 9.73368 18.2858 9.68681 18.2115ZM9.78913 18.2269C9.7861 18.2245 9.78715 18.2759 9.73798 18.2196C9.73409 18.2151 9.75348 18.1781 9.6777 18.1218C9.66228 18.1103 9.62273 18.1076 9.62305 18.1103C9.64647 18.2235 9.9397 18.3503 9.78913 18.2269ZM10.9478 19.4549C10.9487 19.4323 11.0095 19.422 11.015 19.4626C11.0175 19.4802 10.978 19.4835 10.9478 19.4549ZM9.34428 17.8382C9.43049 17.8836 9.23171 17.6707 9.2161 17.6655C9.20887 17.6852 9.33593 17.8339 9.34428 17.8382ZM11.9997 1.82715C11.9997 1.82709 11.9998 1.82704 11.9998 1.82699C11.9374 1.87506 11.9562 1.82363 11.9529 1.82555C11.8018 1.91406 11.8743 1.92474 11.8593 1.94765C11.8279 1.99611 11.7857 1.94086 11.7354 2.02568C11.8242 1.88714 11.7281 1.99905 11.7093 1.98285C11.6268 1.92207 11.8979 1.87424 11.9414 1.80554C11.9476 1.79588 11.8663 1.827 11.8809 1.80124C11.9281 1.71788 12.2441 1.63784 11.9997 1.82715ZM11.0362 19.477C11.0829 19.4817 11.253 19.6843 11.1859 19.6537C11.1759 19.6501 10.9687 19.4718 11.0362 19.477ZM2.54937 9.89248C2.60612 9.92647 2.54645 9.79471 2.51652 9.78679C2.50049 9.78162 2.52482 9.87825 2.54937 9.89248ZM2.21145 10.5394C2.22728 10.5155 2.21011 10.3847 2.16747 10.4487C2.16098 10.4575 2.19691 10.533 2.21145 10.5394ZM5.14979 12.9959C5.12552 12.9086 5.07482 12.9582 5.11467 13.0035C5.12874 13.0195 5.15055 12.9986 5.14979 12.9959ZM3.14755 10.5925C3.14458 10.5849 3.083 10.5146 3.07221 10.5271C3.08704 10.5616 3.16649 10.6435 3.14755 10.5925ZM5.1744 13.0093C5.13302 12.9803 5.14861 13.0776 5.22538 13.0905C5.20269 13.0703 5.17861 13.0122 5.1744 13.0093ZM10.2222 18.5336C10.173 18.5254 10.0985 18.4381 10.0477 18.394C10.0698 18.3629 10.1841 18.5051 10.2222 18.5336ZM2.34947 9.49032C2.35349 9.53798 2.33011 9.50919 2.31811 9.49223C2.30581 9.47498 2.30979 9.47665 2.32535 9.46831C2.32476 9.46248 2.34669 9.47985 2.34947 9.49032ZM6.89936 14.9872C6.84661 14.9617 6.93828 15.1101 6.93631 15.0485C6.93597 15.0457 6.90228 14.9886 6.89936 14.9872ZM7.38928 15.5526C7.36751 15.5174 7.24868 15.3891 7.27788 15.4542C7.28235 15.4642 7.3721 15.5643 7.38928 15.5526ZM11.8742 1.97078C11.9177 1.98334 11.812 2.06754 11.7953 2.07365C11.7871 2.07734 11.8191 1.95298 11.8742 1.97078ZM4.80909 12.5847C4.7781 12.5555 4.71359 12.4647 4.68572 12.4631C4.72227 12.5 4.78743 12.6217 4.80909 12.5847ZM2.40543 9.57274C2.4118 9.5066 2.37912 9.45986 2.33957 9.50061C2.38082 9.5603 2.37139 9.46041 2.40543 9.57274ZM5.38674 13.1884C5.36696 13.1603 5.30989 13.1747 5.3105 13.1793C5.31657 13.2227 5.39325 13.2276 5.38674 13.1884ZM3.71111 11.2561C3.72713 11.2402 3.65083 11.1629 3.64878 11.1834C3.64785 11.1899 3.69789 11.2688 3.71111 11.2561ZM9.23332 17.5075C9.21347 17.4573 9.33393 17.5532 9.3478 17.602C9.33847 17.6421 9.23538 17.5131 9.23332 17.5075ZM5.99396 13.9136C6.02254 13.8955 5.89637 13.7788 5.9195 13.8478C5.92529 13.8651 5.98435 13.9196 5.99396 13.9136ZM7.10272 15.1126C7.04133 15.0785 7.11589 15.1908 7.17982 15.2656C7.22697 15.3208 7.26849 15.3563 7.24859 15.3029C7.24735 15.2996 7.22886 15.2742 7.20529 15.2428C7.16466 15.1885 7.10856 15.1159 7.10272 15.1126ZM7.608 15.7096C7.59821 15.6923 7.68726 15.6232 7.71051 15.713C7.7136 15.7247 7.65781 15.7077 7.6587 15.7187C7.65947 15.7254 7.76714 15.8666 7.77438 15.8705C7.78254 15.875 7.80208 15.843 7.8111 15.8469C7.82129 15.8514 7.87187 15.9533 7.90992 15.9952C7.98241 16.0748 8.01242 16.0631 8.01843 16.0694C8.03608 16.0883 8.0492 16.1339 8.08485 16.1724C8.26326 16.3651 8.55588 16.6404 8.65268 16.8351C8.54348 16.6824 8.40405 16.5734 8.27181 16.4438C8.35458 16.441 8.05142 16.2778 8.23427 16.3683C8.16255 16.3156 7.64092 15.7673 7.60814 15.7097C7.6081 15.7097 7.60805 15.7096 7.608 15.7096ZM2.40664 10.3983C2.39809 10.4578 2.5656 10.2938 2.5531 10.2458C2.52402 10.2634 2.40659 10.3922 2.40664 10.3983ZM2.61499 9.58241C2.63195 9.59491 2.70177 9.56474 2.7329 9.67257C2.73296 9.67264 2.73301 9.67272 2.73307 9.6728C2.74272 9.70494 2.70669 9.68648 2.70485 9.69501C2.70405 9.69856 2.73198 9.79982 2.67891 9.73747C2.59889 9.64279 2.71698 9.69512 2.67952 9.64181C2.67393 9.63432 2.57343 9.56193 2.57078 9.57337C2.57031 9.57455 2.59663 9.59736 2.59723 9.60461C2.59878 9.63104 2.57338 9.63562 2.57429 9.63886C2.57611 9.64736 2.7237 9.7832 2.71549 9.82979C2.70863 9.84121 2.49891 9.59479 2.50234 9.58628C2.50137 9.57833 2.55674 9.54416 2.55804 9.53469C2.55717 9.52837 2.47949 9.45473 2.48095 9.44473C2.48078 9.44118 2.48119 9.4383 2.48165 9.43612C2.46877 9.45403 2.43983 9.40243 2.46432 9.3989C2.4702 9.39152 2.4828 9.4234 2.48431 9.42855C2.48415 9.42956 2.48373 9.43061 2.48353 9.43149C2.48976 9.39859 2.61372 9.5868 2.61782 9.52675C2.67517 9.57446 2.56788 9.54877 2.61499 9.58241ZM2.87468 9.86947C2.86405 9.86674 2.85347 9.86407 2.84295 9.86146C2.93228 9.95562 3.00511 10.0893 3.09623 10.2149C3.10801 10.2312 3.12028 10.2476 3.13312 10.2639C3.16087 10.2991 3.16161 10.2325 3.18938 10.2862C3.2115 10.3291 3.21281 10.3932 3.19032 10.3787C3.18502 10.3755 3.14487 10.2839 3.11373 10.2484C3.10433 10.2376 3.09591 10.2286 3.08834 10.2211C3.01905 10.1511 3.01424 10.1919 3.00881 10.1864C3.00285 10.1804 2.96785 10.0943 2.93861 10.058C2.86287 9.9641 2.81284 9.9353 2.74131 9.79083C2.814 9.849 2.82588 9.7792 2.87468 9.86947ZM6.5444 14.3899C6.56531 14.3795 6.61817 14.47 6.64528 14.4957C6.62444 14.5063 6.5716 14.4159 6.5444 14.3899ZM8.45898 5.23752C8.45863 5.18874 8.27185 5.33914 8.33972 5.32093C8.35484 5.31685 8.43572 5.25743 8.45898 5.23752ZM7.63018 5.92793C7.61267 5.95668 7.72768 5.89219 7.70873 5.87067C7.70254 5.86388 7.63244 5.92421 7.63018 5.92793ZM4.09184 11.4491C4.09657 11.4531 4.14589 11.5257 4.14596 11.5287C4.15257 11.5985 3.98725 11.3626 4.09184 11.4491ZM6.67018 6.82021C6.73874 6.72875 6.47777 6.94078 6.57564 6.89698C6.58046 6.8948 6.66686 6.82465 6.67018 6.82021ZM6.32137 7.13115C6.34061 7.11277 6.43831 7.04414 6.43214 7.03454C6.42195 7.01925 6.31103 7.09879 6.32137 7.13115ZM5.50806 13.115C5.5315 13.0783 5.60814 13.2164 5.6474 13.254C5.62402 13.2909 5.54697 13.1524 5.50806 13.115ZM4.89763 12.3486C5.34496 12.8269 5.18372 12.7747 4.85701 12.3319C4.87699 12.3141 4.86946 12.3184 4.89763 12.3486ZM5.43552 12.9904C5.39978 12.9897 5.35771 12.9282 5.32667 12.8884C5.3467 12.8833 5.40845 12.9661 5.43552 12.9904ZM8.71225 5.09289C8.70309 5.14569 8.53727 5.23493 8.5527 5.20301C8.55667 5.19558 8.71125 5.06914 8.71225 5.09289ZM4.15444 11.4689C4.17602 11.4313 4.28754 11.5921 4.29072 11.61C4.30149 11.6798 4.17086 11.4748 4.15444 11.4689ZM6.14074 13.7947C6.18744 13.8 6.23962 13.885 6.28084 13.933C6.24142 13.9291 6.17549 13.8356 6.14074 13.7947ZM5.86071 13.4328C5.86421 13.435 5.91966 13.5037 5.92114 13.5076C5.94485 13.5827 5.78787 13.3884 5.86071 13.4328ZM12.2884 1.97632C12.2872 1.97883 12.2357 2.02347 12.2328 2.02447C12.1674 2.0432 12.3216 1.90972 12.2884 1.97632Z" fill="#060B45" style="mix-blend-mode:plus-darker"/>
</svg>
