<svg width="18" height="31" viewBox="0 0 18 31" fill="none" xmlns="http://www.w3.org/2000/svg">
<path d="M11.1351 1.16706C11.0923 1.18953 10.9103 1.25475 10.8336 1.28801C10.9044 1.21304 11.2898 1.08612 11.1351 1.16706ZM9.51891 7.56507C9.49186 7.49582 9.46522 7.42866 9.43803 7.35952C9.47881 7.56222 9.54931 7.83157 9.58232 8.02161C9.58764 8.05254 9.53964 7.9801 9.5548 8.05271C9.56997 8.12545 9.60778 8.10247 9.63607 8.20712C9.66815 8.32465 9.76006 8.8747 9.80081 9.064C9.93525 9.679 10.0791 10.2999 10.1866 10.9289C10.2026 11.0227 10.2177 11.116 10.2319 11.2098C10.2004 11.0657 10.1784 10.9786 10.1643 10.933C10.1455 10.8725 10.1407 10.8856 10.1441 10.9366C10.1517 11.0443 10.1942 11.3198 10.2207 11.4323C10.2307 11.478 10.3107 11.4572 10.4096 12.208C10.4694 12.685 10.2956 12.2626 10.4648 13.0468C10.4545 12.4264 10.5376 13.0265 10.6027 13.5046C10.6149 13.5872 10.6871 14.2548 10.7229 14.5492C10.7356 14.6499 10.7932 14.799 10.8086 14.9327C10.8192 15.025 10.8043 15.0968 10.8195 15.2335C10.8895 15.8708 10.9456 16.4989 10.9829 17.1413C10.9046 16.9216 10.9116 17.0705 10.9286 17.2313C10.9403 17.3417 10.9563 17.4571 10.955 17.4697C10.944 17.5608 10.9216 17.3592 10.9041 17.2329C10.892 17.1457 10.8827 17.0949 10.8831 17.2076C10.8838 17.2165 10.8845 17.2254 10.8852 17.2342C10.9138 17.6076 10.9388 17.9827 10.9579 18.3618C10.9574 18.0415 11.0639 18.7809 11.0307 18.9212C11.136 18.8541 10.9529 20.7287 10.9458 21.0102C10.9478 21.0631 11.0063 20.7629 10.9599 21.3377C10.9542 21.405 10.9469 21.4828 10.9374 21.5744C10.9275 21.6697 10.9025 21.6313 10.9011 21.6812C10.9003 21.7105 10.9742 21.8981 10.9074 22.0868C10.8815 22.1559 10.8717 21.6991 10.7939 22.6892C10.9327 22.3026 10.6814 24.0681 10.5827 24.4022C10.6062 24.3385 10.6296 24.2736 10.6525 24.2093C10.5654 24.5311 10.5817 24.5996 10.5664 24.6735C10.5051 24.9419 10.448 25.19 10.2925 25.6447C10.2623 25.7253 10.231 25.8011 10.203 25.867C10.0088 26.2911 10.0534 26.3189 9.77601 26.7056C9.84838 26.6214 9.9208 26.532 9.99137 26.4384C9.81281 26.7297 9.62512 26.9792 9.43417 27.2109C9.80824 26.6102 9.33928 27.3324 9.30277 27.3664C9.24826 27.4344 9.30613 27.3202 9.2149 27.432C9.20553 27.4431 9.24179 27.448 9.09704 27.6139C8.79211 27.9543 8.81396 27.8717 8.68268 28.0065C8.67037 28.0182 8.73254 27.9967 8.50562 28.2247C7.77436 28.9286 8.49788 28.2109 8.52122 28.1773C8.55316 28.1346 8.23446 28.3149 8.87098 27.7187C8.65862 27.9237 8.60323 27.9072 8.57951 27.9301C8.55942 27.9521 8.2042 28.3005 8.18377 28.3184C8.01502 28.4939 8.1952 28.3744 8.1641 28.4105C8.13918 28.4433 7.66351 28.8006 7.61435 28.9631C7.33383 29.0714 7.69472 28.8011 8.04151 28.4725C8.08219 28.4136 7.6754 28.7432 7.65276 28.7591C7.12899 29.1863 7.46453 29.0075 7.37841 29.138C7.33135 29.2072 7.07563 29.3371 7.3236 29.2324C6.82082 29.6186 7.10507 29.356 7.06936 29.3765C7.01698 29.4054 6.83878 29.5548 6.81318 29.5684C6.77566 29.5894 6.88622 29.486 6.74031 29.5754C6.7176 29.5895 6.50107 29.7809 6.81614 29.5937C6.66471 29.6944 6.56173 29.7625 6.49247 29.8057C6.34717 29.8935 6.3135 29.9061 6.16801 29.9296C5.79479 30.2332 5.8356 29.9821 5.67445 30.0313C5.24705 30.1333 5.39308 30.1889 5.37147 30.2024C5.21002 30.3081 4.07277 30.3367 3.81506 30.2869C3.92388 30.2396 4.68394 30.3294 4.8691 30.2794C5.16461 30.2193 4.95045 30.2422 4.72457 30.2442C4.49778 30.2461 4.26251 30.2207 4.46657 30.1743C4.29539 30.2026 4.12403 30.2216 3.9522 30.2322C3.65059 30.134 4.08347 30.1912 3.26899 30.0623C3.12461 30.0906 3.84481 30.16 3.69668 30.1723C3.60802 30.1903 3.13253 30.0977 3.12075 30.1023C3.10723 30.1187 3.54102 30.1912 3.46926 30.1984C3.30468 30.2708 1.76122 29.6705 2.95367 30.0524C2.73241 29.9882 2.59903 29.8914 2.4495 29.8077C2.36874 29.7631 2.28768 29.7221 2.18281 29.68C2.08069 29.6391 2.28954 29.7896 2.31985 29.8376C2.35729 29.8621 2.18037 29.9493 1.37529 29.2891C1.36458 29.2476 2.03483 29.762 2.06196 29.7457C2.08977 29.7552 2.01262 29.5924 1.99556 29.5754C1.96696 29.547 1.50089 29.3005 1.12 28.8437C0.73069 28.3926 0.534796 27.8472 0.506946 27.6764C0.501519 27.7567 0.388546 27.4363 0.328151 27.1398C0.264055 26.8348 0.229216 26.6003 0.211139 26.5718C0.201482 26.5519 0.182478 26.6387 0.173611 26.6169C0.166851 26.5997 0.160563 26.5785 0.155273 26.558C0.00828803 26.0814 0.161503 25.2468 0.28753 24.944C0.433346 24.5354 0.394686 24.5885 0.401352 24.5635C0.477245 24.4014 0.437499 24.5398 0.483554 24.4423C0.542714 24.2625 1.09116 23.4562 1.11888 23.4374C1.126 23.4259 1.00507 23.5223 1.12194 23.3597C1.14254 23.3358 1.16154 23.3619 1.51318 22.927C1.93933 22.4152 1.16473 23.2411 1.31394 23.0042C1.64899 22.7165 1.59131 22.6926 1.67264 22.6102C1.70143 22.5815 1.9407 22.4057 2.15403 22.1871C2.00539 22.3492 1.85639 22.5159 1.70781 22.6899C1.86713 22.5296 2.15515 22.2185 2.28759 22.1035C2.35223 22.0469 2.33359 22.1284 2.46506 21.9975C2.49227 21.9708 2.52785 21.7792 2.21482 22.1592C2.15931 22.1591 2.34278 22.0122 2.4116 21.9297C2.42178 21.9173 2.422 21.8252 2.5477 21.7602C2.57408 21.7473 2.48516 22.037 2.83703 21.6207C2.91587 21.5343 3.01259 21.4324 3.13126 21.3188C3.16218 21.2889 3.03053 21.3619 3.06025 21.3322C3.08015 21.3078 3.3558 21.1195 3.38389 21.1007C3.41262 21.0769 3.26691 21.1436 3.30047 21.1148C3.47576 20.9641 3.77343 20.9055 3.386 21.1405C3.52104 21.0657 3.6554 21.0005 3.78903 20.9425C3.61431 20.9489 3.98058 20.8108 4.15566 20.7341C5.28361 20.2736 4.50858 20.525 4.69521 20.4242C5.00016 20.2832 4.79694 20.4786 5.25401 20.3138C5.29823 20.3076 4.70839 20.3605 5.83765 20.1632C5.67048 20.1932 5.50596 20.2287 5.3423 20.2698C5.45226 20.3163 5.93726 20.1443 5.97998 20.1414C6.4429 20.0783 6.09551 20.1171 6.84989 20.0537C6.85081 20.0537 6.85174 20.0537 6.85266 20.0537C6.9999 20.048 7.35969 20.0993 7.67946 20.234C8.06717 20.4097 8.04869 20.4196 7.87699 20.3061C7.70587 20.1962 7.25785 20.0217 6.85007 20.0266C6.60366 20.0211 6.39879 20.0358 6.38295 20.0247C6.37731 20.0205 6.56447 19.9962 6.85027 19.9959C7.36137 19.9729 8.02822 20.2825 8.30642 20.5631C8.60666 20.8397 8.70622 21.0278 8.72245 21.0475C8.79051 21.1834 8.68006 20.993 8.47316 20.7693C8.27553 20.5427 7.91474 20.3212 8.06197 20.4435C8.10736 20.4638 8.59663 20.8774 8.81077 21.2925C9.04989 21.7076 9.1788 22.1065 9.27127 22.3697C9.3885 22.7143 9.42606 22.9878 9.43971 23.1154C9.48569 23.6437 9.35437 23.8461 9.47415 23.8544C9.35822 23.9885 9.42668 24.1081 9.42084 24.1696C9.32847 24.8913 9.31775 24.8815 9.15834 25.475C9.11908 25.6052 9.04594 25.703 9.03394 25.7506C9.02665 25.7787 9.08174 25.7407 9.0394 25.8772C9.00936 25.9695 8.88418 26.2673 8.67379 26.5842C8.45747 26.9157 8.17673 27.1858 8.13409 27.2135C8.05717 27.2782 8.50056 26.7813 8.39413 26.8492C8.09812 27.2275 7.75451 27.5394 7.37831 27.7797C7.22166 27.8776 7.28945 27.8066 7.22206 27.8474C7.19365 27.8749 6.66529 28.166 6.69205 28.1557C6.72105 28.1538 7.15518 27.9635 7.52447 27.7043C7.89427 27.4519 8.17264 27.1597 7.9856 27.3727C7.91296 27.4573 7.58751 27.6446 7.67323 27.659C6.71337 28.357 5.73867 28.5567 4.97658 28.7445C4.20739 28.9358 3.41154 28.8128 2.79842 28.5646C3.39218 28.768 4.18486 28.9043 4.96824 28.711C5.26329 28.6422 5.58822 28.5666 5.91797 28.4606C6.03003 28.4283 6.43297 28.2876 6.37284 28.2731C5.90257 28.4502 5.39086 28.5864 4.9633 28.6912C4.54173 28.7969 4.11422 28.8053 3.75925 28.755C3.72827 28.7506 3.84551 28.7344 3.73002 28.7161C3.50719 28.6972 2.84754 28.5495 2.76146 28.4873C2.74316 28.4805 3.10531 28.5685 3.00704 28.5071C2.8859 28.4333 2.80148 28.4167 2.71869 28.4097C2.56996 28.3757 2.42129 28.3429 2.24664 28.217C2.03842 28.1098 1.50715 27.4342 1.36855 27.0104C1.24165 26.7135 1.17964 26.4355 1.14091 26.3062C1.06602 26.0394 1.14976 26.6651 1.31957 27.0321C1.37567 27.1705 1.4274 27.2796 1.40129 27.2556C1.36049 27.1834 1.3243 27.113 1.29161 27.0444C0.860196 26.133 0.998996 25.1521 1.2387 24.4557C1.24358 24.4416 1.17351 24.5529 1.23106 24.3756C1.33727 24.0703 1.41649 24.0163 1.48932 23.8822C1.54666 23.7744 1.71962 23.4699 1.84929 23.303C1.89145 23.2469 1.92482 23.2071 1.93965 23.1941C1.94675 23.1876 1.91231 23.3032 1.90348 23.3181C1.90004 23.3236 1.89664 23.3291 1.89327 23.3344C1.76606 23.5374 1.68339 23.5853 1.67023 23.6039C1.6236 23.6774 1.60042 23.7609 1.56274 23.8295C1.50139 23.9427 1.45201 23.9979 1.38173 24.1554C1.33455 24.2648 1.41217 24.1727 1.36766 24.2781C1.34697 24.3108 1.12224 24.7296 1.19981 24.7982C1.21154 24.8038 1.39867 24.0418 1.91452 23.3496C2.43946 22.4903 3.7779 21.8858 3.91991 21.8786C3.62605 21.9586 3.29397 22.0885 2.9921 22.27C3.63466 21.8825 4.33063 21.6996 4.36357 21.787C4.479 21.7601 4.57958 21.738 4.65926 21.7181C5.40857 21.5445 6.11377 21.5915 6.88239 22.0067C7.78963 22.6167 7.76896 23.2618 7.87598 23.4824C8.10703 24.3489 7.85378 24.8993 7.69806 25.3143C7.37351 26.1089 6.70448 26.6557 6.13149 26.9549C5.77686 27.1238 5.93065 26.9909 5.39253 27.2274C5.53807 27.1944 5.68945 27.1551 5.8459 27.1057C5.66838 27.1875 5.08039 27.3835 4.78471 27.4756C4.29482 27.6503 3.85976 27.6113 3.72479 27.6022C3.6799 27.5876 3.60189 27.692 3.05403 27.5037C2.94506 27.4614 2.85698 27.4162 2.78257 27.3717C2.1692 26.9646 2.16807 26.6781 2.05896 26.401C1.97013 26.0862 1.96164 25.8855 1.95791 25.8293C1.95782 25.7879 1.98326 25.7685 1.98657 25.6797C2.00221 25.4196 1.92356 25.6168 2.01761 25.3905C2.01876 25.4431 2.02016 25.4993 2.02253 25.5596C2.03169 25.4015 2.05455 25.2561 2.07124 25.2013C2.08533 25.1121 2.09566 25.0955 2.09688 25.2025C2.09998 25.2246 2.10194 25.2609 2.10234 25.3202C2.10282 25.383 2.07927 25.3275 2.0772 25.3753C2.05299 25.811 2.08706 26.3959 2.39797 26.8058C2.53777 26.9938 2.6489 27.0663 2.64619 27.064C2.64938 27.0622 2.55067 26.9851 2.4411 26.8405C1.94894 26.1213 2.13645 25.4801 2.10524 25.2029C2.10698 25.1339 2.11213 25.0676 2.11985 25.0044C2.1486 24.8542 2.29247 24.3784 2.56048 24.068C2.8186 23.7483 3.10519 23.5639 3.2338 23.4841C3.29831 23.4449 3.33798 23.4254 3.34623 23.4221C3.42498 23.3959 3.16853 23.5535 3.53428 23.4089C3.57926 23.3801 4.07622 23.2236 4.38952 23.2135C4.71231 23.1906 4.92985 23.2095 4.67432 23.2341C4.58164 23.2324 3.82523 23.2949 3.56018 23.4374C4.15732 23.2598 5.01103 23.204 5.11171 23.2127C5.50348 23.2471 4.35233 23.2459 5.23497 23.3019C5.23597 23.302 5.23696 23.3021 5.23795 23.3022C5.51953 23.3026 5.93643 23.5456 6.0623 23.7528C6.20427 23.9535 6.22218 24.0536 6.24576 24.1106C6.28119 24.2197 6.28012 24.1941 6.27287 24.1351C6.26023 24.016 6.11872 23.649 6.31344 24.1071C6.35901 24.2394 6.37616 24.4382 6.37714 24.5331C6.40737 24.9082 6.2613 25.4308 6.314 25.4258C6.20603 25.7875 6.23359 25.5628 6.21707 25.6062C6.20859 25.6379 6.0414 26.0738 5.80415 26.3293C5.72015 26.4259 5.64356 26.4914 5.59051 26.5313C5.56164 26.5532 5.62234 26.4479 5.59154 26.4701C5.56247 26.4947 5.38048 26.6413 5.21543 26.7289C5.04941 26.8214 4.89948 26.8784 4.88829 26.8849C4.87346 26.8938 5.02852 26.8698 4.97334 26.9013C4.90032 26.9555 4.35734 27.0962 4.33512 27.1018C4.29084 27.1395 4.96105 26.9399 4.86497 27.0031C4.63073 27.081 4.32577 27.1607 4.1011 27.2109C4.04506 27.2214 3.88172 27.2201 3.82483 27.2163C3.56415 27.2004 3.28929 27.0896 3.13053 26.9855C3.19912 27.0368 3.53404 27.2152 3.82298 27.2334C3.88077 27.2373 4.04669 27.2387 4.10361 27.228C4.1826 27.2159 4.26225 27.2022 4.30668 27.195C4.29372 27.2184 4.20657 27.2483 4.10964 27.2689C4.05059 27.28 3.8785 27.2787 3.81856 27.2746C3.56578 27.2624 3.23345 27.12 3.0832 26.9936C2.9319 26.8691 2.89825 26.8219 3.07962 26.9536C2.7369 26.6843 2.94339 26.8918 2.76695 26.7326C2.71611 26.6943 2.52048 26.3662 2.48259 26.2432C2.47295 26.2196 2.46546 26.201 2.46025 26.1897C2.45905 26.1874 2.46449 26.2107 2.47447 26.2461C2.49608 26.3489 2.6165 26.6013 2.57197 26.5367C2.54448 26.4988 2.48242 26.3892 2.43458 26.2603C2.35219 26.0526 2.31309 25.7631 2.31559 25.5862C2.31568 25.4043 2.33132 25.3027 2.33466 25.2814C2.35033 25.2102 2.34759 25.2944 2.34986 25.4372C2.34937 25.5757 2.37728 25.8108 2.3974 25.8486C2.39891 25.8538 2.38961 25.6603 2.4079 25.5189C2.42398 25.3737 2.45011 25.27 2.45216 25.2664C2.47645 25.257 2.46594 25.3644 2.46484 25.5076C2.46174 25.6475 2.48427 25.8301 2.49995 25.7817C2.4894 25.5875 2.50815 25.439 2.52712 25.3183C2.53152 25.4785 2.50047 25.7868 2.64354 26.1859C2.71392 26.3763 2.84043 26.6177 3.07689 26.8186C3.31092 27.0224 3.62224 27.1198 3.83357 27.1349C3.88621 27.1384 4.03733 27.1396 4.08919 27.1299C4.20602 27.1073 4.30043 27.081 4.35205 27.0573C4.26244 27.078 4.17331 27.0953 4.08615 27.1092C4.03536 27.1187 3.88735 27.1176 3.83579 27.1141C3.56424 27.0938 3.22362 26.9408 3.02508 26.7321C2.82125 26.526 2.73469 26.3246 2.68288 26.1719C2.5387 25.6737 2.63645 25.4732 2.67812 25.4758C2.71525 25.4659 2.75891 25.8501 2.77935 25.8424C2.78895 25.7454 2.76341 25.2904 2.77245 25.2959C2.77607 25.2848 2.77903 25.28 2.78137 25.2802C2.78137 25.2802 2.78137 25.2802 2.78137 25.2802C2.79409 25.2825 2.78588 25.4072 2.79536 25.5863C2.80012 25.7629 2.86319 25.9991 2.87739 26.0167C2.90681 26.0763 2.90945 25.6991 2.93866 25.7098C2.93867 25.7132 2.97479 25.9346 3.03504 26.0466C3.0663 26.1091 3.08856 26.1347 3.07218 26.0644C3.07026 26.0553 3.06817 26.0457 3.066 26.0356C3.00273 25.8135 3.01809 25.4576 3.02381 25.4573C3.04157 25.3976 3.02431 25.7817 3.13103 26.0124C3.15512 26.0715 3.17873 26.1133 3.18327 26.1173C3.18726 26.1209 3.16748 26.0694 3.15182 26.005C3.11755 25.8809 3.11581 25.7107 3.12271 25.7052C3.12901 25.6961 3.15621 25.8563 3.22341 25.9796C3.24473 26.0201 3.26901 26.0572 3.29033 26.0824C3.33925 26.1394 3.28452 25.9989 3.28145 25.9589C3.27947 25.9472 3.2795 25.9426 3.2833 25.9513C3.28379 25.9524 3.28461 25.9544 3.28575 25.9574C3.2995 25.9879 3.34524 26.1402 3.49123 26.2806C3.63742 26.4274 3.85568 26.4665 3.90525 26.4671C3.92301 26.4683 3.97399 26.4688 3.99148 26.4655C3.9962 26.4646 3.99937 26.4638 4.00078 26.4634C4.01375 26.4591 4.00449 26.4548 3.98931 26.4507C3.97258 26.4538 3.92383 26.4534 3.90685 26.4523C3.87149 26.4392 3.81354 26.4139 3.83039 26.4133C3.84241 26.4128 3.87427 26.4183 3.91014 26.4216C3.92552 26.4227 3.96967 26.423 3.98482 26.4202C4.03475 26.412 4.1014 26.4029 4.08685 26.3983C4.08278 26.397 4.04074 26.3967 3.98107 26.3947C3.96724 26.3973 3.92693 26.3969 3.91289 26.396C3.78601 26.375 3.59513 26.2561 3.52883 26.1253C3.45668 25.9986 3.45404 25.9033 3.46144 25.9021C3.44994 25.9176 3.87265 26.5193 3.58757 25.909C3.5873 25.9073 3.57522 25.8852 3.56349 25.8585C3.54633 25.8209 3.53159 25.7733 3.53183 25.7709C3.55015 25.688 3.66644 26.0798 3.58302 25.5859C3.59069 25.6931 3.61439 25.7736 3.6406 25.8311C3.85743 26.1439 3.69958 25.8761 3.72318 25.8017C3.72667 25.7828 3.73593 25.7764 3.75408 25.7902C3.75424 25.7903 3.75439 25.7904 3.75455 25.7905C3.7896 25.8564 3.93178 25.9534 3.94206 25.9312C3.9309 25.8947 3.88437 25.901 3.88249 25.874C3.88552 25.8702 3.94689 25.8798 3.97093 25.8554L3.90197 25.8567C3.91464 25.8486 3.91667 25.8422 3.90095 25.8391C3.90046 25.839 3.89992 25.8389 3.89934 25.8389L3.97286 25.8374C3.9486 25.8279 3.92031 25.8022 3.90863 25.7692C3.90381 25.6974 3.95818 25.7643 3.96698 25.7421C3.96913 25.7386 3.96758 25.7298 3.96452 25.7158C3.9576 25.688 3.95153 25.636 3.95298 25.6324C3.95488 25.6298 3.97537 25.6784 4.00166 25.7026C4.02281 25.7255 4.03793 25.7223 4.04151 25.7163C4.05104 25.7092 4.06608 25.6969 4.07054 25.6941C4.11829 25.6691 3.87078 25.6474 4.08376 25.621C4.10776 25.6268 4.13671 25.6703 4.13185 25.6629C4.14597 25.6564 4.15801 25.6571 4.1512 25.6336C4.14655 25.61 4.09793 25.5637 4.08589 25.5456C4.04829 25.4626 4.31074 25.6788 4.09393 25.4928C4.22606 25.5361 4.25869 25.6185 4.25806 25.6114C4.2616 25.6144 4.2533 25.6169 4.251 25.5462C4.25279 25.6126 4.2649 25.6162 4.26861 25.6076C4.28168 25.6053 4.24069 25.5097 4.17322 25.457C4.10846 25.4031 4.0681 25.3857 4.06521 25.3715C4.06163 25.3599 4.08791 25.3459 4.17427 25.3774C4.26314 25.4021 4.38007 25.5404 4.38114 25.5676C4.38475 25.5761 4.38704 25.5857 4.38722 25.5882C4.38648 25.5851 4.38594 25.5743 4.38652 25.5656C4.38382 25.5191 4.40748 25.4714 4.35749 25.4139C4.34813 25.382 4.11356 25.2616 4.03454 25.2629L3.81528 25.2672C3.86324 25.2532 3.88015 25.2263 3.81155 25.1735C3.80954 25.1719 3.80592 25.171 3.80108 25.1706L4.04496 25.1659C4.10858 25.133 4.42966 25.3419 4.33369 25.2449C4.20204 25.1587 4.09661 25.1459 4.04777 25.1397L3.79725 25.1446C3.901 25.1279 3.8576 25.1275 3.79502 25.1294L4.0494 25.1245C4.14493 25.1186 4.334 25.2068 4.32979 25.2081C4.34393 25.1953 4.20855 25.0942 4.05479 25.0743L3.78767 25.0795C3.97911 25.0597 4.38962 24.8719 4.23789 24.9798C4.25439 24.9661 4.27122 24.9409 4.27535 24.9272C4.30088 24.8524 4.24364 24.7518 4.24397 24.7354C4.24664 24.669 4.27898 24.7252 4.29215 24.7104C4.29567 24.7059 4.29367 24.6866 4.28672 24.6609C4.28616 24.6028 4.23544 24.5458 4.31323 24.7904C4.35241 24.9097 4.51178 25.1327 4.69877 25.2353C4.8828 25.3416 5.00731 25.353 5.07277 25.3624C5.04463 25.3631 5.0261 25.3634 5.02198 25.3625C4.93262 25.3422 5.02683 25.3073 5.01779 25.3047C4.89402 25.2542 4.29957 25.3284 4.34946 25.339C4.33382 25.3679 4.4895 25.3333 4.40289 25.3969C4.35276 25.4556 4.39427 25.3636 4.37082 25.3394C4.3659 25.3348 4.3628 25.3314 4.36171 25.331C4.29013 25.3744 4.24854 25.418 4.24891 25.4196C4.24815 25.4253 4.28384 25.3593 4.28387 25.3042C4.27468 25.4883 4.26866 25.6387 4.27435 25.7094C4.27534 25.7418 4.28461 25.7531 4.26392 25.6879C4.24823 25.6338 4.15231 25.4277 3.9268 25.305C3.92723 25.3097 4.00574 25.3188 4.00256 25.3118C4.47513 25.1483 4.79313 25.0433 5.05944 24.8924C5.03894 24.8686 4.89493 24.9452 4.71317 25.0219C4.53554 25.0986 4.3186 25.1807 4.3064 25.181C4.24016 25.1761 4.5861 25.0559 4.85693 24.9256C5.14143 24.7935 5.31273 24.6453 5.34748 24.6228C5.28976 24.6616 5.22127 24.7003 5.14117 24.7379C5.23242 24.6002 5.43441 24.5083 5.45624 24.3831C5.45909 24.3741 5.4616 24.3653 5.46381 24.3568C5.47524 24.3104 5.44979 24.3407 5.42704 24.371C5.41756 24.3788 5.40943 24.3857 5.40901 24.3849C5.40781 24.3777 5.40769 24.3703 5.40841 24.3632C5.42971 24.2817 5.47038 24.221 5.47447 24.3048C5.49794 24.1277 5.52143 24.1579 5.53158 24.12C5.53166 24.1235 5.50301 24.1092 5.49111 24.1252C5.48966 24.1301 5.48656 24.1527 5.50061 24.2084C5.43846 24.0101 5.40661 23.9499 5.39348 23.9606C5.37843 23.9502 5.30249 24.0621 5.40619 24.075C5.41592 24.1256 5.42803 24.1796 5.44041 24.2268C5.3954 24.0866 5.48575 24.1872 5.47585 24.1292C5.47549 24.1263 5.46189 24.1277 5.45154 24.12C5.43847 24.1177 5.44534 24.0841 5.42815 24.1971C5.39632 24.1692 5.39702 24.1154 5.39596 24.1107C5.39508 24.1016 5.40265 24.1667 5.42843 24.2305C5.41359 24.1744 5.40448 24.141 5.39712 24.1247C5.37125 24.0704 5.36999 24.1056 5.40155 24.2387C5.37115 24.1694 5.36991 24.0999 5.37364 24.1084C5.37761 24.1121 5.3765 24.1669 5.39227 24.1959C5.32768 24.1454 5.38199 24.2082 5.33112 24.3248C5.33031 24.3266 5.32952 24.3284 5.32872 24.3302C5.30408 24.3755 5.29403 24.3446 5.28085 24.3687C5.23714 24.4343 5.29931 24.4405 5.20611 24.472C5.38439 24.5046 5.09482 24.6133 4.94844 24.6393C5.11723 24.5331 5.20282 24.4351 5.23678 24.369C5.22784 24.3684 5.21895 24.3676 5.21005 24.3666C5.2226 24.3509 5.23267 24.3362 5.24159 24.3209C5.24699 24.3268 5.25228 24.3329 5.25745 24.339C5.25787 24.3244 5.25829 24.3123 5.25942 24.3014C5.31025 24.1177 5.336 24.1357 5.34198 24.1227C5.35551 24.0804 5.33182 24.114 5.37035 24.2483C5.3239 24.0887 5.29317 24.002 5.2934 24.0059C5.29138 24.0015 5.36083 24.1561 5.56844 24.2769C5.57706 24.2818 5.5798 24.283 5.58008 24.2831C5.56909 24.2827 5.59681 24.328 5.46857 24.2665C5.42549 24.2506 5.4705 24.2152 5.41717 24.2191C5.3583 24.3233 5.35995 24.2439 5.33954 24.2462C5.32698 24.2484 5.31625 24.2524 5.30706 24.2573C5.15971 24.3018 5.09375 24.3308 5.07892 24.3347C4.816 24.3974 4.61362 24.4535 4.52103 24.5085C4.51961 24.5097 4.58545 24.512 4.51672 24.5362C4.49711 24.5419 4.22615 24.5312 4.06062 24.8312C4.11689 24.7708 4.17245 24.7192 4.22562 24.6772C4.20097 24.6954 4.13137 24.7728 4.06067 24.8835C3.96159 25.0365 3.90015 25.2336 3.95965 25.1581C4.00282 25.1045 4.03787 24.9573 4.0911 24.9052C4.1113 24.8837 4.1313 24.8742 4.1519 24.8818C4.14237 24.8917 4.13049 24.9054 4.11633 24.9233C4.02944 25.0203 3.86329 25.3409 3.83661 25.5677C3.80455 25.7987 3.85555 25.8702 3.84967 25.8908C3.84868 25.8966 3.81339 25.8777 3.81222 25.8848C3.81192 25.8872 3.81778 25.9044 3.82675 25.9241C3.85971 25.9988 3.88669 26.0411 3.88353 26.0474C3.88409 26.0606 3.8417 26.0224 3.83408 26.0277C3.83147 26.0315 3.85817 26.0845 3.85994 26.0837C3.86536 26.086 3.82095 26.0395 3.82322 26.0224C3.88754 26.0891 3.86813 26.0634 3.8989 26.0524C3.90368 26.0523 3.87508 26.0529 3.86872 26.0415C3.84122 25.9932 3.89852 26.0285 3.91124 26.0407C3.92396 26.0562 3.86996 25.9724 3.84668 25.9153C3.84525 25.9122 3.84414 25.9097 3.84338 25.9078C3.84531 25.9099 3.84723 25.9121 3.84914 25.9143C3.92449 26.0666 4.00566 26.0456 3.76673 25.9231C3.94552 26.0034 4.08727 26.0278 4.17837 26.0106C4.26197 26.0374 4.05182 26.0529 4.14964 26.0776C4.35443 26.114 4.19755 26.0367 4.2065 26.0331C4.22452 26.0197 4.26179 26.0356 4.3036 26.0443C4.48053 26.027 4.6425 26.009 4.6255 25.9435C4.82523 25.9083 4.77136 25.9403 5.02428 25.8497C4.98876 25.8521 4.95277 25.8544 4.91647 25.8565C5.19961 25.7153 5.73482 25.6652 5.70272 25.6879C5.63097 25.7664 5.33742 25.824 5.31115 25.8324C5.27314 25.8458 5.22592 25.9994 4.73343 26.0234C4.57444 26.1542 5.45384 25.8678 5.07053 26.0397C5.20511 25.995 5.54163 25.8986 5.79328 25.7757C6.05054 25.6551 6.21818 25.5099 6.24457 25.4596C6.24915 25.4467 6.15865 25.4338 6.30618 25.3325C6.37627 25.2817 6.24139 25.4342 6.27939 25.4178C6.30784 25.406 6.39204 25.3345 6.47984 25.204C6.6061 25.0275 6.78556 24.5641 6.83839 24.1397C6.9012 23.7076 6.83804 23.3501 6.7838 23.2154C6.7563 23.1365 6.73536 23.0771 6.72025 23.035C6.70922 23.004 6.7363 23.007 6.7254 22.9772C6.69261 22.8772 6.53694 22.6047 6.51811 22.5714C6.53868 22.6496 6.50122 22.608 6.47643 22.5827C6.43395 22.5492 6.56143 22.6779 6.67433 22.7C6.74964 22.7209 6.80176 22.7181 6.83258 22.7128C6.75674 22.6972 6.74226 22.673 6.67048 22.6703C6.27347 22.6508 5.63671 22.9126 5.32584 22.9442C5.37336 23.0201 4.81543 23.1141 4.65699 23.2517C4.60368 23.2912 4.55415 23.3471 4.52986 23.3908C4.45749 23.4886 4.44211 23.5443 4.58009 23.4434C4.58435 23.4409 4.58887 23.4382 4.59367 23.4353C4.58983 23.4388 4.58605 23.4422 4.58232 23.4457C4.27201 23.7376 3.97199 24.0552 3.71887 24.3312C3.67628 24.3778 3.71541 24.2952 3.64351 24.3755C3.63726 24.3829 3.64748 24.4119 3.58816 24.4806C3.11556 25.0498 3.31523 24.7422 3.21176 24.8349C3.15731 24.8865 3.12018 24.9263 3.09501 24.9564C3.33502 24.6326 3.69045 24.247 3.78745 24.1463C3.65116 24.19 3.12625 24.8781 2.99925 25.0478C2.99407 25.0539 2.9834 25.0118 2.97845 25.0181C2.97834 25.0183 2.97824 25.0184 2.97814 25.0186C2.91009 25.0911 2.67252 25.5148 2.7618 25.4461C2.78229 25.4303 2.88062 25.2459 3.05944 25.0044C3.01771 25.0727 3.08344 25.0474 3.07632 25.0596C2.98172 25.209 2.75849 25.5071 2.72156 25.5977C2.71103 25.6192 2.73394 25.6271 2.73249 25.6306C2.69509 25.7099 2.64067 25.6584 2.68442 25.7551C2.55411 25.8724 2.77069 25.4791 2.72862 25.4706C2.68082 25.4777 2.51382 25.913 2.58969 25.9831C2.69542 26.4132 2.75142 26.6126 2.78029 26.6097C2.77446 26.6164 2.77053 26.6399 2.77061 26.6831C2.76807 26.7967 2.8881 27.1038 2.92235 27.121C2.92807 27.1264 2.98415 27.0927 2.98881 27.0999C2.99671 27.1285 3.1064 27.3559 3.23354 27.3792C3.18954 27.3394 3.15583 27.3 3.12839 27.2599C3.36602 27.4546 3.37597 27.4 3.27452 27.3258C3.27001 27.3227 3.26701 27.3177 3.26298 27.3147C3.20005 27.2564 3.15615 27.1868 3.15891 27.1818C3.16496 27.1736 3.30259 27.2983 3.46794 27.3758C3.54763 27.4162 3.59457 27.4438 3.53795 27.4444C3.5308 27.4443 3.49404 27.4302 3.45284 27.4118C3.36462 27.3732 3.27475 27.3134 3.34783 27.3891C3.35627 27.3972 3.39449 27.4163 3.44303 27.4353C3.51439 27.4639 3.59922 27.4891 3.60589 27.494C3.64346 27.5215 3.53483 27.5073 3.42388 27.481C3.31172 27.4579 3.21504 27.4222 3.22523 27.4567C3.28151 27.4655 3.33986 27.4904 3.40841 27.5179C3.48281 27.5481 3.5636 27.5795 3.64471 27.5979C3.71971 27.6146 3.74631 27.5866 3.75549 27.5885C3.89411 27.6128 3.8099 27.6279 3.85636 27.6374C3.88269 27.6461 4.16704 27.6122 4.10362 27.7044C5.00177 27.6365 4.36335 27.7028 3.80875 27.5845C3.98721 27.5942 4.32846 27.6425 4.47108 27.6226C4.52211 27.6169 4.49126 27.5858 4.57354 27.5723C4.66508 27.5606 4.94788 27.5165 5.07713 27.4422C5.30096 27.3175 5.58684 27.1127 5.69659 27.0323C5.55193 27.1585 5.61829 27.1542 5.73476 27.0609C5.85081 26.9667 5.72186 27.0057 5.74152 26.9836C5.76456 26.9648 6.32178 26.5282 6.39996 26.4408C6.01441 26.8063 6.12875 26.7569 6.46825 26.4571C6.42748 26.5088 6.38544 26.5608 6.34356 26.612C6.53582 26.4271 6.96986 26.0786 7.05632 25.9565C7.07038 25.9377 6.99042 25.9778 6.99833 25.9672C7.08283 25.8644 7.3879 25.5577 7.38816 25.5355C7.39216 25.5174 7.25764 25.6399 7.29055 25.5802C7.297 25.5684 7.44195 25.4594 7.52827 25.3222C7.56023 25.2715 7.51546 25.2838 7.5228 25.2707C7.5796 25.1636 7.58624 25.2473 7.69085 25.065C7.75315 24.9505 7.7647 24.8453 7.80164 24.75C7.79885 24.7589 7.80521 24.7433 7.81205 24.7263C7.80476 24.7436 7.7974 24.7584 7.79852 24.7489C7.63777 25.0171 7.70674 24.879 7.76101 24.7354C7.75839 24.7433 7.7933 24.6104 7.80548 24.5339C7.81415 24.4788 7.75483 24.5223 7.84776 24.1888C7.79274 24.92 7.9431 23.9997 7.97172 23.789C7.97374 23.7785 8.00921 23.7786 8.02535 23.6819C8.02659 23.6737 8.00171 23.6813 8.0142 23.5898C8.12502 22.7125 8.06937 23.2755 8.11637 23.1117C8.13646 23.043 8.15707 22.6052 8.16826 22.4895C8.17119 22.4622 8.19421 22.4776 8.2045 22.3739C8.22267 22.1892 8.21286 22.022 8.22227 21.8992C8.22333 21.8852 8.26241 21.888 8.27026 21.6555C8.27242 21.5901 8.26498 21.5147 8.24603 21.6072C8.1846 21.9106 8.18871 22.4972 8.10903 22.8344C8.03899 23.1431 8.15257 22.1566 8.1537 22.1039C8.1555 22.085 8.15495 22.2816 8.17857 22.0844C8.19865 21.9161 8.16035 21.6025 8.19435 21.3519C8.19703 21.3333 8.26854 21.1361 8.27108 21.145C8.27308 21.1548 8.26136 21.4644 8.281 21.4212C8.28346 21.4153 8.29829 21.2195 8.31225 21.1941C8.31828 21.1833 8.34098 21.167 8.36814 21.1484C8.41798 21.1153 8.48278 21.0749 8.48698 21.0481C8.50317 20.9419 8.46544 21.0092 8.47224 20.9404C8.48838 20.7929 8.55373 20.2831 8.50252 20.2649C8.4968 20.3491 8.49055 20.4333 8.48379 20.5176C8.49716 20.0482 8.46683 20.2476 8.46001 20.1809C8.45168 20.109 8.49581 20.1306 8.50312 19.9723C8.50723 19.9383 8.49851 19.2734 8.47792 19.2856C8.51084 19.6534 8.45416 19.5172 8.4536 19.5341C8.45017 19.5983 8.48072 19.6803 8.47936 19.7667C8.46546 20.3715 8.42677 19.7609 8.412 19.9035C8.40714 19.9525 8.43135 20.0505 8.42947 20.0714C8.42352 20.1389 8.38913 20.139 8.39065 20.1842C8.39396 20.2892 8.44618 20.1682 8.44842 20.1765C8.47697 20.2717 8.42355 20.6388 8.38029 20.4073C8.35563 20.5438 8.41889 20.563 8.3877 20.6709C8.32518 20.8851 8.35613 20.5609 8.35084 20.4728C8.33252 20.1567 8.36147 20.065 8.3555 19.6176C8.35298 19.4564 8.31944 19.265 8.31638 19.1903C8.31556 19.144 8.41175 18.6911 8.24065 18.6834C8.25114 18.5083 8.35048 18.2281 8.3353 18.0457C8.32165 17.8824 8.26441 17.938 8.26127 17.9228C8.25638 17.8993 8.24928 17.701 8.23644 17.635C8.22134 17.5568 8.20108 17.5976 8.18347 17.4737C8.18071 17.4544 8.17835 17.4361 8.17636 17.419C8.1464 17.1646 8.20034 17.1665 8.20195 17.136C8.22001 16.7606 8.14507 16.9308 8.13179 16.8488C8.12177 16.7725 8.05984 15.6958 8.01183 15.4727C8.03346 15.5628 8.055 15.6543 8.07619 15.7444C8.09822 15.5765 8.01795 15.4082 8.08586 15.398C7.97246 15.3763 8.0097 15.029 7.99512 14.9276C7.98943 14.8876 7.97104 14.8929 7.9645 14.8426C7.93936 14.6469 7.90028 14.2031 7.87686 14.0984C7.7781 13.6448 7.85749 14.8264 7.86075 14.9196C7.84357 14.7334 7.68688 13.6922 7.69482 14.1791C7.69604 14.2539 7.76153 14.3798 7.76847 14.421C7.81523 14.702 7.74435 14.4851 7.74283 14.5078C7.74067 14.5463 7.80525 14.727 7.80576 14.7767C7.80595 14.7933 7.75414 14.6922 7.78386 14.9619C7.73161 14.8336 7.67128 14.0741 7.64798 13.9765C7.63963 13.9417 7.58808 14.1731 7.58057 13.5175C7.57395 13.5261 7.56732 13.5347 7.5607 13.5432C7.50786 13.1847 7.45154 12.8275 7.39137 12.471C7.41518 12.507 7.48234 12.7022 7.43471 12.4506C7.40702 12.306 7.38511 12.4198 7.38184 12.4068C7.36901 12.3552 7.30484 11.9556 7.21692 11.4686C7.08669 10.7368 6.89204 9.79875 6.83033 9.53082C6.79633 9.37916 6.67086 8.96274 6.66268 8.9303C6.61685 8.73793 6.47813 8.04927 6.44057 7.91323C6.41737 7.82803 6.40444 7.91719 6.38779 7.84043C6.37239 7.76935 6.42105 7.83517 6.41735 7.81386C6.38918 7.63704 6.02239 6.32092 5.97076 5.99103C6.01121 6.19067 6.31146 7.13846 6.32798 7.1135C6.33011 7.10898 6.29664 6.86978 6.27289 6.82328C6.28048 6.73768 6.13054 6.48348 6.10939 6.32941C6.10709 6.31234 6.1695 6.36686 6.11138 6.09699C6.09972 6.04264 6.05967 5.9338 6.02591 5.80287C6.00314 5.71448 5.98386 5.61973 5.97554 5.51726C5.94975 5.43284 5.90717 5.26253 5.85497 5.04021C5.82872 4.92763 5.80052 4.80605 5.76936 4.65537C5.75363 4.57698 5.73721 4.49999 5.71836 4.36659C5.71003 4.29569 5.69623 4.22294 5.69785 4.04301C5.7028 3.94757 5.69866 3.82879 5.77523 3.58174C5.83055 3.34688 6.14731 2.8946 6.47481 2.74339C6.91968 2.53444 6.97752 2.58586 7.06746 2.56132C7.14309 2.55227 7.18145 2.54967 7.21847 2.54643C7.28939 2.54059 7.33856 2.53646 7.39012 2.53105C7.48977 2.52066 7.58321 2.50698 7.66736 2.49179C7.83768 2.46094 7.96087 2.42679 7.98803 2.40744C7.98802 2.4053 7.76764 2.43353 7.91009 2.38231C8.1032 2.31099 7.94247 2.44428 8.18088 2.39582C8.21342 2.39478 8.89 2.19252 8.91158 2.17519C9.10254 2.06142 8.50047 2.22373 8.50989 2.21146C8.52392 2.19401 9.01574 2.03448 9.03675 2.02931C9.05967 2.02599 8.67134 2.22395 9.153 2.04073C9.09306 2.05178 9.03554 2.06171 8.97809 2.07132C9.20004 1.98284 9.23893 2.01927 9.29526 2.00359C9.47354 1.95278 9.63537 1.81878 9.94694 1.79913C10.0296 1.79382 9.91564 1.86486 9.92635 1.86465C10.0267 1.86181 10.1103 1.73806 10.2676 1.74629C10.2791 1.74653 9.98001 1.9054 10.5276 1.69118C10.4874 1.70048 10.4476 1.70953 10.4082 1.71833C10.4328 1.70359 10.5138 1.66739 10.6164 1.62287C10.804 1.54147 11.0589 1.43262 11.1088 1.414C11.3317 1.331 11.1579 1.45215 11.3766 1.35419C11.211 1.35894 11.8809 1.06446 11.8635 1.12815C11.9315 1.02773 12.5259 0.823736 12.7976 0.704945C12.9686 0.630501 13.3064 0.449107 13.3619 0.428062C13.4302 0.40218 13.428 0.45222 13.552 0.407991C13.5873 0.395445 13.9309 0.206293 14.2652 0.108479C14.3297 0.0895814 14.4897 0.101793 14.3831 0.169893C14.202 0.285758 13.8103 0.393243 13.8335 0.432088C13.8586 0.473513 14.3404 0.227653 14.4773 0.173979C15.1071 -0.0725723 14.7713 0.131745 14.7931 0.138879C14.8379 0.151483 15.0582 0.0608636 15.1582 0.0206105C15.1868 0.00902581 15.2057 0.00150794 15.2091 0.00078997C15.2383 -0.00469843 15.2107 0.0169007 15.1692 0.0458968C15.1186 0.0825495 15.0426 0.132472 15.0465 0.145107C15.0495 0.159224 15.1313 0.144735 15.2063 0.131592C15.2958 0.114275 15.378 0.0988394 15.3386 0.121186C15.3122 0.136279 15.2713 0.153492 15.2236 0.171733C15.0888 0.222866 14.9091 0.274912 14.8943 0.283171C14.6595 0.418307 15.0251 0.332398 15.1333 0.322387C15.1659 0.319495 15.0594 0.384764 15.0841 0.377289C15.2178 0.336803 15.2633 0.309057 15.2736 0.287094C15.2956 0.245997 15.2071 0.221032 15.371 0.1581C15.5998 0.0718528 15.3265 0.234916 15.3376 0.233501C15.3487 0.230993 15.6184 0.121903 15.6685 0.120325C15.6818 0.119785 15.4706 0.236314 15.2994 0.346705C15.1736 0.428243 15.0675 0.503501 15.0867 0.513741C15.165 0.47579 15.2448 0.437344 15.3225 0.400121C15.4563 0.336289 15.5915 0.274242 15.7287 0.214384C15.7649 0.254449 15.4318 0.349155 15.4019 0.368923C15.3406 0.406542 15.5338 0.352966 15.5322 0.371653C15.5317 0.382761 15.3321 0.507393 15.5314 0.439809C15.5988 0.417697 15.7261 0.323993 15.987 0.266185C15.1506 0.64568 15.754 0.438531 15.7839 0.445305C15.8138 0.452997 15.4297 0.652626 15.9142 0.451938C15.9717 0.537495 15.9139 0.48531 15.783 0.556561C15.6292 0.642578 15.9953 0.522695 15.4631 0.724808C15.4448 0.731919 15.4252 0.739562 15.404 0.747807C15.4138 0.753012 15.4381 0.749996 15.4705 0.742062C15.6192 0.703075 15.9492 0.569339 15.9729 0.564788C15.9968 0.559153 15.895 0.623349 15.9371 0.615387C16.4337 0.525615 16.0989 0.607028 16.254 0.611835C16.2669 0.610287 16.7154 0.485997 16.3821 0.604547C15.9434 0.76745 15.6848 0.848897 15.5573 0.942583C15.512 0.977112 15.4816 1.01567 15.471 1.06241C15.5112 1.05084 15.5531 1.03724 15.5925 1.02372C16.0099 0.876241 16.4412 0.645062 16.5676 0.606605C16.7772 0.540327 16.5683 0.634104 16.5965 0.634174C16.606 0.633249 16.786 0.578125 16.7887 0.580523C16.9443 0.638066 15.993 0.831952 15.7182 0.98478C15.8009 0.96754 15.8823 0.951695 15.9648 0.936304C15.8622 0.9779 15.7586 1.0216 15.6574 1.06577C16.0904 0.915121 15.7906 1.02644 15.6459 1.14704C15.6237 1.16571 15.6047 1.18478 15.5928 1.20296C15.5851 1.21471 15.6278 1.19562 15.6607 1.18124C15.6978 1.16498 15.7247 1.1536 15.6653 1.19192C15.6412 1.20777 15.5983 1.23406 15.5365 1.27197C15.5985 1.24807 15.6451 1.23131 15.6776 1.2204C15.7908 1.18243 15.7844 1.19098 15.9638 1.09707C15.9677 1.11386 15.8451 1.18254 15.6967 1.2645C15.5357 1.35305 15.3396 1.45606 15.231 1.5143C15.5342 1.39708 15.6475 1.33727 15.7099 1.29488C15.8096 1.22921 15.7904 1.19581 16.2067 1.0789C16.3135 0.991359 16.0024 1.11987 16.0255 1.10402C16.1083 1.04338 16.3359 0.996921 16.5704 0.825716C16.6092 0.798034 16.4118 0.811528 16.6838 0.729065C16.7149 0.719218 16.898 0.709176 16.896 0.713308C16.8811 0.748098 16.7087 0.785144 16.7046 0.800395C16.7022 0.813022 16.8889 0.752373 16.8901 0.756407C16.9064 0.791221 16.7364 0.814263 16.7639 0.819261C16.8255 0.827564 17.5072 0.729075 16.6343 0.947373C17.3462 0.699909 16.7154 0.86633 16.4362 0.986478C16.366 1.01561 16.355 1.04368 16.2558 1.08914C16.1279 1.14782 15.9708 1.1996 15.9043 1.2319C15.8361 1.26551 16.2314 1.15349 15.7346 1.35205C15.713 1.36091 15.6894 1.37057 15.6633 1.38117C15.6877 1.37486 15.7126 1.36766 15.7379 1.35979C16.0613 1.25637 16.5277 1.02975 16.8138 0.986536C17.4242 0.897937 16.4287 1.19001 16.3241 1.25683C16.297 1.26907 16.4012 1.26341 16.3833 1.27209C16.3595 1.28146 15.9707 1.42308 15.8029 1.50972C15.7653 1.52857 15.7377 1.54425 15.7288 1.55325C15.7055 1.57666 15.7546 1.55561 15.8119 1.53067C15.8762 1.5026 15.9525 1.46977 15.9675 1.47874C15.9734 1.48264 15.9068 1.51828 15.8254 1.56188C15.6545 1.65314 15.4215 1.77465 15.6845 1.66832C15.7312 1.64954 15.7864 1.62434 15.8411 1.59816C16.0935 1.47556 16.4113 1.31553 16.4978 1.3538C16.2831 1.43458 16.0682 1.52514 15.8518 1.62282C15.6906 1.69557 15.5272 1.77043 15.3639 1.84561C15.5375 1.7937 15.7111 1.74214 15.8821 1.69287C15.9332 1.67823 15.9812 1.66524 16.0319 1.65139C15.9835 1.67284 15.9386 1.69256 15.891 1.71329C15.5189 1.87578 15.1671 2.00886 14.8126 2.2076C15.856 1.84731 14.5172 2.42178 14.5068 2.43922C14.5045 2.44781 14.9318 2.34172 15.0014 2.32615C14.6641 2.50912 13.5978 2.99833 14.2634 2.8068C14.1413 2.83763 13.8863 3.00844 13.8917 3.01039C13.9443 3.03328 14.5338 2.74171 14.4514 2.81974C14.356 2.91028 14.1722 2.92667 13.9993 3.00845C13.1082 3.42803 13.4462 3.52147 12.5145 3.88281C12.536 3.88215 12.5571 3.88165 12.5785 3.88104C12.279 4.00431 11.976 4.12688 11.6673 4.24661C10.9384 4.52833 10.194 4.79336 9.40351 5.01388C9.21319 5.10007 8.86972 5.22223 8.46388 5.32379C8.25963 5.37479 8.04315 5.4195 7.82229 5.45233C7.71424 5.46859 7.60342 5.48164 7.51806 5.49084C7.47674 5.4953 7.4393 5.49958 7.44253 5.49972C7.46327 5.48265 7.44375 5.55378 7.88556 5.35042C8.20136 5.20359 8.51903 4.76965 8.57907 4.54479C8.65935 4.30885 8.65588 4.20356 8.66188 4.12814C8.66531 3.99201 8.65676 3.97249 8.65556 3.95481C8.62875 3.8502 8.72631 4.43088 8.72898 4.45851C8.73461 4.53194 8.63615 4.14573 8.65685 4.32508C8.65885 4.35088 8.78484 4.90019 8.85 5.10585C8.86721 5.15953 8.88042 5.18936 8.88485 5.17364C8.88112 5.1552 8.8749 5.13003 8.86741 5.10155C8.8328 4.96971 8.76878 4.75789 8.7655 4.71467C8.75741 4.60102 8.81105 4.78126 8.89216 5.09544C9.07137 5.78066 9.38306 7.13672 9.42064 7.22826C9.41786 7.16384 9.41499 7.09923 9.4123 7.03565C9.44813 7.21141 9.48377 7.38824 9.51891 7.56507ZM10.5347 1.52821C10.5439 1.51996 10.5553 1.51174 10.5686 1.50352C10.6689 1.44049 10.8781 1.37785 10.9998 1.31699C11.1889 1.22274 11.4653 0.947731 11.3789 1.14202C11.1079 1.26894 10.8374 1.39354 10.5719 1.51173C10.5594 1.51725 10.547 1.52274 10.5347 1.52821ZM5.71374 4.88905C5.67907 4.64987 5.80067 4.82039 5.811 5.00546C5.81185 5.02464 5.75918 5.19531 5.71374 4.88905ZM8.39698 2.24697C8.39071 2.2501 8.23066 2.28991 8.22664 2.2893C8.0792 2.29437 8.55136 2.17675 8.39698 2.24697ZM7.56929 13.1639C7.5324 12.9367 7.48403 13.1123 7.53436 13.2492C7.53755 13.2578 7.57166 13.1788 7.56929 13.1639ZM7.54742 13.0018C7.58656 12.815 7.399 12.4805 7.4561 12.7606C7.46179 12.7877 7.54556 13.0103 7.54742 13.0018ZM7.18916 2.46738C7.1813 2.47588 7.15595 2.48211 7.09334 2.49121C7.06106 2.49614 7.01771 2.50122 6.93974 2.51537C6.85415 2.53674 6.743 2.53579 6.44404 2.68653C6.15351 2.82428 5.83907 3.20517 5.75424 3.4499C5.65382 3.70053 5.64662 3.84359 5.63581 3.94196C5.6223 4.13715 5.6333 4.2053 5.63629 4.26622C5.63042 4.26051 5.61947 4.22403 5.61607 4.08241C5.61764 4.00701 5.60907 3.90813 5.66292 3.67266C5.69206 3.55762 5.7431 3.38721 5.87608 3.18313C6.00571 2.97788 6.2372 2.77253 6.43541 2.67059C6.90417 2.45067 6.96681 2.50577 7.05599 2.48107C7.12963 2.47273 7.16452 2.47051 7.18916 2.46738ZM6.87024 9.56393C6.89256 9.56909 6.72824 8.83203 6.69043 8.78781C6.72846 8.90157 6.85173 9.55957 6.87024 9.56393ZM7.2754 11.444C7.27558 11.4249 7.22344 11.1722 7.20745 11.1828C7.20803 11.2811 7.24777 11.4332 7.26614 11.4597C7.26999 11.4652 7.27292 11.4653 7.27438 11.4582C7.27504 11.455 7.2754 11.4503 7.2754 11.444ZM7.81452 15.2175C7.8202 15.2311 7.91121 15.0261 7.88613 15.4916C7.88241 15.5599 7.82852 15.3228 7.82698 15.3473C7.82445 15.3978 7.82497 15.4379 7.8276 15.4697C7.7965 15.2578 7.76763 15.0372 7.77194 15.015C7.79258 14.9111 7.81226 15.2119 7.81452 15.2175ZM8.07746 17.2096C8.08931 17.2329 8.09788 17.3318 8.10217 17.424C8.10573 17.4992 8.10651 17.5688 8.10506 17.5979C8.10433 17.6088 8.05367 17.5646 8.06521 17.6902C8.07436 17.7904 8.11408 17.637 8.11818 17.8344C8.12196 18.0335 8.07161 17.7703 8.07005 17.7877C8.06847 17.8109 8.10771 18.117 8.07849 18.1086C8.05736 18.1027 8.05304 17.7738 8.04305 17.6922C8.03068 17.5884 8.00378 17.7169 7.99996 17.542C7.99738 17.4321 8.06306 17.4886 8.06463 17.4652C8.06483 17.4618 8.06317 17.4475 8.06062 17.4269C8.04872 17.3297 8.01584 17.0886 8.07731 17.2102C8.07736 17.21 8.07741 17.2098 8.07746 17.2096ZM7.83624 15.527C7.83252 15.5112 7.82949 15.4925 7.8276 15.4697C7.83043 15.489 7.83338 15.5081 7.83624 15.527ZM9.99376 1.76701C9.88856 1.78625 10.1711 1.6539 10.2941 1.63227C10.3009 1.65164 10.0131 1.76337 9.99376 1.76701ZM7.90617 15.7195C7.92151 16.038 7.87837 15.8066 7.83624 15.527C7.85684 15.6145 7.9008 15.613 7.90617 15.7195ZM6.27289 6.82328C6.27168 6.83764 6.26678 6.84782 6.25558 6.8517C6.25952 6.81365 6.2655 6.80895 6.27289 6.82328ZM6.43067 7.56035C6.52558 7.80129 6.40219 7.29456 6.37741 7.30255C6.36849 7.30673 6.42679 7.55006 6.43067 7.56035ZM7.60749 13.4563C7.60762 13.4326 7.76562 13.7755 7.61167 13.2675C7.63844 13.5466 7.58518 13.2556 7.57632 13.2615C7.55136 13.2767 7.6422 13.7379 7.64361 13.8428C7.70299 13.9172 7.60704 13.5339 7.60757 13.4569C7.60754 13.4567 7.60752 13.4565 7.60749 13.4563ZM8.11773 20.7365C8.09272 20.6736 8.11171 20.4803 8.11802 20.3497C8.14457 20.4118 8.12699 20.6054 8.11773 20.7365ZM4.46338 24.5777C4.32572 24.6807 4.21292 24.7924 4.18262 24.7955C4.15059 24.8062 4.21275 24.6845 4.37232 24.5878C4.37933 24.582 4.47595 24.5549 4.46338 24.5777ZM5.92519 25.4315C5.99623 25.4436 5.86467 25.5486 5.73965 25.5893C5.71199 25.599 5.59432 25.6007 5.69667 25.537C5.72235 25.5946 5.89725 25.5238 5.92519 25.4315ZM7.95601 15.8955C7.9988 15.9849 8.00089 16.2707 8.00861 16.4214C7.97308 16.3323 7.95836 16.0291 7.95601 15.8955ZM3.77913 25.8391C3.78114 25.8679 3.82877 25.8706 3.831 25.8656C3.84209 25.846 3.79812 25.8041 3.77913 25.8391ZM7.86618 14.9785C7.88509 14.9627 7.94551 15.3375 7.89805 15.3685C7.8935 15.2881 7.85471 14.9888 7.86618 14.9785ZM8.1453 20.4901C8.15834 20.4342 8.1631 20.7268 8.14701 20.8148C8.12633 20.8063 8.13749 20.5266 8.1453 20.4901ZM3.86773 26.0062C3.91059 26.0257 4.00779 26.0491 4.01966 26.0321C4.03772 26.0145 3.89936 25.9901 3.86773 26.0062ZM4.0585 24.6835C4.06151 24.6868 4.0309 24.6952 4.11681 24.92C4.16201 25.0293 4.2822 25.2339 4.49854 25.3868C4.71341 25.5413 4.9351 25.5881 5.05371 25.6001C4.99612 25.6021 4.94163 25.6022 4.90431 25.5957C4.78488 25.576 4.90945 25.5611 5.05669 25.563C4.94651 25.5526 4.74795 25.515 4.54322 25.3805C4.33714 25.248 4.20325 25.0535 4.14924 24.9419C4.04429 24.7118 4.06715 24.6929 4.0585 24.6835ZM3.77675 25.4677C3.85517 25.3365 3.77297 25.4844 3.81897 25.4874C3.83534 25.3994 3.94039 25.1497 3.8324 25.3051C3.81147 25.336 3.78926 25.4249 3.77675 25.4677ZM3.73862 25.5896C3.75008 25.6074 3.78811 25.6945 3.7915 25.6217C3.79332 25.5886 3.754 25.5184 3.73862 25.5896ZM4.45505 25.5917C4.46047 25.5568 4.38514 25.6124 4.49362 25.5397C4.37254 25.6026 4.48128 25.5605 4.48104 25.5697C4.48772 25.5722 4.49261 25.5748 4.49555 25.5773C4.50366 25.5618 4.61925 25.548 4.63934 25.5795C4.59699 25.5784 4.51105 25.5912 4.5058 25.5893C4.50209 25.5883 4.49933 25.5874 4.49738 25.5863C4.48927 25.5945 4.38197 25.644 4.51402 25.573C4.43923 25.6163 4.45377 25.602 4.45505 25.5917ZM4.00003 25.0906C3.99689 25.1271 4.02017 25.1094 4.04359 25.0941C4.11178 25.1164 4.12306 25.1089 4.09456 25.0895C4.08248 25.0815 4.07048 25.074 4.0586 25.0669C4.0082 25.0018 4.02563 25.0885 4.01901 25.0887C4.01196 25.0914 4.00515 25.0546 4.00008 25.0906C4.00006 25.0906 4.00005 25.0906 4.00003 25.0906ZM4.51681 25.4313C4.51606 25.4461 4.46348 25.5638 4.46444 25.5573C4.46014 25.5908 4.48564 25.5745 4.51412 25.5103C4.54223 25.4461 4.54717 25.3619 4.51681 25.4313ZM8.22926 18.7039C8.22503 18.8723 8.18369 18.7085 8.19236 18.5964C8.19323 18.5871 8.23259 18.555 8.22926 18.7039ZM3.74197 25.6517C3.72659 25.6759 3.72815 25.9085 3.78096 25.9444C3.79963 25.9734 3.81331 25.9831 3.82071 25.973C3.81762 25.9684 3.81133 25.9559 3.80219 25.935C3.75969 25.8957 3.77896 25.5763 3.74197 25.6517ZM6.5972 24.4508C6.56306 24.5769 6.5511 24.4267 6.58452 24.364C6.59725 24.3405 6.60579 24.4186 6.5972 24.4508ZM7.85377 14.4666C7.80312 14.2851 7.90215 14.3116 7.88931 14.4762C7.88881 14.4827 7.85575 14.4738 7.85377 14.4666ZM6.21153 25.2298C6.25842 25.1603 6.29185 25.1189 6.31768 25.102C6.34111 25.0878 6.35717 25.097 6.35729 25.1269C6.35429 25.1779 6.30886 25.2916 6.14879 25.4054C6.15403 25.3908 6.15892 25.3762 6.16338 25.3618C5.74564 25.6685 6.15025 25.3803 6.20731 25.2869C6.23349 25.2524 6.18932 25.2613 6.2112 25.2299C6.21131 25.2298 6.21142 25.2298 6.21153 25.2298ZM6.69475 23.7894C6.81135 23.3906 6.74146 24.1595 6.66754 24.4108C6.67529 24.1694 6.71755 23.8839 6.60608 24.2713C6.68447 23.6956 6.68243 23.9421 6.69512 23.9178C6.70178 23.891 6.6898 23.8057 6.69475 23.7894ZM6.45939 24.8746C6.45409 24.8995 6.36159 25.0384 6.34197 25.075C6.3408 25.0128 6.49753 24.7252 6.45939 24.8746ZM4.95576 24.6612C4.95904 24.6944 4.94694 24.7315 4.8128 24.7835C4.84711 24.7503 4.9186 24.6985 4.95576 24.6612ZM10.7759 1.60727C10.9062 1.55703 11.1686 1.46046 11.077 1.46319C11.0678 1.46432 10.7685 1.59086 10.7759 1.60727ZM4.20227 26.1249C4.20764 26.1266 4.26865 26.1237 4.31945 26.1079C4.49732 26.061 4.63856 26.0165 4.49954 26.033C4.47615 26.0358 4.40182 26.0527 4.31128 26.0751C4.24489 26.0937 4.13924 26.1031 4.20227 26.1249ZM3.88677 25.0997C3.86648 25.1347 3.81079 25.2823 3.81832 25.2875C3.83618 25.3061 3.89757 25.1264 3.88677 25.0997ZM11.4437 1.36387C11.4616 1.36015 11.8593 1.18361 11.8092 1.1885C11.7145 1.19858 11.3805 1.37881 11.4437 1.36387ZM8.31635 19.3127C8.31791 19.3479 8.28457 19.3943 8.28428 19.4066C8.28624 19.4356 8.29362 20.074 8.25266 19.8296C8.25045 19.7905 8.25758 18.8686 8.25331 18.7453C8.29849 18.6967 8.26607 19.096 8.27153 19.1914C8.27269 19.2085 8.31174 19.2181 8.31615 19.3124C8.31621 19.3125 8.31628 19.3126 8.31635 19.3127ZM4.19514 25.0118C4.18693 25.0262 4.09317 25.0666 3.93645 25.1289C3.97763 25.1261 3.98848 25.1317 3.99073 25.1083C3.98468 25.104 3.95888 25.1007 3.92906 25.1084C4.03006 25.0705 4.11543 25.0405 4.19514 25.0118ZM4.53272 24.8969C4.66823 24.8675 4.37205 24.9879 4.25628 25.0157C4.2539 24.9963 4.51773 24.9009 4.53272 24.8969ZM3.61495 25.8212C3.62541 25.8501 3.65825 25.7528 3.66893 25.7733C3.67436 25.7867 3.66686 25.852 3.68465 25.8665C3.68936 25.8704 3.71846 25.806 3.71581 25.7882C3.71121 25.7623 3.68152 25.7909 3.67925 25.7606C3.67298 25.6567 3.7088 25.5438 3.74424 25.4127C3.7474 25.4005 3.70042 25.4881 3.7289 25.3852C3.73388 25.369 3.79243 25.2825 3.84615 25.1546C3.86031 25.0239 3.91459 24.9154 3.9811 24.8266C4.09397 24.6766 4.22305 24.5721 4.3512 24.4577C4.33785 24.4472 4.13563 24.5867 4.12196 24.6082C4.072 24.6559 4.01317 24.7211 3.95048 24.8047C3.74152 25.0659 3.6003 25.5087 3.61066 25.6976C3.61046 25.7625 3.63255 25.7303 3.63413 25.7567C3.6362 25.7764 3.59261 25.7568 3.61495 25.8212ZM10.7155 1.6559C10.7924 1.66875 10.9994 1.55646 11.139 1.50033C11.0761 1.4871 10.8533 1.61022 10.7155 1.6559ZM5.38524 23.967C5.36272 23.9549 5.53081 24.1367 5.57168 24.1635C5.58359 24.182 5.47743 24.1172 5.42719 24.0558C5.37381 23.9931 5.37412 23.9732 5.38524 23.967ZM8.07053 22.9419C8.07073 22.9503 8.04557 23.1249 8.04315 23.1322C7.99015 23.2855 8.06617 22.7571 8.07053 22.9419ZM6.65253 26.1458C6.56604 26.2374 6.48059 26.3343 6.42679 26.3392C6.49041 26.2882 6.64752 26.1193 6.65253 26.1458ZM3.13699 27.1724C3.10938 27.2116 3.04191 27.0689 3.03089 27.0277C3.05484 27.0412 3.15539 27.1525 3.13699 27.1724ZM5.0398 24.7687C4.89474 24.8476 4.95141 24.8891 4.83219 24.9135C4.81006 24.9172 4.70497 24.82 4.90094 24.7802C4.93397 24.7723 4.83647 24.8642 5.0398 24.7687ZM6.09307 25.4518C6.08415 25.4971 5.98309 25.5627 5.90619 25.6061C5.91429 25.5783 6.05511 25.4888 6.09307 25.4518ZM12.1785 1.08315C12.305 1.07232 12.8045 0.820039 12.6672 0.851348C12.6478 0.85628 12.2506 1.05364 12.1785 1.08315ZM8.14334 16.5274C8.19387 16.7506 8.16441 16.2813 8.11959 16.1366C8.12797 16.2035 8.14014 16.5119 8.14334 16.5274ZM3.75097 27.515C3.74261 27.5155 3.58802 27.4656 3.58285 27.4608C3.46793 27.3914 3.90029 27.5294 3.75097 27.515ZM7.51128 25.2468C7.50119 25.3166 7.18062 25.6815 7.07986 25.747C7.13684 25.6406 7.54339 25.1577 7.51128 25.2468ZM5.38331 24.4403C5.35469 24.4898 5.3087 24.5328 5.2473 24.574C5.25331 24.5452 5.37177 24.4374 5.38331 24.4403ZM3.27452 27.3258C3.27001 27.3227 3.26701 27.3177 3.26298 27.3147C3.26682 27.3184 3.27063 27.3222 3.27452 27.3258ZM4.66666 24.26C4.57031 24.282 4.6062 24.3138 4.61078 24.313C4.67668 24.3031 4.78409 24.2354 4.66666 24.26ZM10.8969 1.64659C10.9586 1.66076 11.1836 1.53726 11.3223 1.48801C11.2715 1.47852 11.0037 1.59908 10.8969 1.64659ZM6.73984 23.3957C6.7639 23.2698 6.87395 23.7341 6.8259 23.8696C6.81313 23.8643 6.74907 23.3922 6.73984 23.3957ZM8.13398 15.8207C8.16101 15.8024 8.09435 15.4806 8.08787 15.5511C8.08398 15.5961 8.11736 15.8313 8.13398 15.8207ZM6.78061 24.1518C6.78186 24.2072 6.72991 24.3275 6.72162 24.2801C6.71127 24.2203 6.78028 24.1379 6.78061 24.1518ZM3.7415 26.1884C3.76326 26.2052 3.66326 26.1086 3.72669 26.1123C3.77679 26.1185 3.75106 26.1539 3.75578 26.1572C3.79139 26.1966 3.75123 26.0636 3.7415 26.1884ZM5.10436 23.157C5.20456 23.0944 5.34767 23.0473 5.47277 23.0016C5.42429 23.0345 5.1558 23.1535 5.10436 23.157ZM8.24908 17.0751C8.25984 17.0351 8.17643 15.9651 8.19259 16.5754C8.19436 16.6113 8.22371 17.197 8.24908 17.0751ZM5.0398 24.7687C5.05751 24.7586 5.07779 24.7479 5.10097 24.7363C5.07886 24.7492 5.0582 24.7595 5.0398 24.7687ZM5.4629 23.9591C5.46272 23.9224 5.51408 24.0204 5.66313 24.1132C5.66523 24.1155 5.66413 24.1164 5.66261 24.1177C5.65832 24.1241 5.65965 24.1302 5.65353 24.1299C5.52866 24.0682 5.45403 23.9514 5.4629 23.9591ZM5.47257 22.971C5.54119 22.9333 5.68152 22.9015 5.77635 22.8743C5.76413 22.8956 5.50909 22.9763 5.47257 22.971ZM2.88543 26.9083C2.85587 26.7944 2.8073 26.6068 2.78351 26.6072C2.78635 26.6031 2.7884 26.5945 2.78936 26.5808C2.7901 26.5691 2.7415 26.3897 2.73071 26.2924C2.69942 25.9992 2.80933 26.5846 2.87722 26.8229C2.91309 26.9538 2.94357 27.0321 2.93939 27.0482C2.936 27.0574 2.89303 27.0381 2.80062 26.7817C2.82865 26.8285 2.85701 26.8709 2.88543 26.9083ZM7.82503 24.8169C7.83738 24.8058 7.848 24.7876 7.85512 24.7692C7.86 24.7649 7.88242 24.5889 7.85961 24.6433C7.85222 24.6594 7.81979 24.7656 7.82329 24.7578C7.81121 24.7973 7.79923 24.84 7.82503 24.8169ZM5.29623 27.4282C5.32104 27.4193 5.52866 27.2469 5.5251 27.2295C5.38772 27.3129 5.17835 27.4785 5.29623 27.4282ZM8.00695 24.2111C8.02375 24.1473 7.99332 24.0567 7.98995 24.0639C7.96144 24.128 7.96104 24.3121 8.00695 24.2111ZM5.35645 24.6923C5.41071 24.6649 5.47595 24.5305 5.45869 24.4938C5.46623 24.4927 5.48005 24.4855 5.49986 24.4681C5.49982 24.4682 5.49979 24.4682 5.49975 24.4683C5.50337 24.465 5.51591 24.446 5.53087 24.4141C5.61576 24.2608 5.62019 24.0156 5.63209 24.1683C5.56129 23.9321 5.54048 23.9014 5.53296 23.8977C5.52969 23.9152 5.5068 23.8349 5.59702 24.179C5.5883 24.158 5.58288 24.1375 5.57989 24.1274C5.57734 24.1265 5.60608 24.1067 5.59936 24.1328C5.59864 24.1358 5.57653 24.1337 5.57372 24.1449C5.57171 24.1553 5.54392 24.259 5.48608 24.3955C5.47002 24.4347 5.45379 24.4668 5.45138 24.4834C5.44765 24.4815 5.44294 24.4817 5.43688 24.4845C5.39619 24.5033 5.32794 24.7083 5.35645 24.6923ZM4.99238 27.6048C5.02604 27.6021 5.10266 27.5565 5.09833 27.5353C5.06491 27.5466 4.91994 27.6117 4.99238 27.6048ZM8.32733 17.036C8.33447 16.9108 8.27897 16.6015 8.27051 16.697C8.26573 16.7553 8.31955 17.1796 8.32733 17.036ZM6.2502 26.6766C5.7303 27.0866 6.13107 26.7808 6.07234 26.8685C6.13269 26.8048 6.19216 26.7407 6.2502 26.6766ZM4.34534 25.7242C4.33843 25.718 4.28279 25.7555 4.30973 25.6835C4.31865 25.664 4.34814 25.7253 4.34534 25.7242ZM4.17229 24.9181C4.24207 24.9485 3.99699 25.0003 4.08091 24.9362C4.08759 24.9337 4.17197 24.9172 4.17229 24.9181ZM4.33975 25.3839C4.33829 25.4268 4.31524 25.4505 4.29768 25.4576C4.3249 25.4193 4.25246 25.438 4.33975 25.3839ZM2.78029 26.6097C2.78141 26.6084 2.78222 26.6073 2.78351 26.6072C2.78253 26.6086 2.78147 26.6093 2.78029 26.6097ZM8.10639 23.5808C8.14889 23.4994 8.181 23.2602 8.14168 23.3272C8.13832 23.3331 8.09078 23.5424 8.10639 23.5808ZM5.45869 24.4938C5.45194 24.4947 5.45031 24.491 5.45138 24.4834C5.45488 24.4851 5.45707 24.4886 5.45869 24.4938ZM7.8951 24.7673C7.89016 24.7626 7.87811 24.7837 7.87607 24.7768C7.85167 24.8189 7.7947 24.929 7.79206 24.9364C7.76067 25.0665 7.86767 24.8649 7.89118 24.7822C7.88932 24.7867 7.89255 24.7764 7.8951 24.7673ZM8.11562 14.5386C8.11106 14.5195 8.07009 14.6511 8.10082 14.7254C8.12471 14.783 8.13288 14.6098 8.11562 14.5386ZM4.5252 25.3216C4.59494 25.3131 4.71838 25.3099 4.74184 25.3369C4.67894 25.3316 4.52262 25.3403 4.5252 25.3216ZM4.24028 24.9263C4.24652 24.9061 4.24564 24.8856 4.19148 24.9398C4.19651 24.93 4.20969 24.9128 4.22129 24.8939C4.24329 24.9029 4.22505 24.9432 4.21108 24.9567C4.26172 24.9018 4.24994 24.9184 4.24028 24.9263ZM5.20419 24.7932C5.21411 24.7914 5.35342 24.6963 5.31567 24.6898C5.2713 24.6788 5.15608 24.8092 5.20419 24.7932ZM8.15209 15.1227C8.18553 15.2543 8.21047 14.9402 8.1491 14.8037C8.11799 14.7339 8.14677 15.1006 8.15209 15.1227ZM8.24799 22.8343C8.25363 22.6582 8.17203 23.0848 8.19188 23.1472C8.2051 23.0679 8.24611 22.897 8.24799 22.8343ZM5.70287 27.2277C6.16595 26.9729 5.84617 27.0287 5.78335 27.0958C5.77364 27.1061 5.69244 27.2334 5.70287 27.2277ZM13.5327 0.668047C13.6016 0.624721 13.3101 0.708396 13.2858 0.749373C13.2708 0.774976 13.4881 0.695974 13.5327 0.668047ZM3.09501 24.9564C3.08283 24.9727 3.07098 24.9887 3.05944 25.0044C3.06715 24.9919 3.07847 24.9762 3.09501 24.9564ZM8.51475 21.2584C8.36703 21.6396 8.45955 21.605 8.45646 21.6393C8.449 21.7122 8.40223 21.8788 8.39406 22.0171C8.39608 21.858 8.39688 21.7004 8.39688 21.5406C8.38236 21.6662 8.22861 22.7376 8.24073 22.76C8.26417 22.796 8.2949 22.4573 8.2979 22.4476C8.30284 22.4341 8.38375 22.3897 8.38999 22.3582C8.40293 22.3078 8.48799 21.4034 8.51475 21.2584ZM6.53384 26.515C6.46585 26.5651 6.42786 26.5587 6.40355 26.5902C6.39526 26.6009 6.41271 26.6237 6.38364 26.6594C6.43398 26.6118 6.48447 26.5633 6.53384 26.515ZM8.45204 20.5628C8.49279 20.4562 8.45399 20.9408 8.44775 20.9564C8.41916 21.0377 8.42041 20.6495 8.45204 20.5628ZM7.95471 24.6433C7.96095 24.6357 8.04611 24.2946 8.0254 24.2922C7.99386 24.3923 7.8871 24.8119 7.95471 24.6433ZM6.34265 26.6981C6.24602 26.7794 6.04344 26.9112 6.09198 26.9264C6.09212 26.9263 6.09227 26.9262 6.09241 26.9261C6.17742 26.8508 6.26025 26.7753 6.34265 26.6981ZM8.29051 15.5718C8.33328 15.316 8.25944 15.4423 8.25948 15.6653C8.2967 15.7289 8.28359 15.614 8.29051 15.5718ZM8.25547 14.7692C8.26096 14.6983 8.16 13.987 8.13705 14.1005C8.12946 14.1403 8.21197 14.5466 8.21133 14.5656C8.211 14.5947 8.15582 14.4684 8.18937 14.6864C8.20142 14.6721 8.25412 14.7933 8.25547 14.7692ZM8.31301 15.3609C8.33884 15.1081 8.23685 15.0622 8.25667 15.2488C8.26424 15.3215 8.3092 15.3971 8.31301 15.3609ZM8.40158 16.3744C8.40301 16.2842 8.395 16.0456 8.34741 15.8845C8.36557 16.104 8.38248 16.3235 8.39812 16.543C8.41831 16.5669 8.40036 16.4528 8.40153 16.3738C8.40154 16.374 8.40156 16.3742 8.40158 16.3744ZM4.41045 25.5851C4.39679 25.5843 4.38817 25.599 4.38176 25.5774C4.37467 25.5571 4.38101 25.4688 4.38555 25.4616C4.41018 25.4258 4.41812 25.6016 4.41045 25.5851ZM15.3258 0.8283C15.3725 0.818025 15.4164 0.828858 15.4921 0.79177C15.5055 0.785218 15.5199 0.777286 15.5355 0.767663C15.5191 0.770952 15.5026 0.77432 15.486 0.777766C15.379 0.799058 15.2691 0.822048 15.1618 0.844157C15.0973 0.938587 15.2636 0.842315 15.3258 0.8283ZM15.8484 0.846281C15.8328 0.854458 15.9558 0.903724 15.7245 0.932406C15.5651 0.9496 16.3226 0.601326 16.4809 0.603568C16.3296 0.670924 15.9822 0.777489 15.8484 0.846281ZM17.2929 0.821665C17.3033 0.824737 17.0325 0.889819 16.9976 0.895954C16.8207 0.910692 17.2451 0.781955 17.2929 0.821665ZM16.3949 1.04924C16.5339 1.01892 16.2439 1.13435 16.1528 1.16016C16.1379 1.14667 16.3736 1.05307 16.3949 1.04924ZM5.56994 25.7948C5.74268 25.6344 5.69665 25.4014 5.57154 25.7049C5.56532 25.719 5.56266 25.8009 5.56994 25.7948ZM17.0467 0.967071C16.9134 0.980913 17.197 0.899213 17.2788 0.899432C17.2903 0.913154 17.0678 0.962782 17.0467 0.967071ZM5.78095 25.7314C5.95904 25.4682 5.76387 25.5095 5.74718 25.5398C5.69563 25.6256 5.59136 25.8683 5.46647 26.0383C5.39001 26.1425 5.32002 26.2108 5.29082 26.2406C5.3665 26.1776 5.43013 26.1133 5.4822 26.0519C5.79685 25.6251 5.6925 25.8326 5.78095 25.7314ZM5.92121 24.3985C5.87687 24.1936 5.91099 24.4323 5.90992 24.5617C5.91727 24.7041 5.91017 24.8735 5.92216 24.9342C5.9308 24.8513 5.94247 24.6877 5.93547 24.5601C5.93345 24.5027 5.92782 24.4329 5.92121 24.3985ZM4.21333 23.6451C4.08706 23.6463 3.64307 23.7667 3.56926 23.8504C3.74727 23.7372 4.16576 23.671 4.21333 23.6451ZM3.87954 23.6439C3.62955 23.6908 3.60749 23.8036 3.86907 23.6826C3.87898 23.6785 3.88859 23.6432 3.87954 23.6439ZM2.72805 24.4728C2.59284 24.6215 2.59418 24.8682 2.72785 24.5866C2.77137 24.5082 2.74267 24.4584 2.72805 24.4728ZM6.08564 25.4244C6.17027 25.1961 6.16157 24.8933 6.04173 25.3731C6.08172 25.2024 6.1012 25.0311 6.1027 24.8622C5.99111 25.4798 6.03139 25.455 5.96887 25.6345C5.8501 25.8794 5.78469 25.8167 5.79157 25.7608C5.77064 25.8319 5.70315 25.9741 5.57619 26.1329C5.24714 26.5301 4.78564 26.679 4.51045 26.7619C4.78151 26.694 5.22014 26.6095 5.63161 26.1806C5.75089 26.0514 5.84161 25.918 5.90721 25.8014C5.97505 25.6812 6.00505 25.5519 6.04227 25.4459C6.09929 25.2743 6.08095 25.4364 6.08536 25.4253C6.08546 25.425 6.08555 25.4247 6.08564 25.4244ZM2.57517 26.2933C2.69645 26.6636 2.88577 26.7571 2.79755 26.6583C2.72536 26.5661 2.6094 26.3181 2.56823 26.1585C2.5619 26.1429 2.56714 26.273 2.57517 26.2933ZM17.4328 1.18079C17.113 1.20026 17.3494 1.06558 16.6187 1.37409C16.922 1.21593 16.624 1.33005 16.6797 1.28841C16.7253 1.25406 16.9167 1.21152 16.7977 1.21058C16.9645 1.18645 17.536 1.06895 17.539 1.09381C17.5388 1.09382 17.5386 1.09383 17.5384 1.09384C17.5512 1.0975 17.5243 1.18308 17.4328 1.18079ZM4.17493 23.4063C4.00335 23.3249 3.99552 23.4883 3.63513 23.5191C3.42836 23.6846 3.76476 23.513 4.09695 23.4577C4.43394 23.3924 4.78308 23.3949 4.85625 23.4529C4.17097 23.458 4.39637 23.4884 4.67847 23.4831C4.95216 23.488 5.26869 23.4953 4.8067 23.3945C5.10761 23.4233 5.20315 23.4395 5.22749 23.4325C5.25289 23.4321 5.24867 23.428 5.22835 23.4218C5.20708 23.404 5.12151 23.3735 5.1779 23.367C5.19263 23.3653 5.21141 23.3647 5.23292 23.3648C5.35861 23.3725 5.60974 23.4082 5.85085 23.6105C6.09053 23.8148 6.1688 24.057 6.20244 24.1791C6.26226 24.4334 6.25307 24.4858 6.27516 24.4807C6.27514 24.4804 6.27512 24.4801 6.2751 24.4798C6.2609 24.3821 6.27537 24.2488 6.14605 23.9549C6.08041 23.8115 5.93511 23.6173 5.74162 23.5003C5.54932 23.3811 5.36606 23.3471 5.23517 23.3368C5.13243 23.3297 5.02808 23.3248 4.92159 23.3228C5.17808 23.4226 4.64422 23.3715 4.42707 23.3225C4.34434 23.3472 4.26043 23.3747 4.17493 23.4063ZM6.13837 24.5038C6.1336 24.4876 6.14841 24.423 6.08064 24.1714C6.0452 24.0507 5.94682 23.8243 5.73302 23.6677C5.52118 23.5129 5.32644 23.4921 5.22327 23.4852C5.17433 23.485 5.14478 23.4874 5.15362 23.4926C5.16393 23.4949 5.18859 23.4978 5.22199 23.5011C5.3198 23.5112 5.49124 23.5308 5.68988 23.666C5.89134 23.8014 6.00658 24.0234 6.04594 24.1515C6.12339 24.4162 6.10854 24.4996 6.12182 24.5487C6.12885 24.5992 6.13447 24.6093 6.13699 24.5478C6.13771 24.5373 6.13827 24.5233 6.13837 24.5038ZM4.33075 26.8618C4.54299 26.8222 4.90173 26.7188 5.01918 26.6186C4.77952 26.737 4.43984 26.8058 4.33075 26.8618ZM6.71986 25.9664C6.92493 25.7381 6.2222 26.363 6.44537 26.208C6.45822 26.2055 6.71216 25.983 6.71986 25.9664ZM3.39217 23.6855C3.38297 23.69 3.3741 23.6945 3.36554 23.6991C3.13367 23.8212 3.24439 23.8361 3.39335 23.7444C3.42646 23.7246 3.46165 23.7032 3.49706 23.6806C3.51294 23.6702 3.41209 23.6748 3.39217 23.6855ZM17.1774 1.23885C17.1773 1.25865 16.6581 1.38836 16.5606 1.42981C16.6082 1.37848 17.1923 1.19477 17.1774 1.23885ZM3.57746 26.9561C3.66575 26.9934 3.75694 27.0185 3.8445 27.033C3.89182 27.0362 4.02767 27.0373 4.07429 27.0285C4.49735 27.0416 5.02745 26.7425 5.09727 26.6959C5.17211 26.6611 5.07515 26.7567 5.09229 26.7492C5.11368 26.7379 5.46764 26.5852 5.735 26.2697C5.84376 26.1422 5.91049 26.0318 5.91858 26.0178C5.93345 25.9902 5.79527 26.0972 5.87996 25.9285C5.84813 25.9939 5.78446 26.1022 5.68288 26.2248C5.09869 26.8821 4.27247 26.9194 4.2278 26.9519C4.18151 26.9644 4.52027 26.9613 4.07237 27.0155C4.02643 27.0242 3.89254 27.0231 3.8459 27.0199C3.77081 27.0103 3.6814 26.9928 3.57949 26.9567C3.57882 26.9565 3.57814 26.9563 3.57746 26.9561ZM5.29174 26.6026C5.11029 26.6817 5.48213 26.4875 5.6942 26.2345C5.72489 26.2001 5.7498 26.1706 5.76668 26.1512C5.87114 26.0245 5.81752 26.117 5.7101 26.2482C5.54461 26.4507 5.30459 26.5969 5.29174 26.6026ZM6.21589 25.3043C6.25866 25.2387 6.31738 24.6126 6.2683 24.5637C6.27 24.8529 6.17073 25.454 6.21589 25.3043ZM2.95225 27.032C2.95684 27.0346 2.96153 27.0372 2.96634 27.0398C3.14396 27.1537 3.60777 27.294 3.64284 27.2649C3.46811 27.2547 3.0406 27.0705 2.96774 27.0373C2.96069 27.0344 2.95549 27.0326 2.95225 27.032ZM15.4373 2.11428C15.6028 2.06306 15.2421 2.2317 15.1314 2.27047C15.1186 2.25852 15.4236 2.11835 15.4373 2.11428ZM3.21506 23.5238C3.1877 23.5418 2.98485 23.6512 2.72491 23.9157C2.46668 24.1635 2.1584 24.6982 2.15501 25.2052C2.14801 25.4042 2.14629 25.6484 2.15447 25.7352C2.15618 25.649 2.16658 25.4054 2.18028 25.2064C2.19075 24.7135 2.48891 24.1987 2.73858 23.9564C2.98978 23.6987 3.18465 23.5895 3.20661 23.5683C3.22636 23.5524 3.22588 23.5184 3.21506 23.5238ZM6.16435 25.9124C6.10034 26.1123 5.97789 26.2028 5.96297 26.2232C5.93131 26.2646 5.89174 26.3146 5.84681 26.366C5.5995 26.6507 5.3093 26.7939 5.37896 26.7248C5.49717 26.6551 5.66582 26.5351 5.82545 26.3476C6.11168 26.0104 6.23605 25.6328 6.16435 25.9124ZM3.04252 27.2576C3.48285 27.4156 3.19232 27.3161 2.90206 27.1559C2.36223 26.8316 2.2924 26.4016 2.32455 26.5615C2.31995 26.5584 2.50521 26.974 2.88955 27.1785C2.95898 27.2188 3.01737 27.2466 3.04252 27.2576ZM3.46485 23.3775C3.52956 23.3299 3.90979 23.1871 4.26449 23.1547C4.6257 23.1129 4.99114 23.1312 5.24975 23.1549C5.52863 23.1487 6.04896 23.4181 6.20704 23.7053C6.37985 23.9754 6.38722 24.1088 6.40915 24.1821C6.36012 24.0389 6.2902 23.7982 6.04416 23.548C5.79585 23.2941 5.44828 23.1968 5.24746 23.1835C5.14926 23.1721 5.04074 23.157 4.90246 23.1547C4.82152 23.1537 4.84265 23.1763 4.83398 23.1762C4.69242 23.1763 4.7988 23.1512 4.7103 23.1512C4.68146 23.1524 4.38003 23.1572 4.0517 23.2203C3.73 23.2705 3.34821 23.4532 3.46485 23.3775ZM6.12902 26.0278C6.11381 26.0659 6.03271 26.2208 5.88477 26.3987C5.43145 26.9225 4.88007 27.0505 4.85528 27.0669C4.6077 27.09 5.29514 27.0096 5.86868 26.3849C6.02424 26.206 6.11107 26.0534 6.12902 26.0278ZM3.2185 23.4542C3.51934 23.152 4.50115 23.0481 3.83241 23.2107C3.77002 23.2287 3.45954 23.2872 3.2185 23.4542ZM2.9343 27.2707C2.95393 27.2827 3.16513 27.3896 3.37847 27.4442C3.59162 27.5035 3.81153 27.516 3.81978 27.5066C3.71759 27.522 3.00759 27.3314 2.86503 27.2228C2.79634 27.185 2.7865 27.1813 2.86218 27.2279C2.87728 27.2377 2.9014 27.2524 2.9343 27.2707ZM2.21564 26.6524C2.22451 26.6698 2.19488 26.5889 2.20565 26.5898C2.23198 26.5913 2.20125 26.6644 2.53872 27.0341C2.57401 27.0628 2.60433 27.1342 2.83377 27.2793C2.91498 27.332 3.04904 27.4092 3.27818 27.4726C3.38025 27.502 3.54348 27.5062 3.53235 27.5018C3.36938 27.4494 3.1133 27.3773 2.85464 27.2416C2.52237 27.066 2.31628 26.7693 2.22667 26.5898C2.13164 26.4018 2.10088 26.2847 2.07779 26.2189C2.05671 26.1539 2.04851 26.1387 2.05511 26.1892C2.06833 26.2438 2.06679 26.3516 2.21564 26.6524ZM6.14525 26.0679C6.20011 26.0083 6.15345 26.2034 6.02101 26.3302C5.96338 26.3827 6.03466 26.2541 6.14525 26.0679ZM5.18502 27.2516C4.91674 27.3847 5.79798 27.067 5.85692 27.0119C5.81212 27.0206 5.20341 27.2481 5.18502 27.2516ZM15.1699 2.50481C15.1701 2.50473 15.1703 2.50465 15.1705 2.50457C14.9692 2.58615 15.0812 2.50701 15.0715 2.5104C14.6317 2.66315 14.7692 2.66833 14.7055 2.70454C14.57 2.78179 14.5627 2.70435 14.3347 2.83916C14.7138 2.62116 14.3594 2.79952 14.3378 2.78037C14.2497 2.70247 14.8871 2.59077 15.0745 2.4828C15.101 2.4676 14.8837 2.5269 14.9501 2.48669C15.1676 2.3552 15.9398 2.19358 15.1699 2.50481ZM5.93722 26.4409C5.93682 26.4415 5.93641 26.4422 5.93598 26.4429C5.85771 26.5804 5.45755 26.9045 5.18163 27.0088C4.90152 27.1298 4.70874 27.162 4.8468 27.1063C4.86568 27.0969 5.05969 27.0338 5.29689 26.906C5.53221 26.788 5.8199 26.5432 5.92111 26.43C5.95556 26.3968 5.96529 26.3949 5.93722 26.4409ZM0.457713 27.0573C0.385343 26.8526 0.459743 27.3493 0.518168 27.4571C0.53978 27.5018 0.485061 27.141 0.457713 27.0573ZM3.37618 30.0741C3.67043 30.1281 3.98925 30.046 3.62816 30.0162C3.59058 30.0139 3.34681 30.0529 3.37618 30.0741ZM9.25883 24.2764C9.32656 23.9791 9.2476 23.9919 9.23134 24.2116C9.2243 24.2886 9.25647 24.2856 9.25883 24.2764ZM1.16471 23.5474C1.14577 23.5649 0.960532 23.8315 0.982095 23.8337C1.05851 23.7351 1.28622 23.4175 1.16471 23.5474ZM9.25875 24.3721C9.26502 24.195 9.18033 24.4901 9.19226 24.7076C9.20877 24.6008 9.25866 24.3909 9.25875 24.3721ZM2.46646 23.8658C2.33384 24.0246 1.93195 24.6916 1.94786 25.1956C1.94771 25.2022 1.94758 25.2088 1.94746 25.2153C1.9416 25.2177 1.93748 25.2098 1.93465 25.1949C1.92681 25.0744 1.96346 24.7473 2.09103 24.4615C2.21353 24.1725 2.39202 23.9555 2.46646 23.8658ZM2.15613 29.6005C2.45161 29.7264 1.85819 29.3767 1.89453 29.4297C1.90013 29.4393 2.14326 29.5983 2.15613 29.6005ZM1.46542 27.1781C1.53993 27.2927 1.46348 27.1129 1.41436 26.9902C1.36886 26.8805 1.33396 26.7958 1.35163 26.8917C1.35264 26.896 1.36868 26.9436 1.39094 27.0005C1.41828 27.0739 1.46091 27.1714 1.46542 27.1781ZM1.53211 24.0232C1.44206 24.1561 1.22463 24.8275 1.33232 24.5738C1.34142 24.5294 1.54015 24.0398 1.53211 24.0232ZM14.7055 2.73611C14.7789 2.74855 14.4477 2.88524 14.3978 2.89949C14.3779 2.90509 14.6108 2.71965 14.7055 2.73611ZM9.0295 22.2538C8.9868 22.1385 8.85317 21.7697 8.79474 21.7033C8.89301 21.898 9.00514 22.3135 9.0295 22.2538ZM0.991156 28.5688C1.11578 28.8533 1.51585 29.2203 1.45911 29.0845C1.05923 28.6714 1.43837 29.1956 0.991156 28.5688ZM9.10178 25.3483C9.14095 25.2304 9.10975 25.1248 9.10376 25.1377C9.04664 25.2586 9.04477 25.4589 9.10178 25.3483ZM2.99571 21.5718C2.9875 21.5671 2.93497 21.6077 2.87679 21.6623C2.81146 21.7229 2.73601 21.8065 2.76146 21.7954C2.76919 21.7921 2.83907 21.7322 2.89378 21.6801C2.95351 21.623 3.00327 21.5762 2.99571 21.5718ZM6.25351 26.9525C6.43494 26.8772 5.92318 27.1856 5.76808 27.2147C5.67936 27.2194 6.22754 26.975 6.25351 26.9525ZM6.70478 28.0936C6.70184 28.1432 7.26393 27.824 7.0249 27.9181C6.96529 27.9448 6.70562 28.082 6.70478 28.0936ZM1.07436 26.1731C1.14163 26.4425 1.06514 25.9984 1.09122 25.595C1.11055 25.1902 1.19879 24.8305 1.11831 25.088C1.11318 25.1066 1.06345 25.3496 1.05212 25.6122C1.03703 25.8736 1.06855 26.1499 1.07436 26.1731ZM2.03444 23.1119C1.98503 23.1703 1.9035 23.0633 2.16503 22.8392C2.19886 22.8101 2.08406 22.9864 2.11419 22.9639C2.11443 22.9448 2.67293 22.431 2.71735 22.4173C2.74691 22.3909 2.68651 22.3885 2.71616 22.3607C2.74438 22.3252 3.18051 22.0753 3.41317 21.9813C3.84466 21.7965 3.86994 21.7782 3.90489 21.7623C4.00115 21.732 4.16674 21.7102 4.3249 21.6729C4.4383 21.6458 4.54513 21.6212 4.62887 21.599C5.36297 21.4157 6.16441 21.4552 6.9473 21.8945C7.44615 22.1907 7.66334 22.5991 7.77148 22.8394C7.88085 23.0925 7.9153 23.2585 7.9386 23.3716C7.84609 23.1161 7.79155 22.4743 6.9302 21.9241C6.4603 21.6697 6.07928 21.5945 5.64246 21.5608C5.77639 21.5387 5.44484 21.5181 5.197 21.5513C4.95073 21.5864 4.78572 21.6126 5.24773 21.5316C5.1606 21.5402 4.93437 21.5557 4.63785 21.6342C4.42505 21.701 3.68429 21.8207 3.05821 22.2105C2.43632 22.5887 2.10279 23.0435 2.03498 23.1112C2.0348 23.1114 2.03462 23.1117 2.03444 23.1119ZM4.55254 30.2072C4.35749 30.2709 5.35712 30.1714 5.43905 30.0708C5.29836 30.1172 4.57308 30.2149 4.55254 30.2072ZM0.487403 28.0113C0.447729 27.9261 0.311777 27.842 0.230939 27.3843C0.230837 27.3839 0.230735 27.3835 0.230633 27.3831C0.210107 27.2539 0.265318 27.3929 0.266231 27.368C0.263752 27.354 0.216457 26.9735 0.295149 27.282C0.438401 27.7811 0.245483 27.3398 0.324742 27.6175C0.322804 27.6469 0.586852 28.1996 0.59163 28.1638C0.589669 28.1596 0.504618 27.9908 0.498307 27.9615C0.469916 27.8501 0.513997 27.8928 0.509155 27.8775C0.46693 27.8129 0.211652 27.0111 0.246221 26.9357C0.250513 26.918 0.304326 27.1782 0.410741 27.5191C0.510167 27.8558 0.706823 28.2448 0.722393 28.2734C0.738161 28.3114 0.668867 28.3288 0.6839 28.3704C0.674749 28.3965 1.10566 28.9723 1.18292 29.0339C1.20029 29.0552 1.21361 29.072 1.2231 29.0841C1.15553 28.9992 1.63453 29.4378 1.6127 29.4338C1.59386 29.4404 1.25749 29.1414 1.25138 29.1224C1.24687 29.1169 1.24323 29.1118 1.23968 29.1073C1.26497 29.1517 0.997575 28.8965 0.813737 28.6246C0.625615 28.3558 0.510268 28.1044 0.557568 28.2527C0.364865 27.8881 0.628696 28.2802 0.487403 28.0113ZM0.0672227 26.6119C0.0783551 26.6282 0.0895119 26.6452 0.100981 26.6642C0.0924182 26.6319 0.084533 26.6019 0.0776435 26.5763C-0.145677 25.7142 0.153917 24.8248 0.457465 24.267C0.544405 24.1057 0.403679 24.2681 0.531355 24.066C0.634041 23.907 0.776922 23.7694 0.731708 23.8546C0.72069 23.8725 0.502584 24.1724 0.416282 24.3611C0.166682 24.9231 0.279305 24.8159 0.262758 24.8443C0.247766 24.8783 0.0931482 25.2844 0.0702791 25.5562C0.030689 25.9336 0.0590259 26.2249 0.136906 26.5623C0.157308 26.6431 0.177715 26.7679 0.210865 26.9963C0.128049 26.7168 0.102829 26.8568 0.0672227 26.6119ZM4.26966 28.8607C4.24014 28.8932 3.7501 28.8555 3.58532 28.8221C3.61251 28.8087 4.08626 28.8799 4.26966 28.8607ZM9.76799 8.95606C9.7111 8.87683 9.84134 9.53656 9.83661 9.35646C9.83578 9.31643 9.78573 9.0387 9.76799 8.95606ZM10.3126 11.947C10.338 12.0349 10.3074 11.6695 10.2771 11.6752C10.2677 11.6773 10.3096 11.9357 10.3126 11.947ZM4.19679 20.6154C4.21675 20.6032 4.51408 20.4946 4.52372 20.4952C4.73262 20.4501 3.75918 20.8334 4.19679 20.6154ZM10.8279 15.6058C10.7727 15.2947 10.8496 16.2399 10.8557 15.9485C10.8562 15.9339 10.8308 15.6202 10.8279 15.6058ZM10.9467 16.9199C10.9401 16.8452 10.9266 16.5078 10.9141 16.5053C10.8944 16.4994 10.9111 16.8848 10.9467 16.9199ZM9.2191 25.4732C9.28046 25.4417 9.0572 25.9838 8.95684 26.1835C8.9023 26.2093 9.17407 25.6669 9.2191 25.4732ZM9.10065 21.7776C9.20702 22.0281 9.26935 22.2127 9.31897 22.3535C9.56991 23.1562 9.50533 23.4468 9.50808 23.4249C9.48622 23.3963 9.4996 23.0466 9.28297 22.3658C9.22382 22.1938 9.15419 21.9637 9.02041 21.6452C9.04432 21.6299 9.03723 21.6314 9.10065 21.7776ZM9.38293 24.9713C9.37553 24.8792 9.43649 24.6106 9.46102 24.4223C9.47911 24.4598 9.41081 24.84 9.38293 24.9713ZM9.65461 8.16181C9.71569 8.26652 9.78384 8.77956 9.74943 8.69322C9.74228 8.67334 9.62614 8.12393 9.65461 8.16181ZM4.36777 20.5037C4.30026 20.4757 4.97466 20.2609 5.02764 20.2655C5.24327 20.2385 4.41935 20.4585 4.36777 20.5037ZM6.76671 28.2864C6.66122 28.3739 6.32059 28.4916 6.11678 28.557C6.19937 28.5011 6.58077 28.3738 6.76671 28.2864ZM8.32441 27.2141C8.31594 27.2322 8.03412 27.5067 8.0178 27.5132C7.7682 27.7133 8.55579 26.9382 8.32441 27.2141ZM15.5762 2.68012C15.5688 2.68457 15.3998 2.75724 15.3926 2.75907C15.2287 2.79627 15.7387 2.57716 15.5762 2.68012Z" fill="#060B45" style="mix-blend-mode:plus-darker"/>
</svg>
